<?xml version="1.0" encoding="UTF-8" ?>
<!DOCTYPE svg PUBLIC "-//W3C//DTD SVG 1.1//EN" "http://www.w3.org/Graphics/SVG/1.1/DTD/svg11.dtd">
<svg width="450pt" height="232pt" viewBox="0 0 450 232" version="1.1" xmlns="http://www.w3.org/2000/svg">
<g id="#000000ff">
<path fill="#000000" opacity="1.00" d=" M 32.48 7.48 C 41.87 1.52 55.39 10.52 54.67 21.37 C 61.32 23.37 67.64 28.77 68.17 36.07 C 67.63 36.48 66.55 37.29 66.01 37.70 C 68.97 40.18 71.58 43.16 75.07 44.92 C 80.44 47.67 85.50 51.02 90.14 54.89 C 92.25 56.64 94.76 57.81 97.25 58.92 C 100.87 60.80 105.37 58.83 108.94 60.98 C 109.83 62.09 109.43 63.78 109.78 65.10 C 118.95 67.78 128.53 69.15 138.09 68.79 C 141.89 68.21 145.49 69.78 149.19 70.31 C 153.58 71.02 158.07 69.76 162.43 70.75 C 165.59 71.45 168.79 72.13 172.05 71.96 C 181.00 71.25 190.18 70.79 198.94 73.13 C 207.95 74.94 217.04 71.39 226.08 72.74 C 235.10 73.53 244.10 71.70 253.10 72.70 C 261.27 73.16 269.47 72.97 277.56 71.67 C 283.14 71.57 288.37 69.24 293.95 69.11 C 300.31 68.88 306.68 69.32 313.04 68.92 C 322.14 67.70 330.89 64.59 339.99 63.43 C 341.81 59.01 347.69 58.61 351.15 61.32 C 354.43 58.23 359.21 57.65 362.62 54.76 C 367.41 50.67 372.75 47.26 378.33 44.36 C 381.44 42.79 384.02 40.37 386.10 37.60 C 385.23 37.51 383.47 37.34 382.60 37.25 C 381.04 33.20 383.83 29.31 386.51 26.51 C 388.88 23.96 392.11 22.54 395.32 21.38 C 394.61 10.52 408.14 1.50 417.54 7.49 C 421.48 9.26 422.48 13.80 423.61 17.54 C 428.05 13.90 434.24 16.19 438.92 18.16 C 445.15 20.92 446.90 28.54 446.18 34.73 C 445.31 34.27 443.55 33.35 442.68 32.89 C 443.31 35.91 445.47 39.52 443.27 42.42 C 441.87 41.05 440.44 39.72 438.92 38.50 C 439.65 41.50 440.18 44.57 439.73 47.66 C 437.07 46.96 434.55 45.82 432.24 44.34 C 428.28 45.94 424.07 46.79 419.82 47.03 C 423.63 49.98 428.28 51.62 433.06 52.07 C 434.17 52.09 434.90 52.66 435.24 53.79 C 428.83 53.77 422.85 50.97 417.80 47.24 C 411.76 45.43 405.14 44.18 400.94 38.93 C 396.56 41.05 391.49 41.01 387.06 39.07 C 381.71 45.47 373.20 47.52 366.98 52.86 C 362.80 56.70 357.69 59.30 352.41 61.28 C 354.13 64.27 354.22 67.73 354.51 71.08 C 355.56 74.37 356.95 78.00 360.34 79.51 C 356.31 83.51 349.93 81.11 346.71 77.27 C 346.43 79.13 346.33 81.18 344.79 82.51 C 341.46 80.88 343.26 76.62 342.63 73.69 C 341.35 74.63 340.30 76.11 340.57 77.78 C 341.25 81.42 341.88 85.12 341.71 88.84 C 340.87 92.32 339.36 95.59 338.29 98.99 C 337.43 102.97 338.60 106.98 340.23 110.60 C 341.34 113.24 339.60 115.70 338.65 118.05 C 338.58 122.06 338.86 126.08 339.11 130.08 C 339.60 135.75 337.97 141.34 338.27 147.01 C 338.27 150.83 340.38 154.21 340.88 157.94 C 340.82 161.60 339.22 165.17 339.90 168.86 C 340.62 172.81 340.21 177.10 342.24 180.72 C 344.67 185.15 348.06 188.95 350.78 193.20 C 353.89 197.99 359.03 201.94 359.26 208.10 C 358.90 208.36 358.19 208.88 357.84 209.13 C 353.48 208.50 349.51 205.92 344.99 206.31 C 338.62 207.06 332.39 205.18 326.04 205.05 C 319.30 204.87 312.75 202.85 305.99 202.96 C 300.98 202.97 296.03 201.80 291.01 202.00 C 279.40 202.17 267.80 199.50 256.22 201.23 C 250.53 201.88 244.80 201.20 239.10 201.70 C 233.38 202.18 227.70 200.87 221.97 200.99 C 217.40 201.07 212.81 200.80 208.25 201.26 C 200.48 202.31 192.83 199.36 185.04 200.22 C 180.72 200.74 176.38 201.11 172.09 201.85 C 169.36 202.09 166.35 202.52 163.88 201.04 C 157.17 197.54 149.61 200.99 142.83 202.52 C 142.49 199.58 142.59 196.63 143.38 193.77 C 141.71 196.76 140.71 200.60 137.58 202.40 C 131.71 203.68 125.58 202.81 119.76 204.37 C 111.82 205.38 103.21 204.65 96.30 209.43 C 98.76 204.54 103.23 200.86 104.92 195.55 C 106.53 189.83 109.70 184.66 110.72 178.76 C 112.32 172.77 110.32 166.37 112.59 160.50 C 115.30 153.97 114.22 146.82 113.92 139.98 C 114.84 132.33 114.48 124.62 114.57 116.94 C 114.97 113.79 111.44 112.09 111.07 109.14 C 110.34 104.08 113.52 99.74 114.70 95.05 C 115.87 88.38 111.25 82.87 108.94 77.02 C 107.18 74.07 107.20 70.18 104.70 67.72 C 104.73 71.60 104.63 75.51 103.13 79.15 C 101.46 83.56 103.60 90.06 98.64 92.68 C 97.34 93.74 95.68 93.88 94.33 92.83 C 95.71 91.78 97.41 91.05 98.53 89.67 C 99.67 87.59 99.86 85.18 100.19 82.88 C 98.11 83.08 95.47 84.12 94.16 81.84 C 92.42 79.79 94.66 77.69 96.25 76.44 C 98.23 76.28 100.75 76.83 102.07 74.91 C 102.77 71.52 102.98 67.60 100.97 64.60 C 99.66 67.32 100.08 71.42 96.93 72.87 C 94.37 74.34 91.16 74.04 88.39 73.41 C 87.15 72.10 86.39 70.43 85.45 68.91 C 86.35 69.10 88.15 69.47 89.05 69.66 C 93.33 68.22 95.42 64.11 97.75 60.60 C 93.76 58.66 89.80 56.56 86.48 53.57 C 82.45 50.36 77.99 47.80 73.44 45.43 C 69.87 43.66 67.34 40.51 64.14 38.23 C 59.60 41.07 53.85 41.30 49.07 38.91 C 46.52 41.47 43.67 43.86 40.14 44.90 C 35.46 46.13 32.68 50.68 28.05 52.02 C 24.93 52.89 21.70 54.78 18.40 54.02 L 17.87 53.15 C 23.60 51.85 29.88 51.13 34.24 46.68 C 28.66 47.28 23.15 46.37 17.89 44.53 C 15.35 45.56 12.97 47.01 10.28 47.68 C 9.82 44.60 10.34 41.53 11.09 38.55 C 9.69 39.71 8.36 40.94 6.89 42.02 C 3.94 40.01 7.18 35.52 7.32 32.91 C 6.45 33.36 4.71 34.27 3.84 34.73 C 3.08 28.55 4.85 20.94 11.06 18.17 C 15.76 16.17 21.90 13.94 26.41 17.52 C 27.52 13.77 28.53 9.24 32.48 7.48 M 34.66 11.93 C 34.03 17.36 36.75 22.26 40.24 26.17 C 41.38 26.39 43.65 26.83 44.79 27.05 C 43.45 25.19 41.06 23.56 41.22 20.99 C 41.09 17.94 42.73 14.67 45.73 13.63 C 47.80 13.25 49.91 13.92 51.98 13.94 C 48.82 9.07 43.38 6.64 37.74 6.25 C 36.51 8.03 35.52 9.95 34.66 11.93 M 398.02 13.94 C 400.90 13.80 404.58 12.53 406.74 15.25 C 410.09 18.70 409.01 24.36 405.20 27.04 C 410.37 27.73 412.32 22.75 414.47 19.15 C 415.13 14.79 415.47 9.76 412.26 6.26 C 406.61 6.63 401.18 9.08 398.02 13.94 M 27.78 20.95 C 29.05 29.63 24.18 37.55 18.93 44.00 C 28.94 47.43 41.38 46.22 48.71 37.94 C 47.84 34.33 49.14 30.84 50.60 27.59 C 47.31 27.54 43.95 27.83 40.71 27.08 C 37.59 25.66 36.57 22.03 34.80 19.36 C 33.62 15.11 33.67 10.60 36.16 6.78 C 30.01 8.38 26.74 14.95 27.78 20.95 M 413.82 6.77 C 416.33 10.45 415.52 14.97 415.33 19.12 C 413.46 21.85 412.49 25.72 409.18 27.08 C 405.98 27.84 402.64 27.53 399.38 27.60 C 400.89 30.85 402.14 34.35 401.30 37.97 C 408.66 46.22 421.10 47.45 431.11 43.98 C 427.33 39.51 424.12 34.42 422.55 28.75 C 421.10 23.56 423.70 17.97 421.13 13.01 C 420.09 9.64 416.77 8.08 413.82 6.77 M 49.55 19.70 C 52.16 19.12 51.60 16.16 51.64 14.18 C 49.99 14.24 48.34 14.31 46.69 14.40 C 44.52 16.60 46.50 20.51 49.55 19.70 M 398.37 14.18 C 398.18 16.34 398.07 19.55 400.98 19.84 C 403.91 19.94 405.25 16.48 403.32 14.41 C 401.66 14.32 400.01 14.24 398.37 14.18 M 422.79 22.00 C 421.74 28.66 424.86 35.00 428.67 40.23 C 431.09 43.61 435.31 44.86 438.98 46.38 C 438.74 43.50 438.33 40.65 438.04 37.78 C 440.25 38.11 442.00 39.49 443.69 40.86 C 443.22 37.96 441.78 35.17 441.94 32.20 C 443.13 32.37 444.32 32.57 445.52 32.82 C 445.32 28.30 444.41 23.16 440.51 20.31 C 437.13 17.98 432.99 16.78 428.92 16.59 C 425.92 16.39 422.45 18.72 422.79 22.00 M 9.51 20.30 C 5.61 23.15 4.61 28.32 4.55 32.86 C 5.73 32.60 6.91 32.38 8.10 32.19 C 8.17 35.16 6.82 37.95 6.31 40.85 C 8.00 39.49 9.76 38.13 11.95 37.75 C 11.67 40.61 11.26 43.44 11.01 46.29 C 14.71 44.95 18.83 43.58 21.27 40.28 C 25.20 35.04 28.20 28.63 27.22 21.92 C 27.55 18.64 23.94 16.40 21.01 16.59 C 16.97 16.83 12.86 17.97 9.51 20.30 M 54.94 23.48 C 52.43 27.99 47.51 32.49 49.81 38.13 C 54.20 38.43 59.19 38.63 62.61 35.36 C 63.32 35.33 64.73 35.26 65.43 35.23 C 66.80 29.06 60.68 23.83 54.94 23.48 M 384.56 35.22 C 385.27 35.26 386.68 35.33 387.39 35.36 C 390.83 38.65 395.77 38.42 400.17 38.16 C 402.47 32.52 397.61 27.99 395.07 23.48 C 389.33 23.83 383.20 29.06 384.56 35.22 M 104.33 62.18 C 104.42 62.80 104.62 64.04 104.72 64.66 C 106.28 64.73 107.62 64.31 107.83 62.57 C 106.66 62.43 105.49 62.30 104.33 62.18 M 342.84 62.42 C 343.76 64.75 346.90 63.85 347.71 61.87 C 346.07 62.00 344.45 62.18 342.84 62.42 M 350.13 62.22 C 350.02 64.13 350.13 66.05 349.86 67.94 C 349.32 70.28 347.45 72.45 348.25 74.96 C 349.33 78.02 352.73 79.42 355.77 79.52 C 354.41 77.50 352.48 75.65 352.17 73.11 C 351.36 69.49 352.97 65.21 350.13 62.22 M 90.24 71.95 C 92.38 71.84 94.90 72.27 96.59 70.60 C 98.67 69.07 98.02 66.17 98.34 63.96 C 96.18 67.12 93.46 69.86 90.24 71.95 M 317.09 69.87 C 307.84 72.11 298.25 70.20 288.91 71.34 C 284.39 72.54 279.80 73.44 275.10 73.49 C 265.19 75.54 255.03 74.49 245.02 73.89 C 237.69 74.30 230.34 74.92 223.01 74.28 C 216.96 73.82 211.05 75.63 205.00 75.27 C 200.21 75.61 195.68 73.83 190.98 73.30 C 183.59 71.96 176.15 74.26 168.74 73.56 C 164.75 73.24 160.91 71.56 156.86 72.06 C 151.83 72.58 146.82 71.68 141.93 70.61 C 136.95 70.42 131.96 70.58 127.00 70.02 C 120.12 70.07 113.74 67.27 107.05 66.14 C 108.47 74.65 113.31 81.94 116.17 89.96 C 117.87 96.03 112.83 101.11 112.75 107.02 C 112.04 110.90 116.35 113.20 116.31 116.97 C 116.57 120.68 117.48 124.38 117.05 128.11 C 116.12 137.38 117.03 146.76 115.43 155.97 C 114.74 159.30 113.09 162.47 113.30 165.96 C 113.60 172.61 112.72 179.31 110.58 185.62 C 109.10 188.70 107.63 191.78 106.62 195.05 C 105.52 198.62 103.15 201.58 101.58 204.94 C 106.38 203.83 111.28 203.38 116.19 203.14 C 123.09 201.88 130.09 201.00 137.13 201.02 C 140.79 198.02 139.56 192.89 141.98 189.21 C 143.27 190.33 145.81 190.81 145.69 192.93 C 145.77 195.38 145.35 197.82 145.08 200.25 C 151.15 198.89 157.89 196.21 163.87 199.26 C 166.75 200.52 169.99 200.13 173.04 200.01 C 181.34 198.85 189.83 197.89 198.17 199.28 C 202.08 199.82 206.06 199.72 209.99 199.47 C 219.34 198.55 228.70 199.77 238.04 200.09 C 249.71 200.39 261.36 198.34 273.03 199.50 C 282.34 200.14 291.69 199.88 300.97 201.00 C 308.79 200.39 316.35 202.77 324.11 203.16 C 330.77 203.49 337.34 205.15 344.03 204.71 C 348.72 204.15 352.88 206.79 357.38 207.53 C 357.00 205.75 356.60 203.98 356.18 202.21 C 353.03 198.49 349.76 194.83 347.28 190.62 C 344.45 186.70 340.51 183.38 339.53 178.42 C 338.27 172.43 337.42 166.08 338.90 160.05 C 339.53 155.49 337.17 151.31 335.95 147.05 C 335.26 143.70 336.25 140.31 336.40 136.95 C 337.30 130.40 335.40 123.77 336.85 117.26 C 338.14 115.82 339.61 114.13 338.73 112.04 C 337.38 107.31 334.86 102.12 337.15 97.25 C 340.12 90.83 341.72 82.80 337.73 76.46 L 338.76 77.67 C 339.47 73.13 343.91 70.23 343.86 65.53 C 334.63 64.34 326.03 68.49 317.09 69.87 M 95.42 79.78 C 96.01 81.00 97.18 81.87 98.55 81.27 C 100.41 80.90 99.01 78.90 99.05 77.72 C 97.79 78.25 95.93 78.23 95.42 79.78 Z" />
</g>
<g id="#ffffffff">
<path fill="#ffffff" opacity="1.00" d=" M 34.66 11.93 C 35.52 9.95 36.51 8.03 37.74 6.25 C 43.38 6.64 48.82 9.07 51.98 13.94 C 49.91 13.92 47.80 13.25 45.73 13.63 C 42.73 14.67 41.09 17.94 41.22 20.99 C 41.06 23.56 43.45 25.19 44.79 27.05 C 43.65 26.83 41.38 26.39 40.24 26.17 C 36.75 22.26 34.03 17.36 34.66 11.93 Z" />
<path fill="#ffffff" opacity="1.00" d=" M 398.02 13.94 C 401.18 9.08 406.61 6.63 412.26 6.26 C 415.47 9.76 415.13 14.79 414.47 19.15 C 412.32 22.75 410.37 27.73 405.20 27.04 C 409.01 24.36 410.09 18.70 406.74 15.25 C 404.58 12.53 400.90 13.80 398.02 13.94 Z" />
<path fill="#ffffff" opacity="1.00" d=" M 49.55 19.70 C 46.50 20.51 44.52 16.60 46.69 14.40 C 48.34 14.31 49.99 14.24 51.64 14.18 C 51.60 16.16 52.16 19.12 49.55 19.70 Z" />
<path fill="#ffffff" opacity="1.00" d=" M 398.37 14.18 C 400.01 14.24 401.66 14.32 403.32 14.41 C 405.25 16.48 403.91 19.94 400.98 19.84 C 398.07 19.55 398.18 16.34 398.37 14.18 Z" />
</g>
<g id="#fe0000ff">
<path fill="#fe0000" opacity="1.00" d=" M 27.78 20.95 C 26.74 14.95 30.01 8.38 36.16 6.78 C 33.67 10.60 33.62 15.11 34.80 19.36 C 36.57 22.03 37.59 25.66 40.71 27.08 C 43.95 27.83 47.31 27.54 50.60 27.59 C 49.14 30.84 47.84 34.33 48.71 37.94 C 41.38 46.22 28.94 47.43 18.93 44.00 C 24.18 37.55 29.05 29.63 27.78 20.95 Z" />
<path fill="#fe0000" opacity="1.00" d=" M 413.82 6.77 C 416.77 8.08 420.09 9.64 421.13 13.01 C 423.70 17.97 421.10 23.56 422.55 28.75 C 424.12 34.42 427.33 39.51 431.11 43.98 C 421.10 47.45 408.66 46.22 401.30 37.97 C 402.14 34.35 400.89 30.85 399.38 27.60 C 402.64 27.53 405.98 27.84 409.18 27.08 C 412.49 25.72 413.46 21.85 415.33 19.12 C 415.52 14.97 416.33 10.45 413.82 6.77 Z" />
<path fill="#fe0000" opacity="1.00" d=" M 422.79 22.00 C 422.45 18.72 425.92 16.39 428.92 16.59 C 432.99 16.78 437.13 17.98 440.51 20.31 C 444.41 23.16 445.32 28.30 445.52 32.82 C 444.32 32.57 443.13 32.37 441.94 32.20 C 441.78 35.17 443.22 37.96 443.69 40.86 C 442.00 39.49 440.25 38.11 438.04 37.78 C 438.33 40.65 438.74 43.50 438.98 46.38 C 435.31 44.86 431.09 43.61 428.67 40.23 C 424.86 35.00 421.74 28.66 422.79 22.00 Z" />
<path fill="#fe0000" opacity="1.00" d=" M 9.51 20.30 C 12.86 17.97 16.97 16.83 21.01 16.59 C 23.94 16.40 27.55 18.64 27.22 21.92 C 28.20 28.63 25.20 35.04 21.27 40.28 C 18.83 43.58 14.71 44.95 11.01 46.29 C 11.26 43.44 11.67 40.61 11.95 37.75 C 9.76 38.13 8.00 39.49 6.31 40.85 C 6.82 37.95 8.17 35.16 8.10 32.19 C 6.91 32.38 5.73 32.60 4.55 32.86 C 4.61 28.32 5.61 23.15 9.51 20.30 Z" />
</g>
<g id="#ffff00ff">
<path fill="#ffff00" opacity="1.00" d=" M 54.94 23.48 C 60.68 23.83 66.80 29.06 65.43 35.23 C 64.73 35.26 63.32 35.33 62.61 35.36 C 59.19 38.63 54.20 38.43 49.81 38.13 C 47.51 32.49 52.43 27.99 54.94 23.48 Z" />
<path fill="#ffff00" opacity="1.00" d=" M 384.56 35.22 C 383.20 29.06 389.33 23.83 395.07 23.48 C 397.61 27.99 402.47 32.52 400.17 38.16 C 395.77 38.42 390.83 38.65 387.39 35.36 C 386.68 35.33 385.27 35.26 384.56 35.22 Z" />
</g>
<g id="#edb665ff">
<path fill="#edb665" opacity="1.00" d=" M 104.33 62.18 C 105.49 62.30 106.66 62.43 107.83 62.57 C 107.62 64.31 106.28 64.73 104.72 64.66 C 104.62 64.04 104.42 62.80 104.33 62.18 Z" />
<path fill="#edb665" opacity="1.00" d=" M 342.84 62.42 C 344.45 62.18 346.07 62.00 347.71 61.87 C 346.90 63.85 343.76 64.75 342.84 62.42 Z" />
<path fill="#edb665" opacity="1.00" d=" M 350.13 62.22 C 352.97 65.21 351.36 69.49 352.17 73.11 C 352.48 75.65 354.41 77.50 355.77 79.52 C 352.73 79.42 349.33 78.02 348.25 74.96 C 347.45 72.45 349.32 70.28 349.86 67.94 C 350.13 66.05 350.02 64.13 350.13 62.22 Z" />
<path fill="#edb665" opacity="1.00" d=" M 90.24 71.95 C 93.46 69.86 96.18 67.12 98.34 63.96 C 98.02 66.17 98.67 69.07 96.59 70.60 C 94.90 72.27 92.38 71.84 90.24 71.95 Z" />
</g>
<g id="#eab764ff">
<path fill="#eab764" opacity="1.00" d=" M 317.09 69.87 C 326.03 68.49 334.63 64.34 343.86 65.53 C 343.91 70.23 339.47 73.13 338.76 77.67 L 337.73 76.46 C 341.72 82.80 340.12 90.83 337.15 97.25 C 334.86 102.12 337.38 107.31 338.73 112.04 C 339.61 114.13 338.14 115.82 336.85 117.26 C 335.40 123.77 337.30 130.40 336.40 136.95 C 336.25 140.31 335.26 143.70 335.95 147.05 C 337.17 151.31 339.53 155.49 338.90 160.05 C 337.42 166.08 338.27 172.43 339.53 178.42 C 340.51 183.38 344.45 186.70 347.28 190.62 C 349.76 194.83 353.03 198.49 356.18 202.21 C 356.60 203.98 357.00 205.75 357.38 207.53 C 352.88 206.79 348.72 204.15 344.03 204.71 C 337.34 205.15 330.77 203.49 324.11 203.16 C 316.35 202.77 308.79 200.39 300.97 201.00 C 291.69 199.88 282.34 200.14 273.03 199.50 C 261.36 198.34 249.71 200.39 238.04 200.09 C 228.70 199.77 219.34 198.55 209.99 199.47 C 206.06 199.72 202.08 199.82 198.17 199.28 C 189.83 197.89 181.34 198.85 173.04 200.01 C 169.99 200.13 166.75 200.52 163.87 199.26 C 157.89 196.21 151.15 198.89 145.08 200.25 C 145.35 197.82 145.77 195.38 145.69 192.93 C 145.81 190.81 143.27 190.33 141.98 189.21 C 139.56 192.89 140.79 198.02 137.13 201.02 C 130.09 201.00 123.09 201.88 116.19 203.14 C 111.28 203.38 106.38 203.83 101.58 204.94 C 103.15 201.58 105.52 198.62 106.62 195.05 C 107.63 191.78 109.10 188.70 110.58 185.62 C 112.72 179.31 113.60 172.61 113.30 165.96 C 113.09 162.47 114.74 159.30 115.43 155.97 C 117.03 146.76 116.12 137.38 117.05 128.11 C 117.48 124.38 116.57 120.68 116.31 116.97 C 116.35 113.20 112.04 110.90 112.75 107.02 C 112.83 101.11 117.87 96.03 116.17 89.96 C 113.31 81.94 108.47 74.65 107.05 66.14 C 113.74 67.27 120.12 70.07 127.00 70.02 C 131.96 70.58 136.95 70.42 141.93 70.61 C 146.82 71.68 151.83 72.58 156.86 72.06 C 160.91 71.56 164.75 73.24 168.74 73.56 C 176.15 74.26 183.59 71.96 190.98 73.30 C 195.68 73.83 200.21 75.61 205.00 75.27 C 211.05 75.63 216.96 73.82 223.01 74.28 C 230.34 74.92 237.69 74.30 245.02 73.89 C 255.03 74.49 265.19 75.54 275.10 73.49 C 279.80 73.44 284.39 72.54 288.91 71.34 C 298.25 70.20 307.84 72.11 317.09 69.87 Z" />
</g>
</svg>
