<?xml version="1.0" encoding="UTF-8" ?>
<!DOCTYPE svg PUBLIC "-//W3C//DTD SVG 1.1//EN" "http://www.w3.org/Graphics/SVG/1.1/DTD/svg11.dtd">
<svg width="450pt" height="232pt" viewBox="0 0 450 232" version="1.1" xmlns="http://www.w3.org/2000/svg">
<g id="#ffffffff">
<path fill="#ffffff" opacity="1.00" d=" M 0.00 0.00 L 0.06 0.00 C 0.05 0.01 0.02 0.04 0.00 0.06 L 0.00 0.00 Z" />
<path fill="#ffffff" opacity="1.00" d=" M 397.79 14.34 C 401.10 9.17 406.89 5.90 413.08 6.29 C 415.69 9.75 415.66 14.02 415.45 18.16 C 413.03 22.00 411.08 27.69 405.42 27.10 C 406.63 25.44 408.55 24.09 409.08 22.00 C 409.47 18.84 408.27 15.25 405.30 13.73 C 402.86 12.71 400.22 14.07 397.79 14.34 Z" />
<path fill="#ffffff" opacity="1.00" d=" M 37.09 6.44 C 43.18 5.66 48.97 8.96 52.35 13.91 C 50.25 13.79 48.18 13.35 46.08 13.43 C 42.37 14.58 40.63 19.02 41.56 22.58 C 42.35 24.32 43.76 25.65 44.94 27.12 C 43.35 26.67 41.45 26.88 40.08 25.87 C 36.68 22.06 34.02 17.20 34.67 11.92 C 35.49 10.10 36.30 8.28 37.09 6.44 Z" />
<path fill="#ffffff" opacity="1.00" d=" M 46.21 16.10 C 46.31 13.27 49.88 14.43 51.74 14.21 C 51.58 15.82 52.53 18.06 50.81 19.10 C 48.77 20.92 45.28 18.76 46.21 16.10 Z" />
<path fill="#ffffff" opacity="1.00" d=" M 398.56 14.39 C 400.45 14.35 403.87 13.28 404.42 15.93 C 405.55 19.42 399.93 21.29 398.64 17.88 C 398.62 17.01 398.58 15.27 398.56 14.39 Z" />
</g>
<g id="#000000ff">
<path fill="#000000" opacity="1.00" d=" M 32.29 7.30 C 41.76 1.34 55.72 10.03 54.83 21.16 C 60.84 23.24 66.60 27.60 68.36 33.95 C 69.15 35.79 67.54 36.98 66.34 38.03 C 69.94 41.44 73.79 44.60 78.31 46.70 C 85.74 50.36 91.19 57.34 99.33 59.64 C 102.20 59.95 105.16 59.66 107.96 60.49 C 110.06 60.84 109.26 63.61 109.85 65.10 C 119.61 68.01 129.86 69.28 140.03 68.71 C 142.39 68.68 144.66 69.41 146.95 69.88 C 152.54 71.37 158.41 69.50 163.99 71.08 C 171.58 73.04 179.35 70.82 187.05 71.45 C 193.79 71.23 200.18 74.43 206.94 73.50 C 213.04 73.57 219.05 71.73 225.16 72.66 C 234.49 73.61 243.82 71.71 253.14 72.69 C 265.48 73.49 277.89 72.22 289.93 69.53 C 297.89 68.40 305.97 69.63 313.95 68.80 C 322.66 67.38 331.14 64.78 339.85 63.34 C 342.03 59.13 347.62 58.59 351.20 61.33 C 355.13 57.90 360.68 57.10 364.40 53.33 C 371.05 47.28 380.28 44.86 386.18 37.92 C 384.92 37.70 383.66 37.48 382.40 37.27 C 381.20 33.15 383.85 29.37 386.55 26.53 C 388.98 23.97 392.28 22.58 395.47 21.22 C 394.87 10.24 408.36 1.40 417.94 7.19 C 422.01 9.01 423.17 13.63 424.09 17.56 C 427.02 14.67 429.96 11.40 433.99 10.09 C 439.31 9.04 445.42 11.48 448.19 16.26 C 446.65 18.53 442.82 18.04 440.53 19.61 C 442.56 20.53 444.74 21.22 446.59 22.51 C 448.13 23.81 448.62 25.89 449.49 27.63 C 446.16 27.25 442.72 26.13 439.45 27.40 C 442.25 28.95 444.88 30.97 445.95 34.13 C 443.84 34.95 441.64 35.60 439.71 36.81 C 436.58 38.94 435.07 42.72 431.99 44.89 C 428.25 46.63 424.06 47.05 420.03 47.60 C 423.28 49.26 426.57 51.07 430.24 51.61 C 432.09 52.04 434.41 51.81 435.48 53.76 C 429.99 53.74 424.56 51.91 420.10 48.74 C 416.88 46.30 412.66 46.25 409.02 44.81 C 405.94 43.66 403.51 41.36 401.16 39.15 C 396.67 41.37 391.46 41.24 386.94 39.21 C 381.60 45.48 373.21 47.54 367.07 52.81 C 362.85 56.63 357.76 59.25 352.48 61.28 C 353.96 64.33 354.20 67.72 354.55 71.04 C 355.42 74.49 357.21 77.89 360.36 79.76 C 356.02 83.21 350.08 81.19 346.76 77.34 C 346.37 79.17 346.20 81.15 344.84 82.58 C 341.50 80.79 343.26 76.45 342.47 73.42 C 338.89 76.82 341.78 81.58 341.67 85.71 C 342.53 91.83 337.34 96.92 338.07 103.03 C 338.08 106.21 339.92 108.93 340.51 111.97 C 340.89 114.81 338.25 117.04 338.64 119.88 C 338.70 123.25 338.87 126.62 339.11 129.98 C 339.56 135.59 338.07 141.11 338.26 146.72 C 338.22 150.63 340.32 154.12 340.87 157.94 C 340.75 161.61 339.33 165.20 339.90 168.89 C 340.56 173.08 340.28 177.61 342.58 181.35 C 345.16 185.68 348.42 189.55 351.19 193.76 C 354.25 198.28 359.00 202.17 359.26 208.05 C 357.44 210.28 354.58 208.00 352.34 207.63 C 347.16 205.32 341.46 207.08 336.07 206.08 C 329.79 205.02 323.37 205.17 317.10 204.08 C 309.50 202.67 301.74 202.98 294.09 202.05 C 280.72 202.35 267.37 199.34 254.05 201.41 C 245.03 201.35 236.00 202.27 227.01 201.18 C 220.01 200.86 212.97 200.81 205.98 201.44 C 200.62 201.75 195.38 200.32 190.04 200.13 C 182.63 199.80 175.37 201.89 167.99 202.05 C 164.75 202.27 162.26 199.54 159.05 199.60 C 153.47 199.23 148.15 201.15 142.86 202.58 C 142.64 199.41 141.99 196.00 144.03 193.20 C 141.09 195.51 141.38 200.79 137.53 202.40 C 132.77 203.48 127.83 203.01 123.03 203.75 C 114.11 205.76 104.17 204.00 96.24 209.45 C 98.96 204.44 103.50 200.48 105.15 194.88 C 106.70 189.64 109.51 184.83 110.58 179.43 C 111.67 175.37 111.38 171.15 111.43 166.99 C 111.40 163.14 113.07 159.59 113.91 155.89 C 115.23 149.32 113.36 142.66 114.24 136.07 C 114.82 129.71 114.46 123.31 114.55 116.93 C 114.82 113.50 110.81 111.55 110.97 108.10 C 110.66 102.08 115.74 97.17 114.77 91.09 C 114.16 86.47 111.29 82.59 109.56 78.35 C 107.75 74.83 106.92 70.89 104.88 67.47 C 105.16 74.20 102.38 80.42 101.95 87.07 C 102.20 90.91 97.97 94.67 94.26 93.09 C 95.99 91.52 98.73 90.53 99.23 87.96 C 99.74 86.33 99.96 84.64 100.25 82.96 C 98.12 83.06 95.44 84.08 94.10 81.78 C 92.51 79.81 94.69 77.77 96.13 76.48 C 98.13 76.15 100.90 77.02 102.05 74.83 C 103.02 71.40 102.58 67.64 101.07 64.43 C 100.20 66.87 99.49 69.35 98.80 71.84 C 95.75 73.89 91.98 74.42 88.45 73.46 C 87.22 72.10 86.37 70.44 85.39 68.91 C 86.32 69.10 88.18 69.49 89.10 69.68 C 93.28 68.11 95.48 64.15 97.74 60.60 C 93.73 58.68 89.83 56.50 86.46 53.56 C 82.45 50.36 78.00 47.82 73.47 45.44 C 70.16 43.81 67.77 40.95 64.88 38.75 C 59.91 40.83 54.25 41.79 49.28 39.12 C 47.35 40.92 45.46 42.86 43.05 44.01 C 40.42 45.33 37.38 45.87 35.03 47.73 C 30.18 51.81 23.77 54.42 17.38 54.08 C 19.32 52.06 22.24 52.37 24.73 51.69 C 28.08 50.97 31.06 49.20 33.82 47.23 C 28.55 47.52 23.08 47.05 18.26 44.78 C 15.23 42.49 13.70 38.68 10.46 36.61 C 8.70 35.60 6.74 35.02 4.84 34.33 C 5.15 30.64 8.46 28.93 11.32 27.33 C 7.91 26.30 4.42 27.11 1.00 27.57 C 1.82 25.92 2.30 24.00 3.64 22.66 C 5.51 21.26 7.80 20.60 9.90 19.65 C 7.42 18.35 4.73 17.58 1.98 17.13 C 4.22 11.84 10.49 9.20 15.96 9.98 C 20.18 11.10 23.34 14.42 26.25 17.49 C 27.38 13.72 28.35 9.14 32.29 7.30 M 397.79 14.34 C 400.22 14.07 402.86 12.71 405.30 13.73 C 408.27 15.25 409.47 18.84 409.08 22.00 C 408.55 24.09 406.63 25.44 405.42 27.10 C 411.08 27.69 413.03 22.00 415.45 18.16 C 415.66 14.02 415.69 9.75 413.08 6.29 C 406.89 5.90 401.10 9.17 397.79 14.34 M 37.09 6.44 C 36.30 8.28 35.49 10.10 34.67 11.92 C 34.02 17.20 36.68 22.06 40.08 25.87 C 41.45 26.88 43.35 26.67 44.94 27.12 C 43.76 25.65 42.35 24.32 41.56 22.58 C 40.63 19.02 42.37 14.58 46.08 13.43 C 48.18 13.35 50.25 13.79 52.35 13.91 C 48.97 8.96 43.18 5.66 37.09 6.44 M 414.22 6.31 C 418.30 12.81 416.26 21.70 410.58 26.52 C 407.28 28.25 403.28 27.40 399.68 27.60 C 401.07 30.92 402.30 34.42 401.56 38.07 C 408.75 46.21 421.42 48.38 431.25 44.18 C 433.69 42.67 434.97 39.93 436.95 37.92 C 439.04 35.43 442.26 34.52 445.09 33.17 C 443.17 30.92 440.66 29.38 438.04 28.10 C 440.34 24.45 444.81 25.84 448.28 26.45 C 446.81 22.95 443.23 21.93 440.07 20.59 C 439.87 17.07 444.93 17.22 447.28 16.06 C 443.97 12.50 439.00 9.96 434.06 11.13 C 429.85 12.66 426.94 16.24 423.70 19.14 C 423.43 21.65 423.23 24.18 423.11 26.71 C 422.93 26.74 422.56 26.82 422.37 26.86 C 422.51 21.89 423.79 16.52 421.27 11.90 C 420.03 8.92 416.76 7.85 414.22 6.31 M 29.04 12.25 C 26.35 17.02 28.29 22.50 27.58 27.61 C 27.10 24.93 27.18 22.18 26.62 19.51 C 23.96 16.18 20.74 13.03 16.79 11.28 C 11.72 9.72 6.58 12.54 3.05 16.04 C 5.58 17.15 10.01 17.03 10.62 20.40 C 7.40 21.86 3.79 22.99 2.04 26.39 C 5.60 25.87 10.10 24.45 12.46 28.14 C 9.86 29.45 6.68 30.61 6.01 33.82 C 12.18 34.51 14.84 40.43 19.02 44.05 C 28.86 48.42 41.76 46.29 48.92 37.99 C 48.11 34.40 49.41 30.90 50.87 27.67 C 46.67 27.13 40.94 29.01 38.09 24.88 C 34.03 19.78 32.62 12.55 35.89 6.67 C 33.21 7.92 30.14 9.24 29.04 12.25 M 46.21 16.10 C 45.28 18.76 48.77 20.92 50.81 19.10 C 52.53 18.06 51.58 15.82 51.74 14.21 C 49.88 14.43 46.31 13.27 46.21 16.10 M 398.56 14.39 C 398.58 15.27 398.62 17.01 398.64 17.88 C 399.93 21.29 405.55 19.42 404.42 15.93 C 403.87 13.28 400.45 14.35 398.56 14.39 M 55.20 23.48 C 52.62 28.02 48.06 32.48 49.90 38.19 C 52.26 38.41 54.65 38.76 57.00 38.33 C 60.17 38.01 62.49 35.37 65.68 35.13 C 67.43 28.98 60.87 23.76 55.20 23.48 M 384.47 35.36 C 385.28 35.37 386.90 35.37 387.71 35.37 C 388.02 35.80 388.65 36.66 388.96 37.08 C 392.67 38.21 396.74 39.38 400.52 37.84 C 402.52 32.24 397.63 27.84 395.11 23.40 C 389.31 24.01 383.31 29.09 384.47 35.36 M 103.91 62.26 C 104.36 63.06 104.85 63.85 105.37 64.61 C 106.85 65.17 107.30 63.53 108.02 62.63 C 106.65 62.48 105.28 62.35 103.91 62.26 M 342.28 62.97 C 344.21 64.08 346.72 63.96 347.90 61.80 C 345.98 61.97 344.09 62.33 342.28 62.97 M 350.26 62.11 C 350.20 65.55 349.84 68.99 348.33 72.13 C 346.86 76.57 351.96 79.47 355.72 79.65 C 354.64 77.99 353.37 76.42 352.56 74.60 C 351.10 70.54 353.06 65.76 350.26 62.11 M 90.23 72.02 C 92.38 71.80 94.92 72.26 96.61 70.58 C 98.64 69.02 97.99 66.11 98.40 63.89 C 96.19 67.08 93.44 69.84 90.23 72.02 M 317.10 69.88 C 308.17 71.97 298.95 70.43 289.91 71.18 C 285.03 72.26 280.16 73.48 275.13 73.51 C 265.20 75.51 255.04 74.48 245.03 73.91 C 239.68 74.23 234.33 74.48 228.98 74.60 C 223.32 74.31 217.57 73.79 212.00 75.13 C 207.43 75.19 202.78 75.64 198.28 74.66 C 193.56 73.73 188.80 72.61 183.96 72.90 C 179.64 73.18 175.31 73.65 170.97 73.72 C 166.19 73.71 161.64 71.61 156.84 72.06 C 151.82 72.55 146.82 71.67 141.93 70.63 C 134.81 70.44 127.66 70.40 120.59 69.39 C 116.04 68.38 111.58 66.97 106.99 66.17 C 108.54 74.63 113.31 81.93 116.12 89.95 C 117.89 95.98 112.87 101.10 112.75 106.98 C 112.12 110.54 115.67 112.79 116.18 116.09 C 116.63 120.38 117.49 124.69 116.96 129.02 C 116.20 137.98 116.96 147.03 115.41 155.93 C 114.60 159.60 112.94 163.15 113.29 166.99 C 113.56 173.29 112.60 179.62 110.58 185.58 C 107.46 191.99 105.57 198.95 101.52 204.92 C 106.31 203.88 111.18 203.40 116.07 203.14 C 123.06 201.92 130.12 201.00 137.22 200.99 C 140.61 197.87 139.80 192.94 141.90 189.15 C 143.19 190.29 145.73 190.77 145.68 192.89 C 145.77 195.35 145.35 197.80 145.09 200.25 C 150.92 198.97 157.31 196.35 163.12 198.99 C 166.54 200.55 170.41 200.20 174.06 199.90 C 182.02 198.71 190.17 198.00 198.17 199.27 C 202.69 199.88 207.29 199.70 211.82 199.33 C 218.69 198.80 225.57 199.47 232.43 199.80 C 240.58 200.57 248.74 199.77 256.88 199.45 C 267.59 198.41 278.29 200.28 289.00 200.08 C 294.01 200.04 298.95 201.26 303.96 201.01 C 310.41 200.72 316.64 202.79 323.05 203.07 C 330.05 203.39 336.95 205.11 343.98 204.71 C 348.66 204.23 352.91 206.64 357.37 207.61 C 356.99 205.82 356.61 204.04 356.22 202.26 C 353.05 198.57 349.89 194.85 347.32 190.72 C 344.50 186.76 340.53 183.40 339.53 178.41 C 338.23 172.41 337.49 166.05 338.89 159.99 C 339.59 155.09 336.72 150.72 335.78 146.06 C 335.53 142.69 336.30 139.36 336.47 136.01 C 337.15 129.80 335.51 123.54 336.81 117.37 C 337.64 116.01 339.51 114.74 338.84 112.91 C 337.92 108.00 334.89 103.02 336.89 97.96 C 339.19 92.61 341.13 86.72 339.53 80.88 C 337.81 76.65 340.64 72.51 343.24 69.37 C 343.43 68.07 343.61 66.77 343.77 65.47 C 334.58 64.46 326.00 68.43 317.10 69.88 M 95.08 78.91 C 95.93 80.74 97.52 81.64 99.54 81.51 C 99.42 80.29 99.27 79.07 99.11 77.86 C 97.76 78.20 96.42 78.55 95.08 78.91 Z" />
</g>
<g id="#fe0000ff">
<path fill="#fe0000" opacity="1.00" d=" M 414.22 6.31 C 416.76 7.85 420.03 8.92 421.27 11.90 C 423.79 16.52 422.51 21.89 422.37 26.86 C 422.56 26.82 422.93 26.74 423.11 26.71 C 423.23 24.18 423.43 21.65 423.70 19.14 C 426.94 16.24 429.85 12.66 434.06 11.13 C 439.00 9.96 443.97 12.50 447.28 16.06 C 444.93 17.22 439.87 17.07 440.07 20.59 C 443.23 21.93 446.81 22.95 448.28 26.45 C 444.81 25.84 440.34 24.45 438.04 28.10 C 440.66 29.38 443.17 30.92 445.09 33.17 C 442.26 34.52 439.04 35.43 436.95 37.92 C 434.97 39.93 433.69 42.67 431.25 44.18 C 421.42 48.38 408.75 46.21 401.56 38.07 C 402.30 34.42 401.07 30.92 399.68 27.60 C 403.28 27.40 407.28 28.25 410.58 26.52 C 416.26 21.70 418.30 12.81 414.22 6.31 Z" />
<path fill="#fe0000" opacity="1.00" d=" M 29.04 12.25 C 30.14 9.24 33.21 7.92 35.89 6.67 C 32.62 12.55 34.03 19.78 38.09 24.88 C 40.94 29.01 46.67 27.13 50.87 27.67 C 49.41 30.90 48.11 34.40 48.92 37.99 C 41.76 46.29 28.86 48.42 19.02 44.05 C 14.84 40.43 12.18 34.51 6.01 33.82 C 6.68 30.61 9.86 29.45 12.46 28.14 C 10.10 24.45 5.60 25.87 2.04 26.39 C 3.79 22.99 7.40 21.86 10.62 20.40 C 10.01 17.03 5.58 17.15 3.05 16.04 C 6.58 12.54 11.72 9.72 16.79 11.28 C 20.74 13.03 23.96 16.18 26.62 19.51 C 27.18 22.18 27.10 24.93 27.58 27.61 C 28.29 22.50 26.35 17.02 29.04 12.25 Z" />
</g>
<g id="#ffff00ff">
<path fill="#ffff00" opacity="1.00" d=" M 55.20 23.48 C 60.87 23.76 67.43 28.98 65.68 35.13 C 62.49 35.37 60.17 38.01 57.00 38.33 C 54.65 38.76 52.26 38.41 49.90 38.19 C 48.06 32.48 52.62 28.02 55.20 23.48 Z" />
<path fill="#ffff00" opacity="1.00" d=" M 384.47 35.36 C 383.31 29.09 389.31 24.01 395.11 23.40 C 397.63 27.84 402.52 32.24 400.52 37.84 C 396.74 39.38 392.67 38.21 388.96 37.08 C 388.65 36.66 388.02 35.80 387.71 35.37 C 386.90 35.37 385.28 35.37 384.47 35.36 Z" />
</g>
<g id="#edb665ff">
<path fill="#edb665" opacity="1.00" d=" M 103.91 62.26 C 105.28 62.35 106.65 62.48 108.02 62.63 C 107.30 63.53 106.85 65.17 105.37 64.61 C 104.85 63.85 104.36 63.06 103.91 62.26 Z" />
<path fill="#edb665" opacity="1.00" d=" M 342.28 62.97 C 344.09 62.33 345.98 61.97 347.90 61.80 C 346.72 63.96 344.21 64.08 342.28 62.97 Z" />
<path fill="#edb665" opacity="1.00" d=" M 350.26 62.11 C 353.06 65.76 351.10 70.54 352.56 74.60 C 353.37 76.42 354.64 77.99 355.72 79.65 C 351.96 79.47 346.86 76.57 348.33 72.13 C 349.84 68.99 350.20 65.55 350.26 62.11 Z" />
<path fill="#edb665" opacity="1.00" d=" M 90.23 72.02 C 93.44 69.84 96.19 67.08 98.40 63.89 C 97.99 66.11 98.64 69.02 96.61 70.58 C 94.92 72.26 92.38 71.80 90.23 72.02 Z" />
</g>
<g id="#eab764ff">
<path fill="#eab764" opacity="1.00" d=" M 317.10 69.88 C 326.00 68.43 334.58 64.46 343.77 65.47 C 343.61 66.77 343.43 68.07 343.24 69.37 C 340.64 72.51 337.81 76.65 339.53 80.88 C 341.13 86.72 339.19 92.61 336.89 97.96 C 334.89 103.02 337.92 108.00 338.84 112.91 C 339.51 114.74 337.64 116.01 336.81 117.37 C 335.51 123.54 337.15 129.80 336.47 136.01 C 336.30 139.36 335.53 142.69 335.78 146.06 C 336.72 150.72 339.59 155.09 338.89 159.99 C 337.49 166.05 338.23 172.41 339.53 178.41 C 340.53 183.40 344.50 186.76 347.32 190.72 C 349.89 194.85 353.05 198.57 356.22 202.26 C 356.61 204.04 356.99 205.82 357.37 207.61 C 352.91 206.64 348.66 204.23 343.98 204.71 C 336.95 205.11 330.05 203.39 323.05 203.07 C 316.64 202.79 310.41 200.72 303.96 201.01 C 298.95 201.26 294.01 200.04 289.00 200.08 C 278.29 200.28 267.59 198.41 256.88 199.45 C 248.74 199.77 240.58 200.57 232.43 199.80 C 225.57 199.47 218.69 198.80 211.82 199.33 C 207.29 199.70 202.69 199.88 198.17 199.27 C 190.17 198.00 182.02 198.71 174.06 199.90 C 170.41 200.20 166.54 200.55 163.12 198.99 C 157.31 196.35 150.92 198.97 145.09 200.25 C 145.35 197.80 145.77 195.35 145.68 192.89 C 145.73 190.77 143.19 190.29 141.90 189.15 C 139.80 192.94 140.61 197.87 137.22 200.99 C 130.12 201.00 123.06 201.92 116.07 203.14 C 111.18 203.40 106.31 203.88 101.52 204.92 C 105.57 198.95 107.46 191.99 110.58 185.58 C 112.60 179.62 113.56 173.29 113.29 166.99 C 112.94 163.15 114.60 159.60 115.41 155.93 C 116.96 147.03 116.20 137.98 116.96 129.02 C 117.49 124.69 116.63 120.38 116.18 116.09 C 115.67 112.79 112.12 110.54 112.75 106.98 C 112.87 101.10 117.89 95.98 116.12 89.95 C 113.31 81.93 108.54 74.63 106.99 66.17 C 111.58 66.97 116.04 68.38 120.59 69.39 C 127.66 70.40 134.81 70.44 141.93 70.63 C 146.82 71.67 151.82 72.55 156.84 72.06 C 161.64 71.61 166.19 73.71 170.97 73.72 C 175.31 73.65 179.64 73.18 183.96 72.90 C 188.80 72.61 193.56 73.73 198.28 74.66 C 202.78 75.64 207.43 75.19 212.00 75.13 C 217.57 73.79 223.32 74.31 228.98 74.60 C 234.33 74.48 239.68 74.23 245.03 73.91 C 255.04 74.48 265.20 75.51 275.13 73.51 C 280.16 73.48 285.03 72.26 289.91 71.18 C 298.95 70.43 308.17 71.97 317.10 69.88 Z" />
</g>
</svg>
