<?xml version="1.0" encoding="UTF-8" ?>
<!DOCTYPE svg PUBLIC "-//W3C//DTD SVG 1.1//EN" "http://www.w3.org/Graphics/SVG/1.1/DTD/svg11.dtd">
<svg width="540pt" height="960pt" viewBox="0 0 540 960" version="1.1" xmlns="http://www.w3.org/2000/svg">
<g id="#40a4dfff">
<path fill="#40a4df" opacity="1.00" d=" M 0.00 0.00 L 540.00 0.00 L 540.00 668.79 C 535.73 659.90 532.70 650.45 528.27 641.62 C 523.20 631.71 519.46 621.17 513.85 611.54 C 512.17 606.14 509.43 601.17 506.97 596.10 C 498.82 579.15 490.88 562.10 482.83 545.11 C 481.49 541.69 478.26 539.70 475.73 537.25 C 463.82 525.30 451.11 514.19 439.18 502.27 C 438.98 502.47 438.57 502.89 438.36 503.09 C 427.71 513.21 416.82 523.09 406.20 533.25 C 402.07 537.08 397.55 540.55 394.18 545.12 C 382.76 560.02 370.93 574.59 359.55 589.51 C 348.61 602.97 339.41 617.72 329.40 631.87 C 326.29 635.96 323.82 640.55 320.36 644.38 C 319.25 645.76 317.22 644.85 316.24 643.78 C 307.81 635.66 299.67 627.25 291.22 619.16 C 283.84 626.77 276.23 634.15 268.61 641.51 C 264.33 646.43 259.43 650.76 254.73 655.27 C 247.12 662.04 238.82 668.05 231.52 675.15 C 226.02 679.04 220.84 683.46 216.84 688.91 C 209.05 698.69 200.74 708.03 192.80 717.69 C 189.99 721.19 186.91 724.51 183.33 727.24 C 175.67 732.95 168.36 739.12 160.57 744.66 L 159.34 745.26 C 155.19 745.66 152.11 742.07 148.53 740.50 L 148.20 739.70 C 143.60 742.46 140.41 746.91 136.15 750.10 C 134.97 751.01 133.39 750.99 132.00 751.33 C 124.76 752.09 117.47 752.35 110.30 753.70 C 108.48 753.82 106.66 753.98 104.83 754.10 C 100.64 753.45 97.01 751.14 93.16 749.55 C 86.59 746.96 81.03 742.50 74.85 739.18 C 70.06 736.63 65.77 732.41 60.04 732.30 C 54.29 732.07 48.53 731.35 42.76 731.63 C 41.36 732.49 40.01 733.43 38.63 734.34 C 29.93 739.70 21.55 745.56 12.75 750.75 C 11.59 751.50 10.18 751.49 8.85 751.55 C 5.89 751.02 2.93 750.48 0.00 749.78 L 0.00 0.00 Z" />
</g>
<g id="#f1f2faff">
<path fill="#f1f2fa" opacity="1.00" d=" M 438.36 503.09 C 438.57 502.89 438.98 502.47 439.18 502.27 C 451.11 514.19 463.82 525.30 475.73 537.25 C 478.26 539.70 481.49 541.69 482.83 545.11 C 490.88 562.10 498.82 579.15 506.97 596.10 C 509.43 601.17 512.17 606.14 513.85 611.54 C 501.00 589.60 488.43 567.50 475.55 545.57 C 475.37 545.32 475.00 544.81 474.82 544.56 C 472.88 544.50 470.93 544.70 469.03 545.11 C 456.37 547.91 443.67 550.55 430.95 553.03 C 431.27 546.93 432.79 540.99 433.72 534.98 C 435.07 525.99 436.83 517.06 438.27 508.09 C 438.50 506.43 438.38 504.75 438.36 503.09 Z" />
</g>
<g id="#fefffaff">
<path fill="#fefffa" opacity="1.00" d=" M 406.20 533.25 C 416.82 523.09 427.71 513.21 438.36 503.09 C 438.38 504.75 438.50 506.43 438.27 508.09 C 436.83 517.06 435.07 525.99 433.72 534.98 C 432.79 540.99 431.27 546.93 430.95 553.03 C 443.67 550.55 456.37 547.91 469.03 545.11 C 470.93 544.70 472.88 544.50 474.82 544.56 C 460.73 565.00 446.41 585.28 432.13 605.59 C 414.74 595.83 397.37 586.07 379.98 576.32 C 379.62 576.85 378.90 577.89 378.54 578.42 C 365.71 596.68 353.05 615.06 340.33 633.39 C 339.80 633.26 338.75 632.98 338.22 632.84 C 339.08 631.61 339.95 630.38 340.82 629.16 C 339.53 628.05 338.25 626.93 336.97 625.83 C 336.35 626.38 335.74 626.94 335.14 627.51 C 336.08 628.33 337.02 629.16 337.97 629.99 C 337.59 630.82 337.20 631.65 336.83 632.49 C 336.07 632.21 335.32 631.95 334.57 631.69 C 333.44 632.62 332.31 633.56 331.17 634.50 C 330.73 633.84 329.85 632.52 329.40 631.87 C 339.41 617.72 348.61 602.97 359.55 589.51 C 370.93 574.59 382.76 560.02 394.18 545.12 C 397.55 540.55 402.07 537.08 406.20 533.25 Z" />
</g>
<g id="#461d45ff">
<path fill="#461d45" opacity="1.00" d=" M 474.82 544.56 C 475.00 544.81 475.37 545.32 475.55 545.57 C 475.07 547.69 474.60 549.82 474.41 552.00 C 472.49 575.34 470.23 598.66 468.23 622.00 C 468.06 627.02 463.99 630.51 461.60 634.58 C 441.01 666.00 420.06 697.19 399.65 728.73 C 399.07 730.52 398.59 732.36 398.24 734.22 C 398.29 731.08 398.18 727.87 397.13 724.89 C 389.38 702.41 382.53 679.65 374.88 657.14 C 372.49 648.32 368.69 639.93 366.90 630.94 C 371.13 616.27 373.83 601.19 377.59 586.39 C 378.32 583.79 378.61 581.10 378.54 578.42 C 378.90 577.89 379.62 576.85 379.98 576.32 C 397.37 586.07 414.74 595.83 432.13 605.59 C 446.41 585.28 460.73 565.00 474.82 544.56 Z" />
</g>
<g id="#2a1441ff">
<path fill="#2a1441" opacity="1.00" d=" M 474.41 552.00 C 474.60 549.82 475.07 547.69 475.55 545.57 C 488.43 567.50 501.00 589.60 513.85 611.54 C 519.46 621.17 523.20 631.71 528.27 641.62 C 532.70 650.45 535.73 659.90 540.00 668.79 L 540.00 810.51 C 528.43 797.94 517.11 785.13 505.29 772.80 C 503.42 774.80 501.61 776.86 499.72 778.85 C 498.93 779.57 498.15 780.32 497.37 781.06 C 483.72 785.47 470.42 790.92 457.05 796.12 C 453.39 797.37 449.86 798.99 446.52 800.96 C 446.61 800.52 446.78 799.66 446.87 799.22 C 449.44 786.14 452.02 773.05 454.61 759.97 C 455.33 756.83 456.03 753.66 455.86 750.42 C 456.08 749.87 456.31 749.35 456.54 748.82 C 453.03 747.83 449.48 746.98 446.01 745.86 C 445.29 744.71 444.83 743.43 444.29 742.20 C 444.16 742.72 443.91 743.76 443.78 744.28 C 441.98 743.90 440.17 743.57 438.36 743.29 C 437.75 742.81 437.13 742.33 436.53 741.87 C 434.32 741.82 432.05 741.87 430.01 740.92 C 425.20 738.89 420.04 737.91 415.24 735.85 C 409.73 734.38 403.51 733.41 399.65 728.73 C 420.06 697.19 441.01 666.00 461.60 634.58 C 463.99 630.51 468.06 627.02 468.23 622.00 C 470.23 598.66 472.49 575.34 474.41 552.00 Z" />
</g>
<g id="#622547ff">
<path fill="#622547" opacity="1.00" d=" M 340.33 633.39 C 353.05 615.06 365.71 596.68 378.54 578.42 C 378.61 581.10 378.32 583.79 377.59 586.39 C 373.83 601.19 371.13 616.27 366.90 630.94 C 366.28 632.62 365.62 634.29 364.82 635.90 C 357.66 648.93 349.52 661.41 342.54 674.54 C 334.94 687.06 327.22 699.52 320.34 712.46 C 315.30 719.06 310.76 726.03 305.46 732.43 C 303.07 736.02 300.77 739.68 297.84 742.87 C 292.56 748.94 288.86 756.25 283.33 762.09 C 283.16 761.52 282.81 760.38 282.64 759.80 C 285.79 754.17 289.70 748.87 291.80 742.72 C 296.88 719.78 301.73 696.77 306.45 673.75 C 316.36 662.49 325.86 650.87 335.68 639.54 C 337.37 637.59 338.87 635.50 340.33 633.39 Z" />
</g>
<g id="#fffff5ff">
<path fill="#fffff5" opacity="1.00" d=" M 268.61 641.51 C 276.23 634.15 283.84 626.77 291.22 619.16 C 299.67 627.25 307.81 635.66 316.24 643.78 C 317.22 644.85 319.25 645.76 320.36 644.38 C 323.82 640.55 326.29 635.96 329.40 631.87 C 329.85 632.52 330.73 633.84 331.17 634.50 C 332.31 633.56 333.44 632.62 334.57 631.69 C 335.32 631.95 336.07 632.21 336.83 632.49 C 337.20 631.65 337.59 630.82 337.97 629.99 C 337.02 629.16 336.08 628.33 335.14 627.51 C 335.74 626.94 336.35 626.38 336.97 625.83 C 338.25 626.93 339.53 628.05 340.82 629.16 C 339.95 630.38 339.08 631.61 338.22 632.84 C 338.75 632.98 339.80 633.26 340.33 633.39 C 338.87 635.50 337.37 637.59 335.68 639.54 C 325.86 650.87 316.36 662.49 306.45 673.75 C 292.87 673.20 279.27 673.11 265.69 672.46 L 264.98 672.38 C 263.96 672.26 262.94 672.14 261.92 672.03 C 264.26 672.06 266.59 671.95 268.93 671.85 C 264.45 666.12 259.91 660.39 254.73 655.27 C 259.43 650.76 264.33 646.43 268.61 641.51 Z" />
</g>
<g id="#592147ff">
<path fill="#592147" opacity="1.00" d=" M 364.82 635.90 C 365.62 634.29 366.28 632.62 366.90 630.94 C 368.69 639.93 372.49 648.32 374.88 657.14 C 382.53 679.65 389.38 702.41 397.13 724.89 C 398.18 727.87 398.29 731.08 398.24 734.22 C 395.32 759.50 392.29 784.77 389.38 810.05 C 389.03 813.27 388.40 816.46 387.76 819.64 C 376.23 799.96 364.69 780.29 353.48 760.42 C 347.81 751.42 341.87 742.56 336.84 733.18 C 333.82 727.37 329.21 722.55 326.56 716.54 C 325.71 714.58 324.36 712.92 322.88 711.41 C 322.03 711.76 321.19 712.11 320.34 712.46 C 327.22 699.52 334.94 687.06 342.54 674.54 C 349.52 661.41 357.66 648.93 364.82 635.90 Z" />
</g>
<g id="#edebf3ff">
<path fill="#edebf3" opacity="1.00" d=" M 231.52 675.15 C 238.82 668.05 247.12 662.04 254.73 655.27 C 259.91 660.39 264.45 666.12 268.93 671.85 C 266.59 671.95 264.26 672.06 261.92 672.03 C 254.95 671.24 248.06 669.80 241.07 669.26 C 237.68 670.85 234.78 673.32 231.52 675.15 Z" />
</g>
<g id="#572246ff">
<path fill="#572246" opacity="1.00" d=" M 231.52 675.15 C 234.78 673.32 237.68 670.85 241.07 669.26 C 248.06 669.80 254.95 671.24 261.92 672.03 C 262.94 672.14 263.96 672.26 264.98 672.38 C 263.68 684.70 260.61 696.75 258.80 708.99 C 255.80 723.58 253.35 738.27 250.71 752.92 C 250.52 754.44 249.33 755.49 248.43 756.63 C 243.86 748.22 239.08 739.92 234.22 731.68 C 231.53 727.23 229.19 722.56 226.02 718.43 C 223.78 721.93 222.27 725.82 220.62 729.63 C 216.50 738.34 212.73 747.22 209.13 756.16 C 203.05 770.72 198.00 785.70 192.36 800.45 C 185.32 790.81 178.48 781.03 171.39 771.43 C 165.40 766.12 158.77 761.58 152.75 756.29 C 156.93 754.12 161.04 751.81 165.15 749.51 C 166.54 748.74 167.95 747.99 169.35 747.25 C 169.48 746.69 169.75 745.57 169.88 745.02 C 166.79 744.65 163.68 744.35 160.57 744.66 C 168.36 739.12 175.67 732.95 183.33 727.24 C 186.91 724.51 189.99 721.19 192.80 717.69 C 200.74 708.03 209.05 698.69 216.84 688.91 C 220.84 683.46 226.02 679.04 231.52 675.15 Z" />
</g>
<g id="#451c44ff">
<path fill="#451c44" opacity="1.00" d=" M 264.98 672.38 L 265.69 672.46 C 270.73 688.38 277.17 703.81 282.39 719.67 C 283.76 723.85 285.39 727.94 286.93 732.07 C 288.33 735.71 289.26 739.64 291.80 742.72 C 289.70 748.87 285.79 754.17 282.64 759.80 C 279.91 763.79 277.81 768.16 275.37 772.32 L 275.05 772.87 C 267.76 767.18 259.08 763.70 251.12 759.10 C 250.59 759.29 249.54 759.67 249.02 759.86 C 248.85 758.76 248.67 757.69 248.43 756.63 C 249.33 755.49 250.52 754.44 250.71 752.92 C 253.35 738.27 255.80 723.58 258.80 708.99 C 260.61 696.75 263.68 684.70 264.98 672.38 Z" />
</g>
<g id="#3a1642ff">
<path fill="#3a1642" opacity="1.00" d=" M 265.69 672.46 C 279.27 673.11 292.87 673.20 306.45 673.75 C 301.73 696.77 296.88 719.78 291.80 742.72 C 289.26 739.64 288.33 735.71 286.93 732.07 C 285.39 727.94 283.76 723.85 282.39 719.67 C 277.17 703.81 270.73 688.38 265.69 672.46 Z" />
</g>
<g id="#542146ff">
<path fill="#542146" opacity="1.00" d=" M 322.88 711.41 C 324.36 712.92 325.71 714.58 326.56 716.54 C 329.21 722.55 333.82 727.37 336.84 733.18 C 341.87 742.56 347.81 751.42 353.48 760.42 C 347.68 785.15 342.40 810.00 336.94 834.81 C 326.03 822.00 315.89 808.53 305.09 795.63 C 295.38 787.63 285.44 779.87 275.37 772.32 C 277.81 768.16 279.91 763.79 282.64 759.80 C 282.81 760.38 283.16 761.52 283.33 762.09 C 288.86 756.25 292.56 748.94 297.84 742.87 C 300.77 739.68 303.07 736.02 305.46 732.43 C 310.76 726.03 315.30 719.06 320.34 712.46 C 321.19 712.11 322.03 711.76 322.88 711.41 Z" />
</g>
<g id="#3f1a43ff">
<path fill="#3f1a43" opacity="1.00" d=" M 220.62 729.63 C 222.27 725.82 223.78 721.93 226.02 718.43 C 229.19 722.56 231.53 727.23 234.22 731.68 C 239.08 739.92 243.86 748.22 248.43 756.63 C 248.67 757.69 248.85 758.76 249.02 759.86 C 246.84 767.79 243.89 775.49 241.35 783.32 C 238.65 791.77 234.97 799.93 233.27 808.68 L 232.62 809.38 C 224.30 791.88 217.10 773.83 209.13 756.16 C 212.73 747.22 216.50 738.34 220.62 729.63 Z" />
</g>
<g id="#251340ff">
<path fill="#251340" opacity="1.00" d=" M 398.24 734.22 C 398.59 732.36 399.07 730.52 399.65 728.73 C 403.51 733.41 409.73 734.38 415.24 735.85 C 420.04 737.91 425.20 738.89 430.01 740.92 C 432.05 741.87 434.32 741.82 436.53 741.87 C 437.13 742.33 437.75 742.81 438.36 743.29 C 440.17 743.57 441.98 743.90 443.78 744.28 C 443.91 743.76 444.16 742.72 444.29 742.20 C 444.83 743.43 445.29 744.71 446.01 745.86 C 449.48 746.98 453.03 747.83 456.54 748.82 C 456.31 749.35 456.08 749.87 455.86 750.42 C 433.45 773.78 410.82 796.95 388.41 820.31 L 388.12 820.34 L 387.76 819.64 C 388.40 816.46 389.03 813.27 389.38 810.05 C 392.29 784.77 395.32 759.50 398.24 734.22 Z" />
</g>
<g id="#67c16aff">
<path fill="#67c16a" opacity="1.00" d=" M 38.63 734.34 C 40.01 733.43 41.36 732.49 42.76 731.63 C 41.42 748.59 40.76 765.60 39.79 782.58 C 36.64 784.50 33.43 786.32 30.14 788.01 C 28.56 788.83 27.10 789.86 25.66 790.92 C 22.26 793.56 18.57 795.78 14.84 797.91 C 13.27 790.88 12.09 783.77 10.51 776.74 L 10.90 776.33 C 18.78 765.04 26.46 753.58 34.27 742.23 C 36.05 739.80 37.75 737.25 38.63 734.34 Z" />
<path fill="#67c16a" opacity="1.00" d=" M 80.04 819.80 C 89.11 809.81 97.86 799.53 107.09 789.68 C 109.45 801.92 111.07 814.29 113.76 826.47 L 113.95 827.08 C 102.68 825.13 91.35 823.24 79.95 822.06 C 82.74 824.50 85.59 826.88 88.15 829.57 C 85.56 830.59 82.76 830.81 80.00 830.95 C 72.93 831.32 65.92 832.38 58.86 832.69 C 64.30 828.94 70.25 826.07 76.05 822.95 C 77.59 822.36 77.82 820.64 78.22 819.28 C 78.68 819.41 79.58 819.67 80.04 819.80 Z" />
</g>
<g id="#41a462ff">
<path fill="#41a462" opacity="1.00" d=" M 42.76 731.63 C 48.53 731.35 54.29 732.07 60.04 732.30 C 65.77 732.41 70.06 736.63 74.85 739.18 C 81.03 742.50 86.59 746.96 93.16 749.55 C 93.58 751.23 94.01 752.93 94.43 754.63 C 93.46 755.18 92.50 755.76 91.52 756.34 C 90.35 766.00 91.88 775.82 90.17 785.42 C 89.43 785.10 88.68 784.78 87.94 784.48 C 85.88 786.46 83.90 788.53 82.04 790.70 C 82.83 790.86 84.40 791.18 85.19 791.34 C 80.73 792.73 76.17 793.72 71.66 794.92 L 71.05 795.16 C 71.00 791.15 70.93 787.15 70.78 783.15 C 64.54 782.75 58.30 783.06 52.05 782.95 C 47.97 782.89 43.86 781.75 39.79 782.58 C 40.76 765.60 41.42 748.59 42.76 731.63 Z" />
</g>
<g id="#8dd871ff">
<path fill="#8dd871" opacity="1.00" d=" M 12.75 750.75 C 21.55 745.56 29.93 739.70 38.63 734.34 C 37.75 737.25 36.05 739.80 34.27 742.23 C 26.46 753.58 18.78 765.04 10.90 776.33 C 7.89 769.54 5.10 762.65 2.81 755.59 C 4.83 754.25 6.84 752.90 8.85 751.55 C 10.18 751.49 11.59 751.50 12.75 750.75 Z" />
</g>
<g id="#96db70ff">
<path fill="#96db70" opacity="1.00" d=" M 136.15 750.10 C 140.41 746.91 143.60 742.46 148.20 739.70 L 148.53 740.50 C 149.76 745.81 150.99 751.13 152.75 756.29 C 158.77 761.58 165.40 766.12 171.39 771.43 C 165.15 782.98 159.97 795.09 153.42 806.47 C 149.72 812.43 145.60 818.11 141.52 823.81 C 141.07 822.83 140.60 821.86 140.12 820.91 C 137.67 817.09 133.83 814.42 130.61 811.29 C 130.36 811.40 129.87 811.62 129.63 811.73 C 128.18 812.41 126.74 813.06 125.30 813.78 C 126.59 809.12 130.79 806.13 133.14 802.05 C 132.90 801.53 132.41 800.48 132.17 799.95 C 128.57 792.89 126.33 785.07 121.75 778.57 L 121.26 777.90 C 124.87 771.17 129.00 764.73 132.70 758.05 C 132.50 756.99 132.32 755.93 132.16 754.88 C 132.08 753.69 132.03 752.50 132.00 751.33 C 133.39 750.99 134.97 751.01 136.15 750.10 Z" />
<path fill="#96db70" opacity="1.00" d=" M 233.27 808.68 C 247.16 796.98 260.78 784.97 274.75 773.37 C 273.87 780.42 270.68 786.85 268.62 793.58 C 266.24 801.12 263.40 808.50 261.09 816.07 C 260.47 818.09 259.32 819.88 258.15 821.63 C 250.03 817.06 241.22 813.93 232.97 809.60 L 232.62 809.38 L 233.27 808.68 Z" />
</g>
<g id="#40a061ff">
<path fill="#40a061" opacity="1.00" d=" M 148.53 740.50 C 152.11 742.07 155.19 745.66 159.34 745.26 C 161.30 746.64 163.23 748.06 165.15 749.51 C 161.04 751.81 156.93 754.12 152.75 756.29 C 150.99 751.13 149.76 745.81 148.53 740.50 Z" />
</g>
<g id="#251241ff">
<path fill="#251241" opacity="1.00" d=" M 159.34 745.26 L 160.57 744.66 C 163.68 744.35 166.79 744.65 169.88 745.02 C 169.75 745.57 169.48 746.69 169.35 747.25 C 167.95 747.99 166.54 748.74 165.15 749.51 C 163.23 748.06 161.30 746.64 159.34 745.26 Z" />
</g>
<g id="#5dbf6aff">
<path fill="#5dbf6a" opacity="1.00" d=" M 0.00 749.78 C 2.93 750.48 5.89 751.02 8.85 751.55 C 6.84 752.90 4.83 754.25 2.81 755.59 C 1.86 754.95 0.93 754.30 0.00 753.65 L 0.00 749.78 Z" />
</g>
<g id="#378f5bff">
<path fill="#378f5b" opacity="1.00" d=" M 93.16 749.55 C 97.01 751.14 100.64 753.45 104.83 754.10 C 106.39 761.56 108.29 768.95 109.70 776.44 C 110.79 776.72 111.88 777.03 112.97 777.36 C 104.93 780.92 97.17 785.20 89.82 790.06 C 88.28 790.49 86.74 790.92 85.19 791.34 C 84.40 791.18 82.83 790.86 82.04 790.70 C 83.90 788.53 85.88 786.46 87.94 784.48 C 88.68 784.78 89.43 785.10 90.17 785.42 C 91.88 775.82 90.35 766.00 91.52 756.34 C 92.50 755.76 93.46 755.18 94.43 754.63 C 94.01 752.93 93.58 751.23 93.16 749.55 Z" />
</g>
<g id="#6ec56bff">
<path fill="#6ec56b" opacity="1.00" d=" M 110.30 753.70 C 117.47 752.35 124.76 752.09 132.00 751.33 C 132.03 752.50 132.08 753.69 132.16 754.88 C 125.34 758.23 116.94 756.86 110.30 753.70 Z" />
</g>
<g id="#41a362ff">
<path fill="#41a362" opacity="1.00" d=" M 455.86 750.42 C 456.03 753.66 455.33 756.83 454.61 759.97 C 452.02 773.05 449.44 786.14 446.87 799.22 C 444.58 800.61 442.19 801.83 439.64 802.66 C 422.46 808.26 405.63 814.84 388.41 820.31 C 410.82 796.95 433.45 773.78 455.86 750.42 Z" />
</g>
<g id="#70c76cff">
<path fill="#70c76c" opacity="1.00" d=" M 0.00 753.65 C 0.93 754.30 1.86 754.95 2.81 755.59 C 5.10 762.65 7.89 769.54 10.90 776.33 L 10.51 776.74 C 7.06 779.84 3.52 782.85 0.00 785.88 L 0.00 753.65 Z" />
</g>
<g id="#3f9f61ff">
<path fill="#3f9f61" opacity="1.00" d=" M 104.83 754.10 C 106.66 753.98 108.48 753.82 110.30 753.70 C 116.94 756.86 125.34 758.23 132.16 754.88 C 132.32 755.93 132.50 756.99 132.70 758.05 C 129.00 764.73 124.87 771.17 121.26 777.90 C 114.78 780.95 108.11 783.60 101.68 786.77 C 97.99 788.68 93.91 789.55 89.82 790.06 C 97.17 785.20 104.93 780.92 112.97 777.36 C 111.88 777.03 110.79 776.72 109.70 776.44 C 108.29 768.95 106.39 761.56 104.83 754.10 Z" />
</g>
<g id="#63bc68ff">
<path fill="#63bc68" opacity="1.00" d=" M 192.36 800.45 C 198.00 785.70 203.05 770.72 209.13 756.16 C 217.10 773.83 224.30 791.88 232.62 809.38 L 232.97 809.60 C 232.68 809.96 232.09 810.69 231.80 811.05 C 230.91 810.10 230.41 808.53 228.93 808.39 C 224.66 807.34 220.33 806.50 215.99 805.78 C 209.34 804.75 203.06 802.00 196.33 801.40 C 195.20 801.23 194.30 802.04 193.37 802.54 C 192.97 801.97 192.58 801.43 192.18 800.90 L 192.36 800.45 Z" />
</g>
<g id="#5a2247ff">
<path fill="#5a2247" opacity="1.00" d=" M 249.02 759.86 C 249.54 759.67 250.59 759.29 251.12 759.10 C 259.08 763.70 267.76 767.18 275.05 772.87 L 274.75 773.37 C 260.78 784.97 247.16 796.98 233.27 808.68 C 234.97 799.93 238.65 791.77 241.35 783.32 C 243.89 775.49 246.84 767.79 249.02 759.86 Z" />
</g>
<g id="#7dcb6dff">
<path fill="#7dcb6d" opacity="1.00" d=" M 353.48 760.42 C 364.69 780.29 376.23 799.96 387.76 819.64 L 388.12 820.34 C 387.85 821.26 387.59 822.18 387.34 823.11 C 387.14 822.64 386.76 821.69 386.57 821.22 C 378.47 822.58 370.95 826.05 362.98 827.91 C 354.65 830.53 346.02 832.15 337.86 835.31 L 336.94 834.81 C 342.40 810.00 347.68 785.15 353.48 760.42 Z" />
</g>
<g id="#7dce6fff">
<path fill="#7dce6f" opacity="1.00" d=" M 171.39 771.43 C 178.48 781.03 185.32 790.81 192.36 800.45 L 192.18 800.90 C 187.14 811.90 182.11 822.92 176.59 833.70 C 174.56 833.93 172.52 834.18 170.49 834.47 C 166.54 831.09 165.33 825.73 162.46 821.56 C 159.17 816.69 158.09 810.33 153.42 806.47 C 159.97 795.09 165.15 782.98 171.39 771.43 Z" />
</g>
<g id="#8bd66fff">
<path fill="#8bd66f" opacity="1.00" d=" M 275.05 772.87 L 275.37 772.32 C 285.44 779.87 295.38 787.63 305.09 795.63 C 303.19 800.99 301.68 806.47 299.91 811.88 C 298.39 816.44 298.02 821.75 294.32 825.24 C 292.36 826.09 290.38 826.90 288.39 827.70 C 286.55 831.82 286.31 836.62 289.04 840.43 C 288.27 841.60 287.49 842.79 286.71 843.98 C 285.60 841.77 284.13 839.78 282.45 837.98 C 283.66 836.43 284.77 834.80 285.80 833.14 C 285.82 832.87 285.86 832.32 285.88 832.04 C 285.98 830.36 286.07 828.68 286.18 827.02 C 283.60 823.92 281.00 820.86 278.19 817.98 C 275.92 819.43 273.50 820.70 271.47 822.49 C 270.04 824.52 269.66 827.09 268.81 829.40 C 265.20 827.13 262.07 824.23 258.55 821.87 L 258.15 821.63 C 259.32 819.88 260.47 818.09 261.09 816.07 C 263.40 808.50 266.24 801.12 268.62 793.58 C 270.68 786.85 273.87 780.42 274.75 773.37 L 275.05 772.87 Z" />
</g>
<g id="#44a864ff">
<path fill="#44a864" opacity="1.00" d=" M 505.29 772.80 C 517.11 785.13 528.43 797.94 540.00 810.51 L 540.00 839.01 C 530.55 842.04 521.00 844.84 511.80 848.57 C 510.21 846.68 508.61 844.80 507.02 842.92 C 502.79 844.38 498.56 845.85 494.23 846.98 C 498.07 823.80 501.49 800.55 504.89 777.30 C 503.16 777.79 501.43 778.27 499.72 778.85 C 501.61 776.86 503.42 774.80 505.29 772.80 Z" />
<path fill="#44a864" opacity="1.00" d=" M 218.00 861.00 C 225.38 861.04 232.62 859.11 240.01 859.32 C 247.42 859.51 254.84 859.75 262.25 860.17 C 262.02 865.69 260.96 871.20 261.71 876.73 C 261.45 876.56 260.94 876.22 260.69 876.06 C 260.77 875.22 260.95 873.56 261.03 872.72 C 261.30 870.19 261.39 867.65 261.41 865.12 C 248.14 864.91 234.85 865.56 221.61 864.57 C 213.98 864.04 205.89 864.89 198.80 861.48 C 205.19 860.98 211.60 860.96 218.00 861.00 Z" />
</g>
<g id="#7bcf6fff">
<path fill="#7bcf6f" opacity="1.00" d=" M 0.00 785.88 C 3.52 782.85 7.06 779.84 10.51 776.74 C 12.09 783.77 13.27 790.88 14.84 797.91 C 10.14 802.07 5.05 805.76 0.00 809.48 L 0.00 785.88 Z" />
</g>
<g id="#61bc68ff">
<path fill="#61bc68" opacity="1.00" d=" M 499.72 778.85 C 501.43 778.27 503.16 777.79 504.89 777.30 C 501.49 800.55 498.07 823.80 494.23 846.98 L 494.16 847.34 C 493.26 849.92 492.29 852.48 491.54 855.12 C 491.98 859.50 493.73 863.61 495.35 867.68 C 495.84 869.22 497.33 870.01 498.60 870.86 C 500.08 871.51 501.59 872.14 503.10 872.75 C 503.47 878.05 502.45 883.49 503.88 888.67 C 503.46 888.41 502.61 887.89 502.19 887.63 C 490.69 888.01 479.20 887.18 467.70 887.13 C 467.25 880.75 466.55 874.36 466.61 867.97 C 467.57 864.73 468.46 860.99 471.24 858.80 C 472.64 858.47 474.04 858.18 475.45 857.88 C 480.04 856.82 481.07 852.00 481.47 847.98 C 481.56 847.48 481.73 846.48 481.82 845.98 C 479.59 843.64 477.79 840.69 474.91 839.11 C 472.24 839.60 469.76 840.77 467.25 841.75 C 464.84 838.85 462.47 835.92 460.11 832.98 C 459.66 833.15 458.76 833.50 458.32 833.67 C 454.90 834.92 451.61 836.46 448.43 838.22 C 448.47 840.08 448.50 841.95 448.51 843.82 C 445.19 843.64 441.86 843.38 438.57 842.91 L 438.66 842.39 C 458.17 821.90 477.87 801.58 497.37 781.06 C 498.15 780.32 498.93 779.57 499.72 778.85 Z" />
</g>
<g id="#74c86cff">
<path fill="#74c86c" opacity="1.00" d=" M 101.68 786.77 C 108.11 783.60 114.78 780.95 121.26 777.90 L 121.75 778.57 C 117.52 782.74 112.28 785.63 107.57 789.20 C 107.45 789.32 107.21 789.56 107.09 789.68 C 97.86 799.53 89.11 809.81 80.04 819.80 C 79.58 819.67 78.68 819.41 78.22 819.28 C 75.87 811.21 73.15 803.21 71.66 794.92 C 76.17 793.72 80.73 792.73 85.19 791.34 C 86.74 790.92 88.28 790.49 89.82 790.06 C 93.91 789.55 97.99 788.68 101.68 786.77 Z" />
</g>
<g id="#49aa64ff">
<path fill="#49aa64" opacity="1.00" d=" M 121.75 778.57 C 126.33 785.07 128.57 792.89 132.17 799.95 C 132.07 800.42 131.86 801.36 131.76 801.83 C 123.70 797.62 115.31 793.98 107.57 789.20 C 112.28 785.63 117.52 782.74 121.75 778.57 Z" />
</g>
<g id="#361741ff">
<path fill="#361741" opacity="1.00" d=" M 457.05 796.12 C 470.42 790.92 483.72 785.47 497.37 781.06 C 477.87 801.58 458.17 821.90 438.66 842.39 C 440.68 828.48 444.02 814.79 446.52 800.96 C 449.86 798.99 453.39 797.37 457.05 796.12 Z" />
</g>
<g id="#4bad65ff">
<path fill="#4bad65" opacity="1.00" d=" M 39.79 782.58 C 43.86 781.75 47.97 782.89 52.05 782.95 C 58.30 783.06 64.54 782.75 70.78 783.15 C 70.93 787.15 71.00 791.15 71.05 795.16 C 67.58 797.98 63.60 800.19 60.34 803.26 C 59.91 805.21 59.85 807.23 59.60 809.23 L 59.20 809.47 C 59.18 807.22 59.17 804.98 59.08 802.75 C 57.98 800.60 56.43 798.74 54.89 796.91 C 53.21 797.51 51.54 798.12 49.86 798.73 C 47.78 796.88 45.60 795.13 43.07 793.95 C 39.19 792.06 35.93 789.10 31.91 787.47 C 31.47 787.61 30.58 787.87 30.14 788.01 C 33.43 786.32 36.64 784.50 39.79 782.58 Z" />
</g>
<g id="#019e5dff">
<path fill="#019e5d" opacity="1.00" d=" M 30.14 788.01 C 30.58 787.87 31.47 787.61 31.91 787.47 C 31.71 789.78 31.53 792.11 31.54 794.44 C 29.70 796.15 27.85 797.85 25.97 799.54 C 25.77 796.66 25.72 793.79 25.66 790.92 C 27.10 789.86 28.56 788.83 30.14 788.01 Z" />
</g>
<g id="#017255ff">
<path fill="#017255" opacity="1.00" d=" M 31.91 787.47 C 35.93 789.10 39.19 792.06 43.07 793.95 C 45.60 795.13 47.78 796.88 49.86 798.73 C 51.54 798.12 53.21 797.51 54.89 796.91 C 56.43 798.74 57.98 800.60 59.08 802.75 C 56.42 802.98 53.75 803.15 51.07 803.25 C 49.53 801.64 48.41 799.05 45.94 798.81 C 41.03 797.67 38.39 802.76 35.10 805.37 C 33.75 804.90 32.40 804.45 31.07 803.96 C 30.98 803.45 30.81 802.45 30.72 801.94 C 31.39 799.49 31.63 796.96 31.54 794.44 C 31.53 792.11 31.71 789.78 31.91 787.47 Z" />
</g>
<g id="#58b566ff">
<path fill="#58b566" opacity="1.00" d=" M 107.09 789.68 C 107.21 789.56 107.45 789.32 107.57 789.20 C 115.31 793.98 123.70 797.62 131.76 801.83 C 131.86 801.36 132.07 800.42 132.17 799.95 C 132.41 800.48 132.90 801.53 133.14 802.05 C 130.79 806.13 126.59 809.12 125.30 813.78 C 124.08 814.39 122.88 815.03 121.67 815.68 C 121.18 817.48 120.67 819.28 120.22 821.10 C 120.18 820.58 120.11 819.53 120.07 819.01 C 117.94 821.46 115.87 823.98 113.76 826.47 C 111.07 814.29 109.45 801.92 107.09 789.68 Z" />
</g>
<g id="#48ab64ff">
<path fill="#48ab64" opacity="1.00" d=" M 14.84 797.91 C 18.57 795.78 22.26 793.56 25.66 790.92 C 25.72 793.79 25.77 796.66 25.97 799.54 C 26.81 801.30 27.92 802.91 29.24 804.36 C 31.47 806.05 33.67 807.77 35.73 809.68 C 35.29 818.00 34.65 826.31 34.19 834.63 C 34.42 830.30 34.51 825.96 34.21 821.64 C 29.39 824.26 24.94 827.49 20.47 830.66 C 14.67 835.30 6.72 833.89 0.00 836.11 L 0.00 829.25 C 5.23 830.69 10.54 832.01 16.00 832.07 C 16.61 820.66 15.33 809.29 14.84 797.91 Z" />
</g>
<g id="#013c43ff">
<path fill="#013c43" opacity="1.00" d=" M 25.97 799.54 C 27.85 797.85 29.70 796.15 31.54 794.44 C 31.63 796.96 31.39 799.49 30.72 801.94 C 30.24 802.75 29.74 803.55 29.24 804.36 C 27.92 802.91 26.81 801.30 25.97 799.54 Z" />
</g>
<g id="#5bb867ff">
<path fill="#5bb867" opacity="1.00" d=" M 71.05 795.16 L 71.66 794.92 C 73.15 803.21 75.87 811.21 78.22 819.28 C 77.82 820.64 77.59 822.36 76.05 822.95 C 70.25 826.07 64.30 828.94 58.86 832.69 C 65.92 832.38 72.93 831.32 80.00 830.95 C 82.76 830.81 85.56 830.59 88.15 829.57 C 85.59 826.88 82.74 824.50 79.95 822.06 C 91.35 823.24 102.68 825.13 113.95 827.08 C 115.57 828.04 117.20 829.00 118.83 829.97 C 119.08 828.27 119.33 826.59 119.59 824.92 C 119.62 827.99 120.08 831.04 120.58 834.08 C 120.78 835.30 121.00 836.53 121.24 837.76 C 121.96 838.03 122.68 838.31 123.41 838.60 C 123.92 838.84 124.95 839.31 125.47 839.55 C 121.32 840.46 117.11 840.02 112.95 839.52 C 96.72 838.86 80.46 838.81 64.24 839.75 C 58.83 839.52 53.48 838.09 48.05 838.66 C 47.93 837.54 47.69 835.30 47.57 834.18 C 50.21 834.15 52.85 834.14 55.48 834.28 C 56.77 835.69 57.98 837.64 60.13 837.72 C 68.10 838.28 76.10 837.37 84.05 836.80 C 88.81 836.53 93.58 836.93 98.34 836.60 C 95.60 835.03 92.82 833.51 90.33 831.58 C 82.21 832.30 74.10 833.18 66.02 834.21 C 63.44 834.56 60.82 834.70 58.23 834.42 C 54.70 833.84 51.13 833.70 47.57 833.78 C 47.35 828.84 46.60 823.91 46.78 818.96 C 47.47 816.59 48.91 814.54 50.14 812.43 C 51.50 812.22 52.86 812.00 54.22 811.75 C 55.93 811.09 57.57 810.29 59.20 809.47 L 59.60 809.23 C 59.85 807.23 59.91 805.21 60.34 803.26 C 63.60 800.19 67.58 797.98 71.05 795.16 Z" />
</g>
<g id="#81cf6dff">
<path fill="#81cf6d" opacity="1.00" d=" M 305.09 795.63 C 315.89 808.53 326.03 822.00 336.94 834.81 L 337.86 835.31 L 337.37 835.53 C 331.37 845.87 329.14 858.00 323.09 868.33 C 319.61 866.71 316.31 864.76 313.10 862.68 C 313.05 860.75 312.97 858.84 312.89 856.93 C 313.63 856.60 315.11 855.95 315.85 855.62 C 317.53 854.94 319.22 854.30 320.91 853.65 C 321.54 849.13 321.89 844.58 322.59 840.07 C 319.67 836.62 316.59 833.30 313.27 830.24 L 312.47 830.51 C 308.95 831.77 305.54 833.29 302.05 834.65 C 302.01 833.45 301.93 832.27 301.81 831.11 C 300.11 828.77 298.24 826.55 296.23 824.48 C 295.76 824.67 294.80 825.05 294.32 825.24 C 298.02 821.75 298.39 816.44 299.91 811.88 C 301.68 806.47 303.19 800.99 305.09 795.63 Z" />
<path fill="#81cf6d" opacity="1.00" d=" M 295.82 841.93 C 297.47 841.27 299.09 840.55 300.72 839.87 C 299.39 845.20 302.19 850.23 303.18 855.37 C 297.91 853.36 293.50 849.70 288.64 846.93 C 289.50 845.40 290.38 843.90 291.24 842.39 C 291.67 842.56 292.53 842.90 292.96 843.06 C 293.67 842.78 295.11 842.21 295.82 841.93 Z" />
</g>
<g id="#61bf69ff">
<path fill="#61bf69" opacity="1.00" d=" M 0.00 809.48 C 5.05 805.76 10.14 802.07 14.84 797.91 C 15.33 809.29 16.61 820.66 16.00 832.07 C 10.54 832.01 5.23 830.69 0.00 829.25 L 0.00 809.48 Z" />
</g>
<g id="#014348ff">
<path fill="#014348" opacity="1.00" d=" M 35.10 805.37 C 38.39 802.76 41.03 797.67 45.94 798.81 C 48.41 799.05 49.53 801.64 51.07 803.25 C 53.75 803.15 56.42 802.98 59.08 802.75 C 59.17 804.98 59.18 807.22 59.20 809.47 C 57.57 810.29 55.93 811.09 54.22 811.75 C 52.48 811.34 50.75 810.93 49.01 810.53 C 48.31 809.17 47.61 807.83 46.90 806.50 C 46.57 805.87 45.91 804.62 45.58 803.99 C 42.48 804.00 39.41 804.45 36.45 805.36 C 36.32 806.88 36.19 808.41 36.07 809.95 L 35.73 809.68 C 33.67 807.77 31.47 806.05 29.24 804.36 C 29.74 803.55 30.24 802.75 30.72 801.94 C 30.81 802.45 30.98 803.45 31.07 803.96 C 32.40 804.45 33.75 804.90 35.10 805.37 Z" />
</g>
<g id="#57b366ff">
<path fill="#57b366" opacity="1.00" d=" M 439.64 802.66 C 442.19 801.83 444.58 800.61 446.87 799.22 C 446.78 799.66 446.61 800.52 446.52 800.96 C 444.02 814.79 440.68 828.48 438.66 842.39 L 438.57 842.91 C 438.31 842.88 437.80 842.81 437.55 842.78 C 426.49 836.67 414.43 832.61 403.11 827.02 C 398.15 824.91 393.15 822.89 388.41 820.31 C 405.63 814.84 422.46 808.26 439.64 802.66 Z" />
</g>
<g id="#75c86cff">
<path fill="#75c86c" opacity="1.00" d=" M 192.18 800.90 C 192.58 801.43 192.97 801.97 193.37 802.54 C 198.21 809.55 202.15 817.13 206.68 824.34 C 209.63 829.02 211.85 834.20 215.45 838.45 L 216.08 839.06 C 203.94 839.47 191.78 841.74 179.64 840.60 C 181.12 839.28 182.54 837.91 183.97 836.54 C 179.79 835.51 175.51 835.11 171.22 834.85 L 170.49 834.47 C 172.52 834.18 174.56 833.93 176.59 833.70 C 182.11 822.92 187.14 811.90 192.18 800.90 Z" />
<path fill="#75c86c" opacity="1.00" d=" M 274.48 841.39 C 276.39 841.06 278.32 840.77 280.22 840.36 C 281.21 841.47 282.20 842.58 283.27 843.65 C 282.83 850.32 282.50 856.99 282.14 863.67 C 279.40 864.46 277.15 866.20 274.87 867.83 C 272.09 867.69 269.94 865.64 267.58 864.40 C 270.63 863.31 273.54 861.89 276.39 860.35 C 272.74 859.30 266.98 861.27 265.09 857.07 C 265.07 856.66 265.04 855.84 265.02 855.43 C 266.49 854.82 267.96 854.20 269.43 853.58 C 270.62 853.08 271.80 852.55 272.99 852.05 C 273.46 848.49 273.92 844.93 274.48 841.39 Z" />
</g>
<g id="#5db868ff">
<path fill="#5db868" opacity="1.00" d=" M 193.37 802.54 C 194.30 802.04 195.20 801.23 196.33 801.40 C 203.06 802.00 209.34 804.75 215.99 805.78 C 220.33 806.50 224.66 807.34 228.93 808.39 C 230.41 808.53 230.91 810.10 231.80 811.05 C 226.04 819.99 220.78 829.25 215.45 838.45 C 211.85 834.20 209.63 829.02 206.68 824.34 C 202.15 817.13 198.21 809.55 193.37 802.54 Z" />
</g>
<g id="#011f3fff">
<path fill="#011f3f" opacity="1.00" d=" M 36.45 805.36 C 39.41 804.45 42.48 804.00 45.58 803.99 C 45.91 804.62 46.57 805.87 46.90 806.50 C 45.78 807.05 44.65 807.62 43.53 808.20 C 42.68 808.65 41.83 809.12 41.02 809.65 C 40.42 810.42 39.84 811.22 39.30 812.05 C 38.22 811.35 37.12 810.68 36.07 809.95 C 36.19 808.41 36.32 806.88 36.45 805.36 Z" />
</g>
<g id="#459365ff">
<path fill="#459365" opacity="1.00" d=" M 43.53 808.20 C 44.65 807.62 45.78 807.05 46.90 806.50 C 47.61 807.83 48.31 809.17 49.01 810.53 C 48.24 811.39 47.47 812.29 46.70 813.18 C 45.66 811.51 44.60 809.85 43.53 808.20 Z" />
</g>
<g id="#6bc36cff">
<path fill="#6bc36c" opacity="1.00" d=" M 153.42 806.47 C 158.09 810.33 159.17 816.69 162.46 821.56 C 165.33 825.73 166.54 831.09 170.49 834.47 L 171.22 834.85 C 163.12 834.09 154.98 834.92 146.95 836.06 C 144.12 836.34 141.78 838.12 139.06 838.81 C 137.03 839.23 135.02 838.55 133.08 838.04 C 134.39 837.32 135.70 836.61 137.02 835.90 C 137.76 832.59 138.61 829.30 139.25 825.98 C 139.60 824.29 139.90 822.59 140.12 820.91 C 140.60 821.86 141.07 822.83 141.52 823.81 C 145.60 818.11 149.72 812.43 153.42 806.47 Z" />
</g>
<g id="#1c0b3dff">
<path fill="#1c0b3d" opacity="1.00" d=" M 41.02 809.65 C 41.83 809.12 42.68 808.65 43.53 808.20 C 44.60 809.85 45.66 811.51 46.70 813.18 C 47.47 812.29 48.24 811.39 49.01 810.53 C 50.75 810.93 52.48 811.34 54.22 811.75 C 52.86 812.00 51.50 812.22 50.14 812.43 C 48.91 814.54 47.47 816.59 46.78 818.96 C 46.60 823.91 47.35 828.84 47.57 833.78 C 51.13 833.70 54.70 833.84 58.23 834.42 C 57.54 834.38 56.17 834.31 55.48 834.28 C 52.85 834.14 50.21 834.15 47.57 834.18 C 47.69 835.30 47.93 837.54 48.05 838.66 C 46.24 838.82 44.44 839.00 42.63 839.18 C 42.77 835.40 42.86 831.63 43.05 827.87 C 43.28 823.53 43.46 819.18 43.80 814.85 C 43.29 812.91 42.11 811.28 41.02 809.65 Z" />
<path fill="#1c0b3d" opacity="1.00" d=" M 501.03 870.39 C 503.84 869.80 506.71 869.64 509.58 869.62 C 508.31 870.06 507.04 870.52 505.78 871.00 C 505.87 875.41 505.80 879.84 506.45 884.23 C 505.65 885.68 506.62 890.43 503.88 888.67 C 502.45 883.49 503.47 878.05 503.10 872.75 C 501.59 872.14 500.08 871.51 498.60 870.86 C 499.21 870.74 500.42 870.51 501.03 870.39 Z" />
</g>
<g id="#18093cff">
<path fill="#18093c" opacity="1.00" d=" M 35.73 809.68 L 36.07 809.95 C 37.12 810.68 38.22 811.35 39.30 812.05 C 38.90 813.79 38.71 815.57 38.76 817.38 C 38.84 819.17 39.00 820.98 39.13 822.79 C 39.29 826.66 39.45 830.54 39.73 834.42 C 37.89 834.46 36.04 834.53 34.19 834.63 C 34.65 826.31 35.29 818.00 35.73 809.68 Z" />
</g>
<g id="#4ca864ff">
<path fill="#4ca864" opacity="1.00" d=" M 39.30 812.05 C 39.84 811.22 40.42 810.42 41.02 809.65 C 42.11 811.28 43.29 812.91 43.80 814.85 C 42.12 815.70 40.44 816.54 38.76 817.38 C 38.71 815.57 38.90 813.79 39.30 812.05 Z" />
</g>
<g id="#87d46eff">
<path fill="#87d46e" opacity="1.00" d=" M 231.80 811.05 C 232.09 810.69 232.68 809.96 232.97 809.60 C 241.22 813.93 250.03 817.06 258.15 821.63 L 258.55 821.87 C 253.79 831.54 248.73 841.06 243.65 850.57 C 243.00 850.72 241.70 851.04 241.05 851.20 C 232.84 846.92 224.24 843.45 216.08 839.06 L 215.45 838.45 C 220.78 829.25 226.04 819.99 231.80 811.05 Z" />
</g>
<g id="#017257ff">
<path fill="#017257" opacity="1.00" d=" M 129.63 811.73 C 129.87 811.62 130.36 811.40 130.61 811.29 C 133.83 814.42 137.67 817.09 140.12 820.91 C 139.90 822.59 139.60 824.29 139.25 825.98 C 139.26 825.53 139.27 824.63 139.27 824.18 C 134.40 825.13 129.62 823.64 124.92 822.52 C 126.37 820.41 127.86 818.32 129.24 816.17 C 128.71 814.67 128.97 813.13 129.63 811.73 Z" />
</g>
<g id="#01af60ff">
<path fill="#01af60" opacity="1.00" d=" M 125.30 813.78 C 126.74 813.06 128.18 812.41 129.63 811.73 C 128.97 813.13 128.71 814.67 129.24 816.17 C 127.86 818.32 126.37 820.41 124.92 822.52 C 123.72 824.28 122.53 826.05 121.41 827.87 C 120.70 829.85 120.50 831.97 120.58 834.08 C 120.08 831.04 119.62 827.99 119.59 824.92 C 119.78 823.63 119.99 822.36 120.22 821.10 C 120.67 819.28 121.18 817.48 121.67 815.68 C 122.88 815.03 124.08 814.39 125.30 813.78 Z" />
</g>
<g id="#68c069ff">
<path fill="#68c069" opacity="1.00" d=" M 38.76 817.38 C 40.44 816.54 42.12 815.70 43.80 814.85 C 43.46 819.18 43.28 823.53 43.05 827.87 C 42.67 829.87 42.20 832.00 40.58 833.41 C 39.98 829.88 39.51 826.34 39.13 822.79 C 39.00 820.98 38.84 819.17 38.76 817.38 Z" />
</g>
<g id="#017a56ff">
<path fill="#017a56" opacity="1.00" d=" M 271.47 822.49 C 273.50 820.70 275.92 819.43 278.19 817.98 C 281.00 820.86 283.60 823.92 286.18 827.02 C 286.07 828.68 285.98 830.36 285.88 832.04 C 285.31 830.22 284.61 828.44 283.92 826.68 C 281.20 828.67 279.06 831.31 276.48 833.46 C 274.78 834.27 272.73 833.84 270.89 834.04 C 271.85 835.37 272.89 836.67 273.65 838.15 C 273.68 840.01 271.38 839.57 270.14 839.50 C 266.79 838.93 263.48 838.09 260.10 837.65 C 261.86 835.04 263.24 832.21 264.27 829.24 C 265.78 829.36 267.02 830.29 268.30 831.02 C 268.43 830.61 268.68 829.80 268.81 829.40 C 269.66 827.09 270.04 824.52 271.47 822.49 Z" />
</g>
<g id="#8ad66dff">
<path fill="#8ad66d" opacity="1.00" d=" M 113.76 826.47 C 115.87 823.98 117.94 821.46 120.07 819.01 C 120.11 819.53 120.18 820.58 120.22 821.10 C 119.99 822.36 119.78 823.63 119.59 824.92 C 119.33 826.59 119.08 828.27 118.83 829.97 C 117.20 829.00 115.57 828.04 113.95 827.08 L 113.76 826.47 Z" />
</g>
<g id="#4eae65ff">
<path fill="#4eae65" opacity="1.00" d=" M 388.12 820.34 L 388.41 820.31 C 393.15 822.89 398.15 824.91 403.11 827.02 C 414.43 832.61 426.49 836.67 437.55 842.78 C 437.23 842.93 436.60 843.23 436.29 843.37 C 430.81 846.23 424.87 847.99 419.12 850.19 C 406.60 855.07 394.01 859.76 381.49 864.63 C 378.73 865.34 376.80 867.76 373.96 868.24 L 373.86 867.54 C 378.21 852.69 383.01 837.97 387.34 823.11 C 387.59 822.18 387.85 821.26 388.12 820.34 Z" />
</g>
<g id="#83d16eff">
<path fill="#83d16e" opacity="1.00" d=" M 362.98 827.91 C 370.95 826.05 378.47 822.58 386.57 821.22 C 386.76 821.69 387.14 822.64 387.34 823.11 C 383.01 837.97 378.21 852.69 373.86 867.54 C 361.52 857.08 349.58 846.15 337.37 835.53 L 337.86 835.31 C 346.02 832.15 354.65 830.53 362.98 827.91 Z" />
</g>
<g id="#66c46cff">
<path fill="#66c46c" opacity="1.00" d=" M 20.47 830.66 C 24.94 827.49 29.39 824.26 34.21 821.64 C 34.51 825.96 34.42 830.30 34.19 834.63 C 36.62 835.17 39.10 835.39 41.58 835.44 C 41.77 836.88 41.96 838.34 42.16 839.81 C 49.52 839.47 56.88 840.31 64.24 839.75 C 80.46 838.81 96.72 838.86 112.95 839.52 C 117.11 840.02 121.32 840.46 125.47 839.55 C 126.05 839.83 127.23 840.38 127.82 840.65 C 127.56 844.74 127.45 848.85 127.29 852.95 C 119.66 850.75 111.53 852.21 104.32 855.19 C 105.41 856.91 106.34 858.78 107.82 860.22 C 117.61 864.63 128.61 862.56 138.98 863.25 C 146.43 863.89 153.50 860.43 160.94 861.32 C 169.93 862.20 178.96 862.33 187.99 862.20 C 189.52 862.17 191.01 861.76 192.47 861.32 C 184.18 860.02 175.76 861.53 167.45 860.36 C 161.44 859.51 155.36 859.52 149.30 859.62 C 149.66 858.86 150.03 858.11 150.40 857.38 C 161.58 857.00 172.77 857.33 183.95 857.25 C 185.51 857.30 187.00 856.82 188.44 856.29 C 180.73 855.04 172.89 856.23 165.14 855.41 C 162.09 855.08 159.03 854.72 155.96 854.67 C 147.74 854.79 139.54 850.76 131.42 853.83 C 131.10 848.88 130.88 843.91 130.92 838.95 C 132.61 839.42 134.31 839.92 136.05 840.17 C 147.31 841.41 158.64 841.91 169.96 842.14 C 173.25 842.12 176.45 841.31 179.64 840.60 C 191.78 841.74 203.94 839.47 216.08 839.06 C 224.24 843.45 232.84 846.92 241.05 851.20 C 242.40 851.84 243.78 852.44 245.19 852.97 C 234.18 853.04 223.25 854.23 212.34 855.56 C 205.57 856.51 198.72 855.83 191.93 856.45 C 198.85 858.03 205.89 859.49 213.02 859.27 C 221.36 859.02 229.67 858.10 238.01 857.90 C 245.12 857.76 252.80 859.58 259.24 855.61 C 260.28 856.09 261.32 856.59 262.36 857.09 C 262.33 857.86 262.27 859.40 262.25 860.17 C 254.84 859.75 247.42 859.51 240.01 859.32 C 232.62 859.11 225.38 861.04 218.00 861.00 C 211.60 860.96 205.19 860.98 198.80 861.48 C 205.89 864.89 213.98 864.04 221.61 864.57 C 234.85 865.56 248.14 864.91 261.41 865.12 C 261.39 867.65 261.30 870.19 261.03 872.72 C 257.36 872.42 253.48 872.52 250.18 874.37 C 249.09 875.73 250.14 876.94 251.31 877.77 C 261.15 879.05 271.08 879.82 281.02 879.42 C 296.19 878.58 311.62 882.70 326.53 878.29 C 333.73 877.84 340.82 879.68 348.02 879.33 C 354.38 879.31 360.68 878.00 367.05 878.42 C 387.65 879.74 408.31 878.77 428.94 879.29 C 439.70 879.62 450.46 879.05 461.17 877.99 C 461.08 879.39 461.00 880.80 460.93 882.21 C 459.29 883.87 457.12 884.77 454.94 885.51 C 457.10 890.77 463.76 888.73 468.15 889.89 C 476.06 891.84 484.21 891.23 492.26 891.47 C 499.78 892.22 507.39 893.00 514.93 892.03 C 517.07 891.81 518.85 890.52 520.55 889.31 C 527.06 889.37 533.49 887.43 540.00 888.73 L 540.00 960.00 L 0.00 960.00 L 0.00 836.11 C 6.72 833.89 14.67 835.30 20.47 830.66 Z" />
</g>
<g id="#79ca6dff">
<path fill="#79ca6d" opacity="1.00" d=" M 258.55 821.87 C 262.07 824.23 265.20 827.13 268.81 829.40 C 268.68 829.80 268.43 830.61 268.30 831.02 C 267.02 830.29 265.78 829.36 264.27 829.24 C 260.97 830.51 257.75 831.95 254.54 833.41 C 253.83 836.22 252.87 839.00 252.66 841.91 C 252.83 844.92 253.86 847.80 254.53 850.73 C 254.28 851.05 253.80 851.69 253.55 852.01 C 250.81 852.66 248.00 852.92 245.19 852.97 C 243.78 852.44 242.40 851.84 241.05 851.20 C 241.70 851.04 243.00 850.72 243.65 850.57 C 248.73 841.06 253.79 831.54 258.55 821.87 Z" />
</g>
<g id="#47845aff">
<path fill="#47845a" opacity="1.00" d=" M 39.13 822.79 C 39.51 826.34 39.98 829.88 40.58 833.41 C 42.20 832.00 42.67 829.87 43.05 827.87 C 42.86 831.63 42.77 835.40 42.63 839.18 C 44.44 839.00 46.24 838.82 48.05 838.66 C 53.48 838.09 58.83 839.52 64.24 839.75 C 56.88 840.31 49.52 839.47 42.16 839.81 C 41.96 838.34 41.77 836.88 41.58 835.44 C 39.10 835.39 36.62 835.17 34.19 834.63 C 36.04 834.53 37.89 834.46 39.73 834.42 C 39.45 830.54 39.29 826.66 39.13 822.79 Z" />
</g>
<g id="#01504bff">
<path fill="#01504b" opacity="1.00" d=" M 121.41 827.87 C 122.53 826.05 123.72 824.28 124.92 822.52 C 129.62 823.64 134.40 825.13 139.27 824.18 C 139.27 824.63 139.26 825.53 139.25 825.98 C 138.61 829.30 137.76 832.59 137.02 835.90 C 135.70 836.61 134.39 837.32 133.08 838.04 C 130.71 836.55 127.95 837.61 125.46 838.13 C 124.14 834.69 122.80 831.27 121.41 827.87 Z" />
</g>
<g id="#017757ff">
<path fill="#017757" opacity="1.00" d=" M 294.32 825.24 C 294.80 825.05 295.76 824.67 296.23 824.48 C 298.24 826.55 300.11 828.77 301.81 831.11 C 299.24 831.60 296.62 832.54 293.99 832.02 C 291.89 830.91 290.20 829.20 288.39 827.70 C 290.38 826.90 292.36 826.09 294.32 825.24 Z" />
</g>
<g id="#01514cff">
<path fill="#01514c" opacity="1.00" d=" M 276.48 833.46 C 279.06 831.31 281.20 828.67 283.92 826.68 C 284.61 828.44 285.31 830.22 285.88 832.04 C 285.86 832.32 285.82 832.87 285.80 833.14 C 282.57 833.54 279.07 833.42 276.18 835.13 C 275.20 837.08 274.90 839.26 274.48 841.39 C 273.92 844.93 273.46 848.49 272.99 852.05 C 271.80 852.55 270.62 853.08 269.43 853.58 C 265.18 853.27 261.04 854.55 256.81 854.47 C 256.43 854.30 255.66 853.97 255.28 853.80 C 255.27 852.42 255.27 851.05 255.29 849.69 C 255.82 845.30 257.49 841.20 260.10 837.65 C 263.48 838.09 266.79 838.93 270.14 839.50 C 271.38 839.57 273.68 840.01 273.65 838.15 C 272.89 836.67 271.85 835.37 270.89 834.04 C 272.73 833.84 274.78 834.27 276.48 833.46 Z" />
</g>
<g id="#026a4eff">
<path fill="#026a4e" opacity="1.00" d=" M 120.58 834.08 C 120.50 831.97 120.70 829.85 121.41 827.87 C 122.80 831.27 124.14 834.69 125.46 838.13 C 124.94 838.25 123.92 838.49 123.41 838.60 C 122.68 838.31 121.96 838.03 121.24 837.76 C 121.00 836.53 120.78 835.30 120.58 834.08 Z" />
</g>
<g id="#01494aff">
<path fill="#01494a" opacity="1.00" d=" M 289.04 840.43 C 286.31 836.62 286.55 831.82 288.39 827.70 C 290.20 829.20 291.89 830.91 293.99 832.02 C 296.62 832.54 299.24 831.60 301.81 831.11 C 301.93 832.27 302.01 833.45 302.05 834.65 C 301.82 836.34 301.50 838.04 301.23 839.74 C 302.28 841.76 303.02 843.91 303.69 846.09 C 305.52 843.72 307.24 841.27 308.70 838.66 C 313.20 839.84 317.94 841.80 322.59 840.07 C 321.89 844.58 321.54 849.13 320.91 853.65 C 319.22 854.30 317.53 854.94 315.85 855.62 C 312.60 854.72 309.30 855.42 306.21 856.52 C 305.21 856.09 304.19 855.74 303.18 855.37 C 302.19 850.23 299.39 845.20 300.72 839.87 C 299.09 840.55 297.47 841.27 295.82 841.93 C 293.60 841.25 291.33 840.75 289.04 840.43 Z" />
</g>
<g id="#01b05fff">
<path fill="#01b05f" opacity="1.00" d=" M 254.54 833.41 C 257.75 831.95 260.97 830.51 264.27 829.24 C 263.24 832.21 261.86 835.04 260.10 837.65 C 257.49 841.20 255.82 845.30 255.29 849.69 L 254.53 850.73 C 253.86 847.80 252.83 844.92 252.66 841.91 C 252.87 839.00 253.83 836.22 254.54 833.41 Z" />
</g>
<g id="#6ac26aff">
<path fill="#6ac26a" opacity="1.00" d=" M 66.02 834.21 C 74.10 833.18 82.21 832.30 90.33 831.58 C 92.82 833.51 95.60 835.03 98.34 836.60 C 93.58 836.93 88.81 836.53 84.05 836.80 C 76.10 837.37 68.10 838.28 60.13 837.72 C 57.98 837.64 56.77 835.69 55.48 834.28 C 56.17 834.31 57.54 834.38 58.23 834.42 C 60.82 834.70 63.44 834.56 66.02 834.21 Z" />
</g>
<g id="#01af5fff">
<path fill="#01af5f" opacity="1.00" d=" M 302.05 834.65 C 305.54 833.29 308.95 831.77 312.47 830.51 C 311.42 833.31 310.20 836.06 308.70 838.66 C 307.24 841.27 305.52 843.72 303.69 846.09 C 303.02 843.91 302.28 841.76 301.23 839.74 C 301.50 838.04 301.82 836.34 302.05 834.65 Z" />
</g>
<g id="#017b58ff">
<path fill="#017b58" opacity="1.00" d=" M 312.47 830.51 L 313.27 830.24 C 316.59 833.30 319.67 836.62 322.59 840.07 C 317.94 841.80 313.20 839.84 308.70 838.66 C 310.20 836.06 311.42 833.31 312.47 830.51 Z" />
</g>
<g id="#011e3eff">
<path fill="#011e3e" opacity="1.00" d=" M 276.18 835.13 C 279.07 833.42 282.57 833.54 285.80 833.14 C 284.77 834.80 283.66 836.43 282.45 837.98 C 281.74 838.79 280.99 839.58 280.22 840.36 C 278.32 840.77 276.39 841.06 274.48 841.39 C 274.90 839.26 275.20 837.08 276.18 835.13 Z" />
</g>
<g id="#017256ff">
<path fill="#017256" opacity="1.00" d=" M 458.32 833.67 C 458.76 833.50 459.66 833.15 460.11 832.98 C 462.47 835.92 464.84 838.85 467.25 841.75 C 469.76 840.77 472.24 839.60 474.91 839.11 C 477.79 840.69 479.59 843.64 481.82 845.98 C 481.73 846.48 481.56 847.48 481.47 847.98 C 481.27 847.63 480.86 846.93 480.66 846.58 C 475.64 848.20 471.48 844.72 467.13 842.83 C 465.62 845.19 464.24 847.63 463.05 850.18 C 458.69 851.01 454.30 849.82 449.93 849.71 C 452.16 844.08 455.29 838.89 458.32 833.67 Z" />
</g>
<g id="#43a763ff">
<path fill="#43a763" opacity="1.00" d=" M 146.95 836.06 C 154.98 834.92 163.12 834.09 171.22 834.85 C 175.51 835.11 179.79 835.51 183.97 836.54 C 182.54 837.91 181.12 839.28 179.64 840.60 C 176.45 841.31 173.25 842.12 169.96 842.14 C 158.64 841.91 147.31 841.41 136.05 840.17 C 134.31 839.92 132.61 839.42 130.92 838.95 C 131.46 838.72 132.54 838.27 133.08 838.04 C 135.02 838.55 137.03 839.23 139.06 838.81 C 141.78 838.12 144.12 836.34 146.95 836.06 Z" />
</g>
<g id="#02b15dff">
<path fill="#02b15d" opacity="1.00" d=" M 448.43 838.22 C 451.61 836.46 454.90 834.92 458.32 833.67 C 455.29 838.89 452.16 844.08 449.93 849.71 C 450.37 851.23 450.97 852.73 451.72 854.14 C 450.74 852.96 449.55 851.92 448.86 850.56 C 448.45 848.33 448.57 846.06 448.51 843.82 C 448.50 841.95 448.47 840.08 448.43 838.22 Z" />
</g>
<g id="#73c66bff">
<path fill="#73c66b" opacity="1.00" d=" M 323.09 868.33 C 329.14 858.00 331.37 845.87 337.37 835.53 C 349.58 846.15 361.52 857.08 373.86 867.54 L 373.96 868.24 C 360.60 868.90 347.34 870.93 333.99 871.72 C 327.14 871.81 320.29 871.39 313.45 871.78 C 313.36 869.11 313.21 866.46 313.11 863.81 L 313.10 862.68 C 316.31 864.76 319.61 866.71 323.09 868.33 Z" />
</g>
<g id="#190e3dff">
<path fill="#190e3d" opacity="1.00" d=" M 125.46 838.13 C 127.95 837.61 130.71 836.55 133.08 838.04 C 132.54 838.27 131.46 838.72 130.92 838.95 C 130.88 843.91 131.10 848.88 131.42 853.83 L 131.58 855.24 C 136.39 855.51 141.21 855.35 146.03 855.46 C 141.07 855.62 136.12 855.61 131.16 855.55 C 131.21 856.51 131.30 858.44 131.34 859.40 C 133.90 859.39 136.47 859.40 139.03 859.43 C 134.88 859.64 130.72 859.87 126.56 859.57 C 126.85 857.36 127.14 855.16 127.29 852.95 C 127.45 848.85 127.56 844.74 127.82 840.65 C 127.23 840.38 126.05 839.83 125.47 839.55 C 124.95 839.31 123.92 838.84 123.41 838.60 C 123.92 838.49 124.94 838.25 125.46 838.13 Z" />
</g>
<g id="#13093cff">
<path fill="#13093c" opacity="1.00" d=" M 280.22 840.36 C 280.99 839.58 281.74 838.79 282.45 837.98 C 284.13 839.78 285.60 841.77 286.71 843.98 C 287.49 842.79 288.27 841.60 289.04 840.43 C 291.33 840.75 293.60 841.25 295.82 841.93 C 295.11 842.21 293.67 842.78 292.96 843.06 C 292.53 842.90 291.67 842.56 291.24 842.39 C 290.38 843.90 289.50 845.40 288.64 846.93 C 287.63 848.78 286.44 850.72 286.71 852.94 C 287.05 859.28 287.37 865.62 287.83 871.96 L 287.99 873.28 C 293.29 873.55 298.61 873.34 303.92 873.48 C 297.83 873.60 291.73 873.60 285.65 873.76 C 284.63 864.19 285.64 854.53 284.60 844.97 C 284.26 844.64 283.60 843.98 283.27 843.65 C 282.20 842.58 281.21 841.47 280.22 840.36 Z" />
</g>
<g id="#65c06aff">
<path fill="#65c06a" opacity="1.00" d=" M 511.80 848.57 C 521.00 844.84 530.55 842.04 540.00 839.01 L 540.00 887.40 C 535.29 887.67 530.60 888.17 525.92 888.64 C 519.45 888.93 512.98 888.59 506.52 888.52 C 506.42 887.06 506.78 885.63 506.45 884.23 C 505.80 879.84 505.87 875.41 505.78 871.00 C 507.04 870.52 508.31 870.06 509.58 869.62 C 511.60 869.04 513.60 868.41 515.61 867.79 C 515.66 863.26 515.49 858.74 515.30 854.22 C 514.70 852.02 513.23 850.26 511.80 848.57 Z" />
</g>
<g id="#5cb968ff">
<path fill="#5cb968" opacity="1.00" d=" M 436.29 843.37 C 436.60 843.23 437.23 842.93 437.55 842.78 C 437.80 842.81 438.31 842.88 438.57 842.91 C 441.86 843.38 445.19 843.64 448.51 843.82 C 448.57 846.06 448.45 848.33 448.86 850.56 C 449.55 851.92 450.74 852.96 451.72 854.14 C 453.03 855.60 454.33 857.11 455.93 858.30 C 457.36 857.96 458.74 857.46 460.08 856.88 C 460.78 857.90 461.48 858.92 462.12 860.00 C 462.16 860.54 462.25 861.63 462.29 862.17 C 456.30 865.78 449.11 866.44 442.61 868.81 C 438.28 868.14 434.02 867.08 429.69 866.40 C 431.54 860.18 434.23 854.25 436.20 848.08 C 436.79 846.55 436.54 844.92 436.29 843.37 Z" />
</g>
<g id="#01474aff">
<path fill="#01474a" opacity="1.00" d=" M 467.13 842.83 C 471.48 844.72 475.64 848.20 480.66 846.58 C 480.86 846.93 481.27 847.63 481.47 847.98 C 481.07 852.00 480.04 856.82 475.45 857.88 C 473.75 857.18 471.96 856.64 470.42 855.66 C 469.38 853.42 468.88 850.99 468.20 848.64 C 466.48 849.15 464.78 849.71 463.05 850.18 C 464.24 847.63 465.62 845.19 467.13 842.83 Z" />
</g>
<g id="#017d58ff">
<path fill="#017d58" opacity="1.00" d=" M 494.23 846.98 C 498.56 845.85 502.79 844.38 507.02 842.92 C 508.61 844.80 510.21 846.68 511.80 848.57 C 513.23 850.26 514.70 852.02 515.30 854.22 C 511.35 853.64 507.43 852.86 503.51 852.19 C 501.88 854.09 500.24 855.96 498.58 857.84 C 497.40 854.22 495.84 850.74 494.16 847.34 L 494.23 846.98 Z" />
</g>
<g id="#32123dff">
<path fill="#32123d" opacity="1.00" d=" M 283.27 843.65 C 283.60 843.98 284.26 844.64 284.60 844.97 C 285.64 854.53 284.63 864.19 285.65 873.76 C 284.29 873.74 282.93 873.71 281.58 873.70 C 281.62 873.00 281.70 871.60 281.73 870.91 C 281.87 868.49 282.01 866.08 282.14 863.67 C 282.50 856.99 282.83 850.32 283.27 843.65 Z" />
</g>
<g id="#66c069ff">
<path fill="#66c069" opacity="1.00" d=" M 419.12 850.19 C 424.87 847.99 430.81 846.23 436.29 843.37 C 436.54 844.92 436.79 846.55 436.20 848.08 C 434.23 854.25 431.54 860.18 429.69 866.40 C 423.81 865.61 417.96 864.46 412.01 864.23 C 401.84 863.56 391.67 864.74 381.49 864.63 C 394.01 859.76 406.60 855.07 419.12 850.19 Z" />
</g>
<g id="#6ac069ff">
<path fill="#6ac069" opacity="1.00" d=" M 286.71 852.94 C 286.44 850.72 287.63 848.78 288.64 846.93 C 293.50 849.70 297.91 853.36 303.18 855.37 C 304.19 855.74 305.21 856.09 306.21 856.52 C 307.46 857.11 308.71 857.73 309.96 858.36 C 309.96 859.00 309.96 860.27 309.96 860.90 C 309.70 864.51 309.39 868.12 309.20 871.75 C 302.08 872.08 294.94 871.32 287.83 871.96 C 287.37 865.62 287.05 859.28 286.71 852.94 Z" />
</g>
<g id="#01574eff">
<path fill="#01574e" opacity="1.00" d=" M 494.16 847.34 C 495.84 850.74 497.40 854.22 498.58 857.84 C 500.24 855.96 501.88 854.09 503.51 852.19 C 507.43 852.86 511.35 853.64 515.30 854.22 C 515.49 858.74 515.66 863.26 515.61 867.79 C 513.60 868.41 511.60 869.04 509.58 869.62 C 506.71 869.64 503.84 869.80 501.03 870.39 C 500.36 869.66 499.70 868.94 499.05 868.23 C 499.89 865.97 501.85 863.32 500.05 861.01 C 497.73 858.42 494.34 857.11 491.54 855.12 C 492.29 852.48 493.26 849.92 494.16 847.34 Z" />
</g>
<g id="#013141ff">
<path fill="#013141" opacity="1.00" d=" M 463.05 850.18 C 464.78 849.71 466.48 849.15 468.20 848.64 C 468.88 850.99 469.38 853.42 470.42 855.66 C 471.96 856.64 473.75 857.18 475.45 857.88 C 474.04 858.18 472.64 858.47 471.24 858.80 C 470.12 857.87 468.97 856.98 467.85 856.07 C 466.19 854.95 465.97 852.91 465.48 851.15 C 464.57 852.22 463.67 853.30 462.72 854.34 C 461.86 855.20 460.99 856.06 460.08 856.88 C 458.74 857.46 457.36 857.96 455.93 858.30 C 454.33 857.11 453.03 855.60 451.72 854.14 C 450.97 852.73 450.37 851.23 449.93 849.71 C 454.30 849.82 458.69 851.01 463.05 850.18 Z" />
</g>
<g id="#43a863ff">
<path fill="#43a863" opacity="1.00" d=" M 254.53 850.73 L 255.29 849.69 C 255.27 851.05 255.27 852.42 255.28 853.80 C 255.66 853.97 256.43 854.30 256.81 854.47 C 257.62 854.83 258.43 855.21 259.24 855.61 C 252.80 859.58 245.12 857.76 238.01 857.90 C 229.67 858.10 221.36 859.02 213.02 859.27 C 205.89 859.49 198.85 858.03 191.93 856.45 C 198.72 855.83 205.57 856.51 212.34 855.56 C 223.25 854.23 234.18 853.04 245.19 852.97 C 248.00 852.92 250.81 852.66 253.55 852.01 C 253.80 851.69 254.28 851.05 254.53 850.73 Z" />
</g>
<g id="#60b868ff">
<path fill="#60b868" opacity="1.00" d=" M 462.72 854.34 C 463.67 853.30 464.57 852.22 465.48 851.15 C 465.97 852.91 466.19 854.95 467.85 856.07 C 467.41 857.00 466.97 857.95 466.54 858.90 C 465.26 857.38 463.98 855.86 462.72 854.34 Z" />
<path fill="#60b868" opacity="1.00" d=" M 265.36 864.01 C 265.91 864.11 267.03 864.30 267.58 864.40 C 269.94 865.64 272.09 867.69 274.87 867.83 C 277.15 866.20 279.40 864.46 282.14 863.67 C 282.01 866.08 281.87 868.49 281.73 870.91 C 276.31 870.82 270.98 871.82 265.71 872.98 C 265.61 869.99 265.49 867.00 265.36 864.01 Z" />
</g>
<g id="#5ab164ff">
<path fill="#5ab164" opacity="1.00" d=" M 104.32 855.19 C 111.53 852.21 119.66 850.75 127.29 852.95 C 127.14 855.16 126.85 857.36 126.56 859.57 C 130.72 859.87 134.88 859.64 139.03 859.43 C 136.47 859.40 133.90 859.39 131.34 859.40 C 131.30 858.44 131.21 856.51 131.16 855.55 C 136.12 855.61 141.07 855.62 146.03 855.46 C 141.21 855.35 136.39 855.51 131.58 855.24 L 131.42 853.83 C 139.54 850.76 147.74 854.79 155.96 854.67 C 159.03 854.72 162.09 855.08 165.14 855.41 C 172.89 856.23 180.73 855.04 188.44 856.29 C 187.00 856.82 185.51 857.30 183.95 857.25 C 172.77 857.33 161.58 857.00 150.40 857.38 C 150.03 858.11 149.66 858.86 149.30 859.62 C 155.36 859.52 161.44 859.51 167.45 860.36 C 175.76 861.53 184.18 860.02 192.47 861.32 C 191.01 861.76 189.52 862.17 187.99 862.20 C 178.96 862.33 169.93 862.20 160.94 861.32 C 153.50 860.43 146.43 863.89 138.98 863.25 C 128.61 862.56 117.61 864.63 107.82 860.22 C 106.34 858.78 105.41 856.91 104.32 855.19 Z" />
</g>
<g id="#1a0d3dff">
<path fill="#1a0d3d" opacity="1.00" d=" M 256.81 854.47 C 261.04 854.55 265.18 853.27 269.43 853.58 C 267.96 854.20 266.49 854.82 265.02 855.43 C 265.04 855.84 265.07 856.66 265.09 857.07 C 265.18 859.37 265.25 861.69 265.36 864.01 C 265.49 867.00 265.61 869.99 265.71 872.98 C 265.75 874.42 265.79 875.87 265.84 877.32 C 264.87 877.21 262.93 876.98 261.96 876.87 L 261.71 876.73 C 260.96 871.20 262.02 865.69 262.25 860.17 C 262.27 859.40 262.33 857.86 262.36 857.09 C 261.32 856.59 260.28 856.09 259.24 855.61 C 258.43 855.21 257.62 854.83 256.81 854.47 Z" />
</g>
<g id="#091932ff">
<path fill="#091932" opacity="1.00" d=" M 306.21 856.52 C 309.30 855.42 312.60 854.72 315.85 855.62 C 315.11 855.95 313.63 856.60 312.89 856.93 C 312.97 858.84 313.05 860.75 313.10 862.68 L 313.11 863.81 C 312.91 864.37 312.52 865.50 312.33 866.06 C 312.13 862.99 311.89 859.93 311.47 856.89 C 311.15 859.25 310.89 861.63 310.64 864.02 C 310.40 862.97 310.17 861.93 309.96 860.90 C 309.96 860.27 309.96 859.00 309.96 858.36 C 308.71 857.73 307.46 857.11 306.21 856.52 Z" />
</g>
<g id="#1a0c3dff">
<path fill="#1a0c3d" opacity="1.00" d=" M 460.08 856.88 C 460.99 856.06 461.86 855.20 462.72 854.34 C 463.98 855.86 465.26 857.38 466.54 858.90 C 466.97 857.95 467.41 857.00 467.85 856.07 C 468.97 856.98 470.12 857.87 471.24 858.80 C 468.46 860.99 467.57 864.73 466.61 867.97 C 466.55 874.36 467.25 880.75 467.70 887.13 L 467.76 887.77 C 466.10 887.87 464.44 888.01 462.79 888.07 C 463.04 880.36 463.29 872.65 463.37 864.95 C 463.45 863.19 463.05 861.47 462.12 860.00 C 461.48 858.92 460.78 857.90 460.08 856.88 Z" />
</g>
<g id="#023f48ff">
<path fill="#023f48" opacity="1.00" d=" M 491.54 855.12 C 494.34 857.11 497.73 858.42 500.05 861.01 C 501.85 863.32 499.89 865.97 499.05 868.23 C 499.70 868.94 500.36 869.66 501.03 870.39 C 500.42 870.51 499.21 870.74 498.60 870.86 C 497.33 870.01 495.84 869.22 495.35 867.68 C 493.73 863.61 491.98 859.50 491.54 855.12 Z" />
<path fill="#023f48" opacity="1.00" d=" M 506.45 884.23 C 506.78 885.63 506.42 887.06 506.52 888.52 C 512.98 888.59 519.45 888.93 525.92 888.64 C 530.60 888.17 535.29 887.67 540.00 887.40 L 540.00 888.73 C 533.49 887.43 527.06 889.37 520.55 889.31 C 515.73 889.10 510.90 889.10 506.10 889.50 C 502.98 889.99 500.14 888.19 497.05 888.28 C 487.28 888.30 477.53 887.05 467.76 887.77 L 467.70 887.13 C 479.20 887.18 490.69 888.01 502.19 887.63 C 502.61 887.89 503.46 888.41 503.88 888.67 C 506.62 890.43 505.65 885.68 506.45 884.23 Z" />
</g>
<g id="#41a764ff">
<path fill="#41a764" opacity="1.00" d=" M 265.09 857.07 C 266.98 861.27 272.74 859.30 276.39 860.35 C 273.54 861.89 270.63 863.31 267.58 864.40 C 267.03 864.30 265.91 864.11 265.36 864.01 C 265.25 861.69 265.18 859.37 265.09 857.07 Z" />
</g>
<g id="#1a0f3fff">
<path fill="#1a0f3f" opacity="1.00" d=" M 311.47 856.89 C 311.89 859.93 312.13 862.99 312.33 866.06 C 312.52 865.50 312.91 864.37 313.11 863.81 C 313.21 866.46 313.36 869.11 313.45 871.78 C 313.51 873.79 313.57 875.82 313.63 877.85 C 311.99 877.82 310.35 877.84 308.72 877.93 C 308.89 875.86 309.07 873.80 309.20 871.75 C 309.39 868.12 309.70 864.51 309.96 860.90 C 310.17 861.93 310.40 862.97 310.64 864.02 C 310.89 861.63 311.15 859.25 311.47 856.89 Z" />
</g>
<g id="#4d2e44ff">
<path fill="#4d2e44" opacity="1.00" d=" M 462.12 860.00 C 463.05 861.47 463.45 863.19 463.37 864.95 C 463.29 872.65 463.04 880.36 462.79 888.07 C 462.22 887.91 461.07 887.60 460.49 887.44 C 460.64 885.69 460.80 883.95 460.93 882.21 C 461.00 880.80 461.08 879.39 461.17 877.99 L 461.26 876.83 C 461.59 871.94 462.02 867.06 462.29 862.17 C 462.25 861.63 462.16 860.54 462.12 860.00 Z" />
</g>
<g id="#67c169ff">
<path fill="#67c169" opacity="1.00" d=" M 442.61 868.81 C 449.11 866.44 456.30 865.78 462.29 862.17 C 462.02 867.06 461.59 871.94 461.26 876.83 C 450.16 874.68 438.82 874.89 427.62 873.83 C 433.73 872.23 440.07 871.92 446.22 870.52 C 445.02 869.93 443.81 869.33 442.61 868.81 Z" />
</g>
<g id="#45aa64ff">
<path fill="#45aa64" opacity="1.00" d=" M 381.49 864.63 C 391.67 864.74 401.84 863.56 412.01 864.23 C 417.96 864.46 423.81 865.61 429.69 866.40 C 434.02 867.08 438.28 868.14 442.61 868.81 C 443.81 869.33 445.02 869.93 446.22 870.52 C 440.07 871.92 433.73 872.23 427.62 873.83 C 438.82 874.89 450.16 874.68 461.26 876.83 L 461.17 877.99 C 450.46 879.05 439.70 879.62 428.94 879.29 C 408.31 878.77 387.65 879.74 367.05 878.42 C 360.68 878.00 354.38 879.31 348.02 879.33 C 340.82 879.68 333.73 877.84 326.53 878.29 C 322.24 878.00 317.93 877.92 313.63 877.85 C 313.57 875.82 313.51 873.79 313.45 871.78 C 320.29 871.39 327.14 871.81 333.99 871.72 C 347.34 870.93 360.60 868.90 373.96 868.24 C 376.80 867.76 378.73 865.34 381.49 864.63 M 333.69 873.52 C 330.70 873.70 327.65 873.71 324.77 874.64 C 328.59 876.47 332.89 875.71 336.97 875.80 C 348.45 876.12 359.63 872.80 371.05 872.18 C 378.76 872.25 386.50 873.74 394.19 872.81 C 385.54 871.52 376.82 870.16 368.06 869.94 C 356.55 870.52 345.15 872.40 333.69 873.52 Z" />
</g>
<g id="#6bc36bff">
<path fill="#6bc36b" opacity="1.00" d=" M 333.69 873.52 C 345.15 872.40 356.55 870.52 368.06 869.94 C 376.82 870.16 385.54 871.52 394.19 872.81 C 386.50 873.74 378.76 872.25 371.05 872.18 C 359.63 872.80 348.45 876.12 336.97 875.80 C 332.89 875.71 328.59 876.47 324.77 874.64 C 327.65 873.71 330.70 873.70 333.69 873.52 Z" />
</g>
<g id="#57a962ff">
<path fill="#57a962" opacity="1.00" d=" M 265.71 872.98 C 270.98 871.82 276.31 870.82 281.73 870.91 C 281.70 871.60 281.62 873.00 281.58 873.70 C 282.93 873.71 284.29 873.74 285.65 873.76 C 291.73 873.60 297.83 873.60 303.92 873.48 C 298.61 873.34 293.29 873.55 287.99 873.28 L 287.83 871.96 C 294.94 871.32 302.08 872.08 309.20 871.75 C 309.07 873.80 308.89 875.86 308.72 877.93 C 297.49 878.58 286.24 877.62 275.01 877.95 C 270.65 877.88 266.08 878.64 261.96 876.87 C 262.93 876.98 264.87 877.21 265.84 877.32 C 265.79 875.87 265.75 874.42 265.71 872.98 Z" />
</g>
<g id="#5bad63ff">
<path fill="#5bad63" opacity="1.00" d=" M 250.18 874.37 C 253.48 872.52 257.36 872.42 261.03 872.72 C 260.95 873.56 260.77 875.22 260.69 876.06 C 260.94 876.22 261.45 876.56 261.71 876.73 L 261.96 876.87 C 266.08 878.64 270.65 877.88 275.01 877.95 C 286.24 877.62 297.49 878.58 308.72 877.93 C 310.35 877.84 311.99 877.82 313.63 877.85 C 317.93 877.92 322.24 878.00 326.53 878.29 C 311.62 882.70 296.19 878.58 281.02 879.42 C 271.08 879.82 261.15 879.05 251.31 877.77 C 250.14 876.94 249.09 875.73 250.18 874.37 Z" />
</g>
<g id="#5ab065ff">
<path fill="#5ab065" opacity="1.00" d=" M 454.94 885.51 C 457.12 884.77 459.29 883.87 460.93 882.21 C 460.80 883.95 460.64 885.69 460.49 887.44 C 461.07 887.60 462.22 887.91 462.79 888.07 C 464.44 888.01 466.10 887.87 467.76 887.77 C 477.53 887.05 487.28 888.30 497.05 888.28 C 500.14 888.19 502.98 889.99 506.10 889.50 C 510.90 889.10 515.73 889.10 520.55 889.31 C 518.85 890.52 517.07 891.81 514.93 892.03 C 507.39 893.00 499.78 892.22 492.26 891.47 C 484.21 891.23 476.06 891.84 468.15 889.89 C 463.76 888.73 457.10 890.77 454.94 885.51 Z" />
</g>
</svg>
