<?xml version="1.0" encoding="UTF-8" ?>
<!DOCTYPE svg PUBLIC "-//W3C//DTD SVG 1.1//EN" "http://www.w3.org/Graphics/SVG/1.1/DTD/svg11.dtd">
<svg width="200pt" height="200pt" viewBox="0 0 200 200" version="1.1" xmlns="http://www.w3.org/2000/svg">
<g id="#000000ff">
<path fill="#000000" opacity="1.00" d=" M 57.12 52.08 C 65.58 42.60 78.65 38.99 90.92 38.07 C 97.66 37.07 103.67 40.85 109.63 43.35 C 119.98 47.41 123.41 59.17 126.02 68.92 C 131.36 63.23 139.59 62.32 146.97 62.58 C 159.21 64.54 172.49 66.38 182.12 74.94 C 193.38 85.45 196.17 101.80 195.67 116.54 C 193.93 116.67 192.20 116.79 190.47 116.92 C 189.19 115.86 187.89 114.82 186.59 113.79 C 189.84 120.98 191.70 128.82 191.40 136.75 C 189.36 137.73 187.35 138.75 185.32 139.76 C 182.78 136.38 179.98 133.18 176.73 130.47 C 179.29 138.00 180.48 146.03 180.06 153.97 C 178.53 155.62 175.98 156.13 174.00 155.02 C 168.10 152.42 161.65 151.04 156.31 147.29 C 149.64 150.34 142.76 152.92 135.68 154.85 C 126.54 158.21 116.62 156.91 107.16 156.23 C 101.35 155.89 95.74 154.31 90.11 152.99 C 80.59 150.76 72.48 144.84 65.21 138.56 C 60.46 140.95 55.47 143.46 50.03 143.50 C 45.03 143.65 40.03 144.72 35.02 144.04 C 29.03 143.44 23.89 140.05 18.56 137.57 C 15.90 136.38 11.97 137.76 10.23 134.81 C 6.79 128.04 9.54 120.20 12.89 113.97 C 20.03 101.76 30.71 90.72 44.64 86.73 C 44.46 79.59 44.85 72.26 47.54 65.55 C 49.60 60.36 53.49 56.22 57.12 52.08 M 85.14 42.10 C 75.50 44.47 65.19 47.68 58.66 55.66 C 51.45 62.95 46.63 73.60 49.37 83.91 C 52.14 91.13 57.06 97.26 60.90 103.92 C 60.22 104.85 59.55 105.79 58.88 106.73 C 62.52 112.22 65.97 118.28 66.23 125.03 C 66.46 127.93 65.42 130.96 66.29 133.78 C 71.12 140.44 78.66 144.57 86.04 147.84 C 97.94 151.74 110.44 154.32 123.02 153.76 C 131.11 153.93 138.44 150.12 146.04 147.95 C 148.08 147.31 150.08 146.54 152.07 145.76 C 145.45 139.45 138.32 133.26 134.12 124.97 C 130.03 118.45 126.10 111.82 123.27 104.64 C 120.25 98.95 120.26 92.33 120.17 86.06 C 120.17 79.62 123.14 73.33 121.70 66.88 C 120.43 60.86 117.82 54.94 113.38 50.59 C 110.46 47.51 106.21 46.49 102.51 44.71 C 97.12 42.24 91.05 40.48 85.14 42.10 M 124.92 77.87 C 124.22 83.23 124.05 88.69 124.45 94.09 C 124.99 101.83 128.87 108.77 132.59 115.40 C 139.54 126.63 146.71 139.10 159.30 144.75 C 164.95 148.00 171.13 150.03 177.23 152.21 C 177.61 143.59 174.28 135.51 172.22 127.30 C 178.92 126.49 183.60 131.86 187.75 136.21 C 188.67 127.95 186.08 119.65 181.19 113.02 C 181.63 110.08 184.42 109.43 186.91 109.07 C 188.85 110.82 190.83 112.52 192.82 114.23 C 192.67 106.37 191.65 98.41 188.58 91.12 C 185.64 83.55 180.25 76.57 172.72 73.18 C 162.04 67.65 149.77 65.95 137.87 66.30 C 132.01 67.59 126.44 71.89 124.92 77.87 M 32.08 98.01 C 25.71 101.07 21.43 107.16 18.54 113.41 C 16.48 118.44 15.01 124.80 18.87 129.37 C 21.50 129.22 24.10 128.80 26.59 127.91 C 27.26 131.93 31.42 133.05 34.73 134.19 C 43.83 137.40 53.85 136.68 62.99 134.00 C 65.28 126.36 63.91 117.53 58.67 111.39 C 53.91 105.88 50.06 99.68 45.51 94.01 C 40.87 94.67 36.22 95.72 32.08 98.01 Z" />
<path fill="#000000" opacity="1.00" d=" M 82.99 58.94 C 85.11 58.85 87.24 58.77 89.37 58.72 C 86.98 63.39 83.77 67.54 81.08 72.02 C 80.43 73.18 79.49 75.02 80.96 75.97 C 84.75 79.41 89.45 81.58 93.65 84.44 C 91.82 85.12 89.98 85.77 88.13 86.39 C 84.12 84.20 80.33 81.57 76.05 79.89 C 72.64 82.90 70.37 86.90 67.80 90.60 C 66.01 90.49 64.21 90.40 62.42 90.29 C 65.42 85.42 68.69 80.73 71.96 76.04 C 66.99 72.15 60.90 69.63 56.98 64.51 C 58.95 64.11 60.94 63.38 62.98 63.63 C 67.42 65.58 70.68 69.33 74.64 72.02 C 77.83 67.93 80.46 63.45 82.99 58.94 Z" />
</g>
<g id="#ff0000ff">
<path fill="#ff0000" opacity="1.00" d=" M 85.14 42.10 C 91.05 40.48 97.12 42.24 102.51 44.71 C 106.21 46.49 110.46 47.51 113.38 50.59 C 117.82 54.94 120.43 60.86 121.70 66.88 C 123.14 73.33 120.17 79.62 120.17 86.06 C 120.26 92.33 120.25 98.95 123.27 104.64 C 126.10 111.82 130.03 118.45 134.12 124.97 C 138.32 133.26 145.45 139.45 152.07 145.76 C 150.08 146.54 148.08 147.31 146.04 147.95 C 138.44 150.12 131.11 153.93 123.02 153.76 C 110.44 154.32 97.94 151.74 86.04 147.84 C 78.66 144.57 71.12 140.44 66.29 133.78 C 65.42 130.96 66.46 127.93 66.23 125.03 C 65.97 118.28 62.52 112.22 58.88 106.73 C 59.55 105.79 60.22 104.85 60.90 103.92 C 57.06 97.26 52.14 91.13 49.37 83.91 C 46.63 73.60 51.45 62.95 58.66 55.66 C 65.19 47.68 75.50 44.47 85.14 42.10 M 82.99 58.94 C 80.46 63.45 77.83 67.93 74.64 72.02 C 70.68 69.33 67.42 65.58 62.98 63.63 C 60.94 63.38 58.95 64.11 56.98 64.51 C 60.90 69.63 66.99 72.15 71.96 76.04 C 68.69 80.73 65.42 85.42 62.42 90.29 C 64.21 90.40 66.01 90.49 67.80 90.60 C 70.37 86.90 72.64 82.90 76.05 79.89 C 80.33 81.57 84.12 84.20 88.13 86.39 C 89.98 85.77 91.82 85.12 93.65 84.44 C 89.45 81.58 84.75 79.41 80.96 75.97 C 79.49 75.02 80.43 73.18 81.08 72.02 C 83.77 67.54 86.98 63.39 89.37 58.72 C 87.24 58.77 85.11 58.85 82.99 58.94 Z" />
<path fill="#ff0000" opacity="1.00" d=" M 124.92 77.87 C 126.44 71.89 132.01 67.59 137.87 66.30 C 149.77 65.95 162.04 67.65 172.72 73.18 C 180.25 76.57 185.64 83.55 188.58 91.12 C 191.65 98.41 192.67 106.37 192.82 114.23 C 190.83 112.52 188.85 110.82 186.91 109.07 C 184.42 109.43 181.63 110.08 181.19 113.02 C 186.08 119.65 188.67 127.95 187.75 136.21 C 183.60 131.86 178.92 126.49 172.22 127.30 C 174.28 135.51 177.61 143.59 177.23 152.21 C 171.13 150.03 164.95 148.00 159.30 144.75 C 146.71 139.10 139.54 126.63 132.59 115.40 C 128.87 108.77 124.99 101.83 124.45 94.09 C 124.05 88.69 124.22 83.23 124.92 77.87 Z" />
</g>
<g id="#ffff00ff">
<path fill="#ffff00" opacity="1.00" d=" M 32.08 98.01 C 36.22 95.72 40.87 94.67 45.51 94.01 C 50.06 99.68 53.91 105.88 58.67 111.39 C 63.91 117.53 65.28 126.36 62.99 134.00 C 53.85 136.68 43.83 137.40 34.73 134.19 C 31.42 133.05 27.26 131.93 26.59 127.91 C 24.10 128.80 21.50 129.22 18.87 129.37 C 15.01 124.80 16.48 118.44 18.54 113.41 C 21.43 107.16 25.71 101.07 32.08 98.01 Z" />
</g>
</svg>
