<?xml version="1.0" encoding="UTF-8" ?>
<!DOCTYPE svg PUBLIC "-//W3C//DTD SVG 1.1//EN" "http://www.w3.org/Graphics/SVG/1.1/DTD/svg11.dtd">
<svg width="150pt" height="150pt" viewBox="0 0 150 150" version="1.1" xmlns="http://www.w3.org/2000/svg">
<g id="#000000ff">
<path fill="#000000" opacity="1.00" d=" M 70.32 31.22 C 72.79 30.20 75.24 29.02 77.89 28.59 C 85.69 28.50 93.60 29.98 100.52 33.68 C 105.05 35.89 108.10 40.04 111.23 43.82 C 116.05 49.68 116.78 57.70 116.51 65.00 C 126.87 67.83 134.77 75.92 140.09 84.92 C 142.58 89.63 144.94 95.39 142.59 100.61 C 141.59 102.96 138.87 102.62 136.80 102.67 C 132.14 104.97 127.53 108.00 122.17 108.14 C 117.97 108.22 113.81 107.46 109.61 107.39 C 106.72 106.38 103.82 105.37 101.12 103.89 C 96.61 108.04 91.49 111.58 85.75 113.81 C 75.01 117.25 63.61 118.38 52.40 117.42 C 45.73 115.45 38.90 113.68 32.69 110.47 C 28.38 113.79 22.90 114.49 18.16 116.87 C 16.96 116.50 15.29 116.64 14.82 115.18 C 14.86 109.33 15.34 103.37 17.50 97.87 C 15.07 99.89 12.95 102.24 11.01 104.73 C 9.43 103.99 7.88 103.21 6.36 102.37 C 6.35 96.47 7.41 90.65 10.14 85.38 C 9.11 86.15 8.08 86.93 7.06 87.71 C 5.79 87.63 4.52 87.55 3.25 87.46 C 2.84 76.42 4.88 64.24 13.29 56.34 C 20.54 49.77 30.65 48.60 39.88 46.96 C 45.39 47.19 51.54 47.24 55.48 51.78 C 56.85 46.54 58.39 41.15 61.87 36.87 C 63.77 33.86 67.26 32.65 70.32 31.22 M 69.12 35.19 C 63.22 37.62 60.13 44.02 58.76 49.90 C 57.47 54.98 60.02 59.88 59.89 64.95 C 59.83 68.26 59.68 71.59 59.05 74.85 C 58.22 77.33 56.77 79.55 56.00 82.06 C 53.76 87.31 50.19 91.81 47.57 96.86 C 45.95 99.72 43.47 101.95 41.19 104.27 C 39.55 106.07 37.75 107.71 35.95 109.34 C 38.49 110.45 41.11 111.39 43.81 112.01 C 48.40 113.61 53.05 115.69 58.02 115.34 C 66.64 115.56 75.27 114.21 83.46 111.55 C 89.77 109.46 95.63 105.87 100.01 100.85 C 101.10 99.71 100.39 98.02 100.43 96.64 C 99.52 90.55 102.57 84.86 105.84 79.98 C 105.46 79.46 104.71 78.41 104.33 77.89 C 106.86 74.13 109.11 70.19 111.46 66.33 C 112.99 63.81 113.94 60.93 113.45 57.96 C 113.68 49.96 108.03 43.50 102.60 38.32 C 97.43 34.67 91.25 32.37 85.04 31.28 C 79.34 30.20 74.19 33.11 69.12 35.19 M 16.90 56.82 C 8.26 63.62 5.41 75.16 5.40 85.69 C 6.84 84.48 8.27 83.27 9.68 82.03 C 11.95 81.76 14.02 82.42 13.91 85.08 C 10.25 89.96 8.42 96.00 9.27 102.10 C 12.45 98.92 15.66 94.47 20.82 95.59 C 19.33 101.77 16.67 107.71 17.11 114.23 C 21.58 112.40 26.38 111.34 30.45 108.63 C 37.95 105.11 43.35 98.49 47.43 91.47 C 50.66 86.84 53.28 81.83 55.41 76.61 C 57.36 71.02 56.87 64.99 56.47 59.19 C 56.21 56.17 53.88 54.01 51.90 51.97 C 50.28 51.26 48.70 50.46 47.15 49.63 C 36.74 49.28 25.83 51.23 16.90 56.82 M 105.76 83.73 C 102.06 88.40 100.97 94.84 102.78 100.50 C 111.00 103.11 120.26 103.07 128.01 99.02 C 129.40 98.48 129.68 97.05 129.98 95.76 C 131.84 96.62 133.88 96.85 135.91 96.89 C 136.32 96.21 137.15 94.84 137.56 94.16 C 138.37 87.72 135.00 81.81 130.93 77.13 C 127.03 72.99 121.40 71.19 115.90 70.44 C 112.20 74.63 109.51 79.58 105.76 83.73 Z" />
<path fill="#000000" opacity="1.00" d=" M 83.00 44.10 C 84.60 44.16 86.19 44.23 87.79 44.31 C 89.84 47.56 91.52 51.09 94.08 53.99 C 97.14 52.10 99.47 49.18 102.79 47.67 C 104.28 47.71 105.74 47.97 107.16 48.45 C 104.31 52.30 99.76 54.20 96.01 56.99 C 98.48 60.50 100.82 64.11 103.22 67.67 C 101.82 67.73 100.42 67.78 99.03 67.83 C 97.25 65.05 95.61 62.05 92.98 59.95 C 90.06 60.74 87.75 62.80 85.10 64.15 C 83.37 65.35 81.45 63.69 79.72 63.34 C 83.10 61.18 86.83 59.44 89.75 56.64 C 90.22 55.40 89.32 54.29 88.74 53.29 C 86.80 50.24 84.68 47.30 83.00 44.10 Z" />
</g>
<g id="#ff0000ff">
<path fill="#ff0000" opacity="1.00" d=" M 69.12 35.19 C 74.19 33.11 79.34 30.20 85.04 31.28 C 91.25 32.37 97.43 34.67 102.60 38.32 C 108.03 43.50 113.68 49.96 113.45 57.96 C 113.94 60.93 112.99 63.81 111.46 66.33 C 109.11 70.19 106.86 74.13 104.33 77.89 C 104.71 78.41 105.46 79.46 105.84 79.98 C 102.57 84.86 99.52 90.55 100.43 96.64 C 100.39 98.02 101.10 99.71 100.01 100.85 C 95.63 105.87 89.77 109.46 83.46 111.55 C 75.27 114.21 66.64 115.56 58.02 115.34 C 53.05 115.69 48.40 113.61 43.81 112.01 C 41.11 111.39 38.49 110.45 35.95 109.34 C 37.75 107.71 39.55 106.07 41.19 104.27 C 43.47 101.95 45.95 99.72 47.57 96.86 C 50.19 91.81 53.76 87.31 56.00 82.06 C 56.77 79.55 58.22 77.33 59.05 74.85 C 59.68 71.59 59.83 68.26 59.89 64.95 C 60.02 59.88 57.47 54.98 58.76 49.90 C 60.13 44.02 63.22 37.62 69.12 35.19 M 83.00 44.10 C 84.68 47.30 86.80 50.24 88.74 53.29 C 89.32 54.29 90.22 55.40 89.75 56.64 C 86.83 59.44 83.10 61.18 79.72 63.34 C 81.45 63.69 83.37 65.35 85.10 64.15 C 87.75 62.80 90.06 60.74 92.98 59.95 C 95.61 62.05 97.25 65.05 99.03 67.83 C 100.42 67.78 101.82 67.73 103.22 67.67 C 100.82 64.11 98.48 60.50 96.01 56.99 C 99.76 54.20 104.31 52.30 107.16 48.45 C 105.74 47.97 104.28 47.71 102.79 47.67 C 99.47 49.18 97.14 52.10 94.08 53.99 C 91.52 51.09 89.84 47.56 87.79 44.31 C 86.19 44.23 84.60 44.16 83.00 44.10 Z" />
<path fill="#ff0000" opacity="1.00" d=" M 16.90 56.82 C 25.83 51.23 36.74 49.28 47.15 49.63 C 48.70 50.46 50.28 51.26 51.90 51.97 C 53.88 54.01 56.21 56.17 56.47 59.19 C 56.87 64.99 57.36 71.02 55.41 76.61 C 53.28 81.83 50.66 86.84 47.43 91.47 C 43.35 98.49 37.95 105.11 30.45 108.63 C 26.38 111.34 21.58 112.40 17.11 114.23 C 16.67 107.71 19.33 101.77 20.82 95.59 C 15.66 94.47 12.45 98.92 9.27 102.10 C 8.42 96.00 10.25 89.96 13.91 85.08 C 14.02 82.42 11.95 81.76 9.68 82.03 C 8.27 83.27 6.84 84.48 5.40 85.69 C 5.41 75.16 8.26 63.62 16.90 56.82 Z" />
</g>
<g id="#ffff00ff">
<path fill="#ffff00" opacity="1.00" d=" M 105.76 83.73 C 109.51 79.58 112.20 74.63 115.90 70.44 C 121.40 71.19 127.03 72.99 130.93 77.13 C 135.00 81.81 138.37 87.72 137.56 94.16 C 137.15 94.84 136.32 96.21 135.91 96.89 C 133.88 96.85 131.84 96.62 129.98 95.76 C 129.68 97.05 129.40 98.48 128.01 99.02 C 120.26 103.07 111.00 103.11 102.78 100.50 C 100.97 94.84 102.06 88.40 105.76 83.73 Z" />
</g>
</svg>
