<?xml version="1.0" encoding="UTF-8" standalone="no"?>
<!DOCTYPE svg  PUBLIC '-//W3C//DTD SVG 1.1//EN'  'http://www.w3.org/Graphics/SVG/1.1/DTD/svg11.dtd'>
<svg width="150pt" xmlns="http://www.w3.org/2000/svg" viewBox="0 0 150 116" version="1.1" height="116pt">
 <g id="#000000ff">
  <path d="m0 0h0.06c-0.01 0.02-0.04 0.05-0.06 0.06v-0.06z"/>
  <path d="m81.25 4.89c3.67-1.19 6.43 1.65 8.65 4.14 4.03-0.22 8.28 0.04 11.79 2.25 4.14 2.74 8.78 4.9 11.9 8.92-1.62 1.49-3.49 2.67-5.46 3.64 0.65 2.75 1.68 5.42 3.49 7.63 3.02 3.7 3.68 8.57 5.75 12.77 0.61 0.03 1.82 0.09 2.42 0.12 0.39 1.05 0.77 2.1 1.14 3.15-1.41 0.83-2.82 1.67-4.23 2.51 2.12 0.77 4.22 1.66 6.43 2.15 2.73 0.27 5.46-1.04 8.18-0.41 2.71 1.61 4.08 4.68 5.75 7.24 4.09 7.27 9.05 14.22 11.98 22.03-0.9 6.45-8.56 8.16-13.53 10.67-10.36 1.07-21.43 1.23-30.91-3.78-9.88 11.9-25.77 16.21-40.61 17.34-6.52 0.86-12.73-1.67-18.99-3.06-2.73-0.6-5.25-1.81-7.7-3.13-4.42 3.42-9.5 6.89-15.3 6.94-1.75-1.44-0.84-4.01-1.11-5.97-0.28-4.34 1.41-8.4 2.34-12.55-3.82 1.2-5.94 4.68-8.63 7.35-1.39-0.27-2.76-1.15-2.58-2.76-1.13-5.99 1.51-11.55 3.28-17.09-2.72 0.3-5.83 5.31-8.07 1.93-0.87-10.42 1.48-21.81 9.16-29.36 8.64-6.63 19.82-9.86 30.64-9.55 3.56-0.24 6.39 2.13 9 4.18 0.45-0.39 1.34-1.18 1.78-1.57 0.91-6.63 3.52-13 7.11-18.6 3.49-3.75 5.01-8.82 8.56-12.52 1.58-1.63 3.26-4.02 5.83-3.72-0.24 1.9-0.69 3.76-1.11 5.63 1.34-0.49 2.67-0.98 4.01-1.46-0.3-1.69-0.63-3.38-0.96-5.06m1.53 0.39c0.12 1.65 0.23 3.31 0.34 4.96 0.78-0.12 2.33-0.36 3.11-0.48-2.5 1.31-5.25 1.98-7.98 2.63-0.1 0.87-0.31 2.62-0.41 3.49 2.03-0.9 4.05-2.05 6.34-2.06 5.37-0.14 10.98-0.46 15.97 1.92 2.09 0.98 6.28 1.94 4.89 5.11-2.55 1.87-6.04 0.82-8.99 1.13-5.29-0.37-10.03 2.33-14.59 4.61 0.48 0.65 1.42 1.95 1.9 2.61 5.66-5.03 13.48-5.51 20.69-5.07-0.1 1.2-0.2 2.4-0.3 3.61-2.25 0.27-4.7 0.06-6.71 1.29-3.89 2.25-8.07 4.58-10.47 8.54-2.75 4.51-1.49 10.18-0.07 14.92 3.69 4.27 9.3 6.57 14.63 8.1 5.01 0.68 9.85-1.76 14.89-1.52 4.17 0.17 8.24-0.66 12.25-1.73 2.66-0.9 4.42 1.92 5.45 3.92 3.13 6.45 8.66 11.92 9.71 19.24-2.27 3.86-7.4 4.97-11.4 6.46-4.51 1.82-9.47 1.69-14.17 0.76-8.22-1.14-16.81-2.96-23.57-8.04-2.13-3.61-2.53-8.14-5.47-11.32-2.81-3.96-7.94-5.79-12.66-5.24-4.58 1.73-7.2 6.27-11.25 8.8-4.42-0.46-8.91-1.68-12.61-4.22-2.12-1.46-2.58-4.3-2.43-6.69 1.95-1.73 4.51-2.5 6.91-3.41 1.45-2.17 3.05-4.28 4.05-6.71 0.86-3.05 0.19-6.28 0.8-9.36 2.81-2.7 6.67-3.85 10.02-5.73-0.44-0.57-1.32-1.71-1.76-2.28-2.4 1.07-4.78 2.17-7.17 3.23 0.23-5.7 5.09-10.07 4.53-15.91-3.96 5.1-6.64 11.14-7.92 17.45-0.69 4.19 0.7 8.5-0.47 12.65-0.8 2.75-2.86 5.54-5.91 5.84-1.65 0.52-4.28 0.1-4.8 2.28-1.76 3.95-1.37 9.83 3.04 11.81 5.1 2.04 10.52 3.23 15.9 4.25 2.99-3.73 6.7-7.92 11.89-7.92 7.02 0.75 11.37 7.09 13.57 13.22 0.71 2.78 3.8 3.12 6.1 3.91 4.83 1.29 9.07 4.14 13.93 5.34 7.18 2 14.79 1.84 22.11 0.93 5.09-2.02 11.31-3.97 13.59-9.47-4.64-8.75-9.52-17.37-14.87-25.7-1.16-1.88-2.99-3.52-5.35-2.6-8.48 2.42-17.33 2.93-26.08 3.62-4.65-0.11-10.08-1.53-12.52-5.89-2.66-4.08-0.92-9.61 2.15-12.96 4.2-4.08 9.85-7.66 15.97-6.36 2.51 6.05 6.1 11.64 7.88 17.99 1.62-0.91 3.49-1.67 4.29-3.5-0.73-0.08-2.2-0.26-2.93-0.35-2.57-4.63-4.12-9.76-7.03-14.2-1.59-2.4-2.39-5.19-3-7.97 1.78-0.95 3.56-1.91 5.33-2.88-3.17-3.51-7.38-5.74-11.35-8.2-4.15-2.51-9.14-1.71-13.69-2.71l1.35-0.58c-1.6-1.61-3.51-2.82-5.65-3.56m-14.93 17.69c0.43 5.91 2.86 12.9 9.13 14.82 1.65-0.62 3.4-1.03 4.89-2 1.14-1.38 1.61-3.15 2.24-4.8-6.82-6.07-8.39-15.97-6.09-24.49-4.67 4.48-9.19 9.87-10.17 16.47m10.4-5.7c0.3 2.8 0.78 6.12 2.92 8.09 3.57-1.4 6.95-3.36 10.74-4.15 3.94-0.51 7.94-0.32 11.91-0.37l0.04-2.28c-4.18-1.52-8.32-3.6-12.87-3.58-4.28-0.12-9.36-1-12.74 2.29m12.13 8.81c-1.87 1.02-3.72 2.09-5.41 3.4-0.09 2.07-0.31 4.23-1.54 5.98-1.27 2.32-4.22 2.46-6.46 3.24-1.55-0.69-3.1-1.4-4.64-2.12-3.38 1.85-6.93 3.37-10.18 5.44 0.09 4.41 0.73 9.29-2.27 12.96-1.61 3.77-5.76 4.73-9.12 6.3 0.22 1.85 0.67 3.66 1.46 5.35 3.8 2.34 8.09 3.56 12.44 4.4 3.81-2.92 6.73-7.16 11.31-8.96 4.9-0.49 10.45 1.18 13.34 5.42 3.5 3.15 3.57 8.28 6.21 11.9 6.53 4.32 14.32 6.18 21.98 7.33 8.64 1.95 17.87-0.81 24.88-5.99-0.74-5.59-4.29-10.18-7.24-14.8-1.82-2.71-2.77-6.15-5.68-7.97-6.21 2.61-13.03 1.65-19.49 2.94-3.39 0.5-6.93 1.72-10.29 0.41-5.09-1.66-10.29-4.01-13.92-8.07-1.63-3.77-1.93-8.09-1.62-12.15 1.18-6.49 7.44-10.06 12.64-13.15 1.86-1.28 4.21-0.86 6.33-1.03-0.03-0.5-0.09-1.5-0.11-1.99-4.25-0.15-8.43 0.61-12.62 1.16m-25.82 8.35c-0.47 0.49-0.47 0.49 0 0 1.79-0.38 3.53-0.98 5.28-1.51-0.88-2.18-1.66-4.39-2.33-6.64-1.11 2.67-2.32 5.31-2.95 8.15m35.84 0.94c-3.15 2.34-3.18 7.79 0.06 10.05 2.79 2.32 7.48 1.4 9.21-1.79 2.22-3.13-0.86-6.4-2.3-9.15-2.32-0.26-5.05-0.84-6.97 0.89m-82.43 13.61c-7.23 7.03-9.17 17.56-9.05 27.26 1.88-1.49 3.88-3.75 6.57-2.95 2.64 0.89 1.61 4.12 0.76 6-2.05 4.14-2.75 8.8-2.31 13.38 1.86-2.35 3.75-4.84 6.46-6.29 1.51-0.83 3.72-0.78 4.53 1 0.42 3.31-1.66 6.29-1.82 9.56-0.15 2.4-0.08 4.81-0.08 7.21 3.64-1.14 7.29-2.45 10.35-4.8 2.65-2.13 6.39-2.58 8.55-5.37 5.17-6.25 9.21-13.39 12.74-20.66-2.55-0.71-5.4-1.51-6.98-3.83-2.69-4.02-2.15-10.17 1.44-13.46 2.35-0.1 5.15-0.01 6.76-2.06 1.62-2.25 2.64-5.43 1.34-8.05-3.51-3.47-8.04-6.73-13.26-5.98-9.19 0.78-18.56 3.37-26 9.04m50.53 27.24c-4.27-0.02-8.31-1.54-12.43-2.46-4.57 8.63-8.97 17.81-16.46 24.34 8.78 2.92 18 6.27 27.4 4.91 12.74-1.78 26.21-5.38 35.05-15.39-2.05-3.66-9.04-1.48-10.4-6.23-2.09-5.91-5.95-12.18-12.73-13.09-4.53 0.47-8.76 3.65-10.43 7.92z"/>
 </g>
 <g id="#f4f4f4ff">
  <path d="m82.78 5.28c2.14 0.74 4.05 1.95 5.65 3.56l-1.35 0.58c-0.21 0.08-0.64 0.25-0.85 0.34-0.78 0.12-2.33 0.36-3.11 0.48-0.11-1.65-0.22-3.31-0.34-4.96z" fill="#f4f4f4"/>
 </g>
 <g id="#ffffffff" fill="#fff">
  <path d="m67.85 22.97c0.98-6.6 5.5-11.99 10.17-16.47-2.3 8.52-0.73 18.42 6.09 24.49-0.63 1.65-1.1 3.42-2.24 4.8-1.49 0.97-3.24 1.38-4.89 2-6.27-1.92-8.7-8.91-9.13-14.82z"/>
  <path d="m100.4 35.37c1.92-1.73 4.65-1.15 6.97-0.89 1.44 2.75 4.52 6.02 2.3 9.15-1.73 3.19-6.42 4.11-9.21 1.79-3.24-2.26-3.21-7.71-0.06-10.05z"/>
 </g>
 <g id="#666666ff">
  <path d="m86.23 9.76c0.21-0.09 0.64-0.26 0.85-0.34 4.55 1 9.54 0.2 13.69 2.71 3.97 2.46 8.18 4.69 11.35 8.2-1.77 0.97-3.55 1.93-5.33 2.88 0.61 2.78 1.41 5.57 3 7.97 2.91 4.44 4.46 9.57 7.03 14.2 0.73 0.09 2.2 0.27 2.93 0.35-0.8 1.83-2.67 2.59-4.29 3.5-1.78-6.35-5.37-11.94-7.88-17.99-6.12-1.3-11.77 2.28-15.97 6.36-3.07 3.35-4.81 8.88-2.15 12.96 2.44 4.36 7.87 5.78 12.52 5.89 8.75-0.69 17.6-1.2 26.08-3.62 2.36-0.92 4.19 0.72 5.35 2.6 5.35 8.33 10.23 16.95 14.87 25.7-2.28 5.5-8.5 7.45-13.59 9.47-7.32 0.91-14.93 1.07-22.11-0.93-4.86-1.2-9.1-4.05-13.93-5.34-2.3-0.79-5.39-1.13-6.1-3.91-2.2-6.13-6.55-12.47-13.57-13.22-5.19 0-8.9 4.19-11.89 7.92-5.38-1.02-10.8-2.21-15.9-4.25-4.41-1.98-4.8-7.86-3.04-11.81 0.52-2.18 3.15-1.76 4.8-2.28 3.05-0.3 5.11-3.09 5.91-5.84 1.17-4.15-0.22-8.46 0.47-12.65 1.28-6.31 3.96-12.35 7.92-17.45 0.56 5.84-4.3 10.21-4.53 15.91 2.39-1.06 4.77-2.16 7.17-3.23 0.44 0.57 1.32 1.71 1.76 2.28-3.35 1.88-7.21 3.03-10.02 5.73-0.61 3.08 0.06 6.31-0.8 9.36-1 2.43-2.6 4.54-4.05 6.71-2.4 0.91-4.96 1.68-6.91 3.41-0.15 2.39 0.31 5.23 2.43 6.69 3.7 2.54 8.19 3.76 12.61 4.22 4.05-2.53 6.67-7.07 11.25-8.8 4.72-0.55 9.85 1.28 12.66 5.24 2.94 3.18 3.34 7.71 5.47 11.32 6.76 5.08 15.35 6.9 23.57 8.04 4.7 0.93 9.66 1.06 14.17-0.76 4-1.49 9.13-2.6 11.4-6.46-1.05-7.32-6.58-12.79-9.71-19.24-1.03-2-2.79-4.82-5.45-3.92-4.01 1.07-8.08 1.9-12.25 1.73-5.04-0.24-9.88 2.2-14.89 1.52-5.33-1.53-10.94-3.83-14.63-8.1-1.42-4.74-2.68-10.41 0.07-14.92 2.4-3.96 6.58-6.29 10.47-8.54 2.01-1.23 4.46-1.02 6.71-1.29 0.1-1.21 0.2-2.41 0.3-3.61-7.21-0.44-15.03 0.04-20.69 5.07-0.48-0.66-1.42-1.96-1.9-2.61 4.56-2.28 9.3-4.98 14.59-4.61 2.95-0.31 6.44 0.74 8.99-1.13 1.39-3.17-2.8-4.13-4.89-5.11-4.99-2.38-10.6-2.06-15.97-1.92-2.29 0.01-4.31 1.16-6.34 2.06 0.1-0.87 0.31-2.62 0.41-3.49 2.73-0.65 5.48-1.32 7.98-2.63z" fill="#666"/>
 </g>
 <g id="#b5b5b5ff" fill="#b5b5b5">
  <path d="m78.25 17.27c3.38-3.29 8.46-2.41 12.74-2.29 4.55-0.02 8.69 2.06 12.87 3.58l-0.04 2.28c-3.97 0.05-7.97-0.14-11.91 0.37-3.79 0.79-7.17 2.75-10.74 4.15-2.14-1.97-2.62-5.29-2.92-8.09z"/>
  <path d="m90.38 26.08c4.19-0.55 8.37-1.31 12.62-1.16 0.02 0.49 0.08 1.49 0.11 1.99-2.12 0.17-4.47-0.25-6.33 1.03-5.2 3.09-11.46 6.66-12.64 13.15-0.31 4.06-0.01 8.38 1.62 12.15 3.63 4.06 8.83 6.41 13.92 8.07 3.36 1.31 6.9 0.09 10.29-0.41 6.46-1.29 13.28-0.33 19.49-2.94 2.91 1.82 3.86 5.26 5.68 7.97 2.95 4.62 6.5 9.21 7.24 14.8-7.01 5.18-16.24 7.94-24.88 5.99-7.66-1.15-15.45-3.01-21.98-7.33-2.64-3.62-2.71-8.75-6.21-11.9-2.89-4.24-8.44-5.91-13.34-5.42-4.58 1.8-7.5 6.04-11.31 8.96-4.35-0.84-8.64-2.06-12.44-4.4-0.79-1.69-1.24-3.5-1.46-5.35 3.36-1.57 7.51-2.53 9.12-6.3 3-3.67 2.36-8.55 2.27-12.96 3.25-2.07 6.8-3.59 10.18-5.44 1.54 0.72 3.09 1.43 4.64 2.12 2.24-0.78 5.19-0.92 6.46-3.24 1.23-1.75 1.45-3.91 1.54-5.98 1.69-1.31 3.54-2.38 5.41-3.4z"/>
 </g>
 <g id="#aeaeaeff">
  <path d="m64.56 34.43c0.63-2.84 1.84-5.48 2.95-8.15 0.67 2.25 1.45 4.46 2.33 6.64-1.75 0.53-3.49 1.13-5.28 1.51z" fill="#aeaeae"/>
 </g>
 <g id="#9e9c9cff">
  <path d="m64.56 34.43c-0.47 0.49-0.47 0.49 0 0z" fill="#9e9c9c"/>
 </g>
 <g id="#fe0000ff" fill="#fe0000">
  <path d="m17.97 48.98c7.44-5.67 16.81-8.26 26-9.04 5.22-0.75 9.75 2.51 13.26 5.98 1.3 2.62 0.28 5.8-1.34 8.05-1.61 2.05-4.41 1.96-6.76 2.06-3.59 3.29-4.13 9.44-1.44 13.46 1.58 2.32 4.43 3.12 6.98 3.83-3.53 7.27-7.57 14.41-12.74 20.66-2.16 2.79-5.9 3.24-8.55 5.37-3.06 2.35-6.71 3.66-10.35 4.8 0-2.4-0.07-4.81 0.08-7.21 0.16-3.27 2.24-6.25 1.82-9.56-0.81-1.78-3.02-1.83-4.53-1-2.71 1.45-4.6 3.94-6.46 6.29-0.44-4.58 0.26-9.24 2.31-13.38 0.85-1.88 1.88-5.11-0.76-6-2.69-0.8-4.69 1.46-6.57 2.95-0.12-9.7 1.82-20.23 9.05-27.26z"/>
  <path d="m68.5 76.22c1.67-4.27 5.9-7.45 10.43-7.92 6.78 0.91 10.64 7.18 12.73 13.09 1.36 4.75 8.35 2.57 10.4 6.23-8.84 10.01-22.31 13.61-35.05 15.39-9.4 1.36-18.62-1.99-27.4-4.91 7.49-6.53 11.89-15.71 16.46-24.34 4.12 0.92 8.16 2.44 12.43 2.46z"/>
 </g>
</svg>
