<?xml version="1.0" encoding="UTF-8" standalone="no"?>
<!DOCTYPE svg  PUBLIC '-//W3C//DTD SVG 1.1//EN'  'http://www.w3.org/Graphics/SVG/1.1/DTD/svg11.dtd'>
<svg width="150pt" xmlns="http://www.w3.org/2000/svg" viewBox="0 0 150 116" version="1.1" height="116pt">
 <g id="#000000ff">
  <path d="m0 0h0.06c-0.02 0.01-0.05 0.04-0.06 0.06v-0.06z"/>
  <path d="m81.22 5.05c3.62-1.62 6.52 1.56 8.66 4.04 4.04-0.39 8.29 0.05 11.83 2.16 4 2.89 8.8 4.77 11.77 8.9-1.38 1.71-3.35 2.7-5.32 3.59 0.29 4.24 3.9 6.76 5.94 10.13 1.95 3.08 2.61 6.75 3.18 10.3 0.63 0.07 1.88 0.2 2.51 0.26 0.31 0.7 0.92 2.1 1.23 2.79-1.33 0.88-2.91 1.7-3.28 3.4 1.79 0.56 3.55 1.24 5.38 1.66 2.9 0.25 5.95-1.56 8.74-0.25 2.96 2.51 4.61 6.15 6.61 9.39 3.63 6.45 8.2 12.52 10.58 19.56-0.39 5.52-6.54 7.23-10.61 9.5-3.73 2.3-8.24 1.34-12.38 1.76-6.9 0.48-13.77-1.04-20.14-3.59l-0.68 0.25c-7.2 9.48-18.87 13.99-30.22 16.15-7.31 1.48-15.07 2.56-22.34 0.32-4.58-1.45-9.56-1.77-13.79-4.21-6.26-4.77-9.46-12.5-16-16.97-3.63-3.22-8.6-3.65-12.88-5.56-0.15-7.08 6.86-12.3 13.34-13.43-1.98-2.86-5.84-3.83-9.11-2.95-3.5 0.46-6.88 1.51-10.3 2.3-2.74-1.42-0.79-4.56 0.01-6.59 2.78-6.48 10.15-8.67 16.43-10.09-3.3-3.65-8.62-5.15-13.45-5.17-1.41 0.25-2.22-0.91-3.1-1.78 3.66-8.93 13.19-13.25 22.1-14.95 5.17-0.43 10.74-0.1 15.03 3.16 3.14 2.44 6.92 4.12 9.38 7.34 2.51 3.12 5.68 5.65 7.95 8.96-0.39-3.49-0.56-7.1 0.66-10.46 1.98-5.88 4.41-11.78 8.68-16.4 2.04-4.07 4.45-8.02 7.83-11.14 1.06-0.81 2.19-2.14 3.71-1.61 0.17 1.92-0.58 3.75-1.03 5.58 1.34-0.48 2.69-0.95 4.03-1.42-0.2-1.67-0.51-3.31-0.95-4.93m1.54 0.29c0.12 1.61 0.24 3.23 0.35 4.84 1.82-0.18 3.61-0.58 5.38-1.04-1.48-1.85-3.43-3.19-5.73-3.8m-14.9 17.56c0.4 5.92 2.82 12.99 9.13 14.86 1.64-0.6 3.41-0.96 4.87-1.98 1.21-1.37 1.63-3.21 2.25-4.89-6.85-5.93-8.46-15.98-6-24.38-4.76 4.37-9.24 9.84-10.25 16.39m10.42-10.55c-0.14 0.89-0.41 2.67-0.55 3.56 1.43-0.64 2.82-1.39 4.34-1.82 7.79-0.96 16.29-0.54 22.91 4.17 0.77 1.24 0.26 3.01-1.2 3.41-2.9 0.52-5.85 0.22-8.77 0.3-4.89-0.12-9.15 2.59-13.47 4.48 0.56 0.92 1.13 1.85 1.69 2.77 2.67-1.58 5.12-3.81 8.28-4.34 4.13-0.76 8.34-1.07 12.53-0.72-0.11 1.22-0.21 2.45-0.32 3.67-2.49 0.08-5.17-0.02-7.28 1.53-4.91 2.82-10.59 6.38-11.4 12.51-0.12 3.76 0.17 7.82 1.83 11.23 4.21 3.88 9.63 6.44 15.2 7.68 4.37 0.09 8.53-1.68 12.9-1.7 3.68-0.05 7.43 0 10.97-1.19 1.49-0.26 3.1-1.26 4.58-0.41 1.84 0.81 2.61 2.79 3.54 4.43 2.63 5.3 6.81 9.75 8.63 15.46 0.62 1.53 1.46 3.88-0.48 4.87-7.03 4.6-15.85 7.51-24.25 5.48-8.26-1.09-16.85-2.98-23.67-8.01-2.14-3.62-2.47-8.2-5.49-11.35-2.79-4.01-7.96-5.77-12.68-5.25-4.56 1.79-7.2 6.27-11.22 8.85-4.39-0.57-8.89-1.69-12.58-4.25-2.3-1.45-2.3-4.42-2.64-6.81 2.23-1.36 4.59-2.49 7.08-3.28 1.45-2.18 3.05-4.29 4.09-6.7 0.94-3.04 0.07-6.31 0.77-9.39 2.82-3 7.28-3.51 10.21-6.38-2.71-3-6.08 0.73-8.99 1.59-0.23-5.7 5.24-9.92 4.27-15.72-4.22 5.51-7.03 12.12-8.04 18.98 0.12 5.12 1.43 11.36-2.82 15.28-1.9 2.14-5.08 1.22-7.31 2.48-2.71 3.93-2.6 10.91 2.28 13.13 5.1 2.03 10.53 3.15 15.88 4.28 3.19-4.3 8.28-9.51 14.18-7.45 6.17 1.75 9.45 7.76 11.53 13.35 0.89 2.4 3.78 2.44 5.82 3.24 5.31 1.42 9.93 4.73 15.39 5.7 5.55 1.54 11.34 1.22 17.03 1.02 4.54 0.12 8.52-2.44 12.4-4.46 2.3-1.14 3.91-3.14 4.79-5.52-4.6-8.69-9.48-17.25-14.77-25.55-1.18-1.92-3.04-3.61-5.45-2.69-8.43 2.54-17.27 2.87-25.98 3.65-4.65-0.12-10.11-1.51-12.56-5.87-2.69-4.08-0.94-9.64 2.13-12.99 4.22-4.04 9.87-7.75 15.99-6.31 2.46 6.04 6.13 11.57 7.83 17.91 1.64-0.78 3.35-1.59 4.35-3.19-0.74-0.22-2.21-0.66-2.95-0.88-2.78-4.14-3.81-9.17-6.64-13.28-1.83-2.59-2.81-5.62-3.37-8.71 1.7-0.85 3.4-1.68 5.11-2.51-2.41-3.96-6.95-5.55-10.55-8.17-7.07-4.12-15.71-2.28-23.1-0.11m-0.02 4.97c0.38 2.76 0.7 6.17 2.96 8.03 3.56-1.41 6.94-3.38 10.73-4.16 4.03-0.52 8.1-0.22 12.14-0.44-0.12-0.55-0.37-1.64-0.49-2.19-4.3-1.88-8.8-3.76-13.59-3.62-3.96-0.15-8.73-0.8-11.75 2.38m12.14 8.78c-1.78 1.03-3.84 1.77-5.22 3.36-0.47 2.66-0.79 5.75-3.11 7.52-1.59 0.89-3.39 1.2-5.12 1.69-1.56-0.66-3.1-1.37-4.63-2.11-3.34 1.94-7 3.3-10.18 5.52 0.04 3.02 0.32 6.08-0.25 9.06-1.01 2.42-2.42 4.69-4.08 6.71-2.06 1.56-4.66 2.22-6.94 3.39 0.05 1.91 0.36 3.8 1.48 5.4 3.7 2.44 7.99 3.5 12.28 4.39 3.28-2.51 5.88-5.84 9.39-8.06 2.97-2.03 6.73-0.74 9.83 0.25 3.12 0.81 4.86 3.71 6.85 5.99 2.5 2.94 2.38 7.29 4.86 10.19 4.9 3.25 10.66 5.15 16.4 6.35 6.3 0.99 13.03 2.96 19.21 0.33 4.05-1.14 8.42-2.58 11.27-5.77-1.49-7.38-7.03-12.83-10.15-19.47-0.55-1.37-1.87-2.06-3-2.86-6.95 2.9-14.65 1.49-21.83 3.36-5.42 1.68-10.83-0.81-15.53-3.33-2.68-1.8-6.32-3.35-6.98-6.88-0.82-4.25-1.75-8.91 0.09-13.02 2.49-4.78 7.32-7.53 11.77-10.2 1.85-1.3 4.18-0.85 6.29-0.95-0.03-0.51-0.08-1.52-0.1-2.02-4.25-0.23-8.42 0.61-12.6 1.16m-25.92 8.42c-0.29 0.3-0.29 0.3 0 0 1.82-0.5 3.63-1.08 5.45-1.61-1.04-2.14-1.81-4.4-2.36-6.72-1.17 2.72-2.35 5.45-3.09 8.33m-51.94-1.1c-2.74 1.7-4.35 4.6-6.37 7.01 5.76-0.03 11.47 1.96 15.89 5.66v2.8c-3.26 2.25-7.5 2.09-10.78 4.35-3.87 1.58-5.56 5.61-6.85 9.27 4.58-1.98 9.77-2.51 14.71-2.31 2.32 0.75 6.2 1.83 5.81 4.91 0.24 2.5-2.75 2.53-4.41 3.19-4.26 1.19-6.88 5.1-8.85 8.78 4.6 1.57 9.57 2.6 13.26 6.01 6.05 4.37 9.13 11.52 14.93 16.12 3.93 2.33 8.63 2.62 12.91 4.01 7.53 2.43 15.58 1.1 23.14-0.52 10.49-2.2 21.26-6.52 27.86-15.39-3.56-1.68-7.75-1.96-11.07-4.04-2.38-4.18-3.63-9.34-7.71-12.37-2.56-1.62-5.82-3.51-8.86-2-3.23 1.41-6.47 3.68-7.5 7.23-3.71 0.37-7.22-1.24-10.8-1.91-3.96-1.11-9.06-1.8-10.91-6.05-1.68-3.9-1.16-9.37 2.29-12.16 1.63-0.07 3.35 0.08 4.86-0.68 2.51-1.05 3.05-3.98 4.08-6.21-1.75-2.32-3.24-4.87-5.4-6.86-2.81-2.58-4.8-6.02-8.14-8-3.29-2.09-6.26-4.95-10.18-5.84-7.64-1.66-15.46 0.96-21.91 5m87.94 3c-3.12 3.14-1.65 9.09 2.58 10.4 3.4 1.5 6.85-0.92 8.47-3.84-0.84-2.98-2.55-5.59-3.83-8.38-2.52-0.37-5.47-0.35-7.22 1.82z"/>
 </g>
 <g id="#f4f4f4ff">
  <path d="m82.76 5.34c2.3 0.61 4.25 1.95 5.73 3.8-1.77 0.46-3.56 0.86-5.38 1.04-0.11-1.61-0.23-3.23-0.35-4.84z" fill="#f4f4f4"/>
 </g>
 <g id="#ffffffff" fill="#fff">
  <path d="m67.86 22.9c1.01-6.55 5.49-12.02 10.25-16.39-2.46 8.4-0.85 18.45 6 24.38-0.62 1.68-1.04 3.52-2.25 4.89-1.46 1.02-3.23 1.38-4.87 1.98-6.31-1.87-8.73-8.94-9.13-14.86z"/>
  <path d="m100.48 36.42c1.75-2.17 4.7-2.19 7.22-1.82 1.28 2.79 2.99 5.4 3.83 8.38-1.62 2.92-5.07 5.34-8.47 3.84-4.23-1.31-5.7-7.26-2.58-10.4z"/>
 </g>
 <g id="#666666ff">
  <path d="m78.28 12.35c7.39-2.17 16.03-4.01 23.1 0.11 3.6 2.62 8.14 4.21 10.55 8.17-1.71 0.83-3.41 1.66-5.11 2.51 0.56 3.09 1.54 6.12 3.37 8.71 2.83 4.11 3.86 9.14 6.64 13.28 0.74 0.22 2.21 0.66 2.95 0.88-1 1.6-2.71 2.41-4.35 3.19-1.7-6.34-5.37-11.87-7.83-17.91-6.12-1.44-11.77 2.27-15.99 6.31-3.07 3.35-4.82 8.91-2.13 12.99 2.45 4.36 7.91 5.75 12.56 5.87 8.71-0.78 17.55-1.11 25.98-3.65 2.41-0.92 4.27 0.77 5.45 2.69 5.29 8.3 10.17 16.86 14.77 25.55-0.88 2.38-2.49 4.38-4.79 5.52-3.88 2.02-7.86 4.58-12.4 4.46-5.69 0.2-11.48 0.52-17.03-1.02-5.46-0.97-10.08-4.28-15.39-5.7-2.04-0.8-4.93-0.84-5.82-3.24-2.08-5.59-5.36-11.6-11.53-13.35-5.9-2.06-10.99 3.15-14.18 7.45-5.35-1.13-10.78-2.25-15.88-4.28-4.88-2.22-4.99-9.2-2.28-13.13 2.23-1.26 5.41-0.34 7.31-2.48 4.25-3.92 2.94-10.16 2.82-15.28 1.01-6.86 3.82-13.47 8.04-18.98 0.97 5.8-4.5 10.02-4.27 15.72 2.91-0.86 6.28-4.59 8.99-1.59-2.93 2.87-7.39 3.38-10.21 6.38-0.7 3.08 0.17 6.35-0.77 9.39-1.04 2.41-2.64 4.52-4.09 6.7-2.49 0.79-4.85 1.92-7.08 3.28 0.34 2.39 0.34 5.36 2.64 6.81 3.69 2.56 8.19 3.68 12.58 4.25 4.02-2.58 6.66-7.06 11.22-8.85 4.72-0.52 9.89 1.24 12.68 5.25 3.02 3.15 3.35 7.73 5.49 11.35 6.82 5.03 15.41 6.92 23.67 8.01 8.4 2.03 17.22-0.88 24.25-5.48 1.94-0.99 1.1-3.34 0.48-4.87-1.82-5.71-6-10.16-8.63-15.46-0.93-1.64-1.7-3.62-3.54-4.43-1.48-0.85-3.09 0.15-4.58 0.41-3.54 1.19-7.29 1.14-10.97 1.19-4.37 0.02-8.53 1.79-12.9 1.7-5.57-1.24-10.99-3.8-15.2-7.68-1.66-3.41-1.95-7.47-1.83-11.23 0.81-6.13 6.49-9.69 11.4-12.51 2.11-1.55 4.79-1.45 7.28-1.53 0.11-1.22 0.21-2.45 0.32-3.67-4.19-0.35-8.4-0.04-12.53 0.72-3.16 0.53-5.61 2.76-8.28 4.34-0.56-0.92-1.13-1.85-1.69-2.77 4.32-1.89 8.58-4.6 13.47-4.48 2.92-0.08 5.87 0.22 8.77-0.3 1.46-0.4 1.97-2.17 1.2-3.41-6.62-4.71-15.12-5.13-22.91-4.17-1.52 0.43-2.91 1.18-4.34 1.82 0.14-0.89 0.41-2.67 0.55-3.56z" fill="#666"/>
 </g>
 <g id="#b5b5b5ff" fill="#b5b5b5">
  <path d="m78.26 17.32c3.02-3.18 7.79-2.53 11.75-2.38 4.79-0.14 9.29 1.74 13.59 3.62 0.12 0.55 0.37 1.64 0.49 2.19-4.04 0.22-8.11-0.08-12.14 0.44-3.79 0.78-7.17 2.75-10.73 4.16-2.26-1.86-2.58-5.27-2.96-8.03z"/>
  <path d="m90.4 26.1c4.18-0.55 8.35-1.39 12.6-1.16 0.02 0.5 0.07 1.51 0.1 2.02-2.11 0.1-4.44-0.35-6.29 0.95-4.45 2.67-9.28 5.42-11.77 10.2-1.84 4.11-0.91 8.77-0.09 13.02 0.66 3.53 4.3 5.08 6.98 6.88 4.7 2.52 10.11 5.01 15.53 3.33 7.18-1.87 14.88-0.46 21.83-3.36 1.13 0.8 2.45 1.49 3 2.86 3.12 6.64 8.66 12.09 10.15 19.47-2.85 3.19-7.22 4.63-11.27 5.77-6.18 2.63-12.91 0.66-19.21-0.33-5.74-1.2-11.5-3.1-16.4-6.35-2.48-2.9-2.36-7.25-4.86-10.19-1.99-2.28-3.73-5.18-6.85-5.99-3.1-0.99-6.86-2.28-9.83-0.25-3.51 2.22-6.11 5.55-9.39 8.06-4.29-0.89-8.58-1.95-12.28-4.39-1.12-1.6-1.43-3.49-1.48-5.4 2.28-1.17 4.88-1.83 6.94-3.39 1.66-2.02 3.07-4.29 4.08-6.71 0.57-2.98 0.29-6.04 0.25-9.06 3.18-2.22 6.84-3.58 10.18-5.52 1.53 0.74 3.07 1.45 4.63 2.11 1.73-0.49 3.53-0.8 5.12-1.69 2.32-1.77 2.64-4.86 3.11-7.52 1.38-1.59 3.44-2.33 5.22-3.36z"/>
 </g>
 <g id="#aeaeaeff">
  <path d="m64.48 34.52c0.74-2.88 1.92-5.61 3.09-8.33 0.55 2.32 1.32 4.58 2.36 6.72-1.82 0.53-3.63 1.11-5.45 1.61z" fill="#aeaeae"/>
 </g>
 <g id="#fe0000ff">
  <path d="m12.54 33.42c6.45-4.04 14.27-6.66 21.91-5 3.92 0.89 6.89 3.75 10.18 5.84 3.34 1.98 5.33 5.42 8.14 8 2.16 1.99 3.65 4.54 5.4 6.86-1.03 2.23-1.57 5.16-4.08 6.21-1.51 0.76-3.23 0.61-4.86 0.68-3.45 2.79-3.97 8.26-2.29 12.16 1.85 4.25 6.95 4.94 10.91 6.05 3.58 0.67 7.09 2.28 10.8 1.91 1.03-3.55 4.27-5.82 7.5-7.23 3.04-1.51 6.3 0.38 8.86 2 4.08 3.03 5.33 8.19 7.71 12.37 3.32 2.08 7.51 2.36 11.07 4.04-6.6 8.87-17.37 13.19-27.86 15.39-7.56 1.62-15.61 2.95-23.14 0.52-4.28-1.39-8.98-1.68-12.91-4.01-5.8-4.6-8.88-11.75-14.93-16.12-3.69-3.41-8.66-4.44-13.26-6.01 1.97-3.68 4.59-7.59 8.85-8.78 1.66-0.66 4.65-0.69 4.41-3.19 0.39-3.08-3.49-4.16-5.81-4.91-4.94-0.2-10.13 0.33-14.71 2.31 1.29-3.66 2.98-7.69 6.85-9.27 3.28-2.26 7.52-2.1 10.78-4.35v-2.8c-4.42-3.7-10.13-5.69-15.89-5.66 2.02-2.41 3.63-5.31 6.37-7.01z" fill="#fe0000"/>
 </g>
 <g id="#9c9c9cff">
  <path d="m64.48 34.52c-0.29 0.3-0.29 0.3 0 0z" fill="#9c9c9c"/>
 </g>
</svg>
