<?xml version="1.0" encoding="UTF-8" standalone="no"?>
<!DOCTYPE svg  PUBLIC '-//W3C//DTD SVG 1.1//EN'  'http://www.w3.org/Graphics/SVG/1.1/DTD/svg11.dtd'>
<svg width="150pt" xmlns="http://www.w3.org/2000/svg" viewBox="0 0 150 100" version="1.1" height="100pt">
 <g id="#ffffffff" fill="#fff">
  <path d="m0 0h0.06c-0.01 0.02-0.04 0.05-0.06 0.06v-0.06z"/>
  <path d="m77.82 6.76c1.67-2.44 4.86-1.18 7.22-0.88 5.97 1.37 12.42 2.63 17.11 6.89 3.32 3.18 6.75 6.51 8.45 10.88-3.08-1.49-6.13-3.35-9.64-3.62-3.57 0.36-7.23 1.59-9.73 4.29-4.02 4.03-5.23 10.17-4.35 15.64 1.48 4.35 4.89 7.76 8.66 10.25-5.3 0.48-11.42-0.53-14.24-5.61-2.51-5.27-7.16-9.52-8.21-15.43-0.25-4.38-0.24-8.79 0.05-13.17 1-3.3 2.73-6.4 4.68-9.24z"/>
  <path d="m99.53 22.73c3.99-3 10.45 0.29 10.2 5.31 0.25 4.71-5.58 8.31-9.61 5.63-4.1-2.05-4.27-8.37-0.59-10.94z"/>
  <path d="m110.6 23.65c0.46 0.5 0.46 0.5 0 0z"/>
 </g>
 <g id="#000000ff">
  <path d="m76.65 3.7c4.26-1.36 8.7-0.05 12.87 0.97 5.31 1.32 10.76 3.13 14.72 7.09 3.76 3.71 7.65 7.63 9.55 12.67 1.52 4.34 1.86 8.97 2.27 13.52 10.2 2.69 19.16 9.23 24.99 17.98 2.83 4.12 5.72 9.24 4.27 14.38-1.1 3.91-6.07 2.11-8.59 4.47-9.33 6.88-22.66 7.1-32.68 1.55-5.23 5.59-11.41 10.45-18.68 13.05-8.19 2.79-16.73 4.93-25.44 4.9-5.66 0.36-11.04-1.71-16.47-2.94-2.97-0.69-5.78-1.91-8.45-3.37-4.53 3.55-9.84 7.03-15.77 7.14-3.02-5.97 0.1-12.91 1.2-19.06-3.62 1.63-5.93 4.88-8.72 7.53-3.26-0.4-2.74-4.23-2.75-6.6-0.08-4.83 2.26-9.15 3.6-13.66-2.73 1.15-5.18 3.25-8.28 3.18-0.94-11.12 1.15-23.5 9.69-31.39 9.07-6.79 20.82-10.07 32.09-9.25 3.27-0.06 5.68 2.46 8.29 4.05 1.93-6.66 3.08-14.19 8.33-19.2 4.11-3.23 8.97-5.48 13.96-7.01m-12.93 9.05c-3.49 3.8-5.06 8.91-6.25 13.82-1.77 6.13 1.08 12.27 0.76 18.46 0.23 11.68-6.67 21.57-12.25 31.26-2.34 4.01-5.54 7.41-8.8 10.68 5.06 1.96 10.35 3.16 15.6 4.48 5.27 1.42 10.8 0.8 16.11-0.02 9.05-1.73 18.4-3.92 25.87-9.61 3.13-2.49 6.34-5.02 8.76-8.22-0.05-1.93-0.69-3.79-1.11-5.66 0.55-3.13 0.87-6.35 2.2-9.28 0.92-2.32 2.78-4.52 1.95-7.16-6.77 0.56-13.8 1.13-20.44-0.67-5.96-2.25-8.25-8.69-11.36-13.68-3.89-6.22-4.5-13.9-3.48-21.01 0.7-4.1 3.23-7.5 5.91-10.54-4.69 1.93-9.64 3.71-13.47 7.15m14.1-5.99c-1.95 2.84-3.68 5.94-4.68 9.24-0.29 4.38-0.3 8.79-0.05 13.17 1.05 5.91 5.7 10.16 8.21 15.43 2.82 5.08 8.94 6.09 14.24 5.61-3.77-2.49-7.18-5.9-8.66-10.25-0.88-5.47 0.33-11.61 4.35-15.64 2.5-2.7 6.16-3.93 9.73-4.29 3.51 0.27 6.56 2.13 9.64 3.62-1.7-4.37-5.13-7.7-8.45-10.88-4.69-4.26-11.14-5.52-17.11-6.89-2.36-0.3-5.55-1.56-7.22 0.88m21.71 15.97c-3.68 2.57-3.51 8.89 0.59 10.94 4.03 2.68 9.86-0.92 9.61-5.63 0.25-5.02-6.21-8.31-10.2-5.31m11.07 0.92c0.46 0.5 0.46 0.5 0 0m-75.77 4.91c-7.26 1.56-14.63 3.95-20.28 8.97-6.89 7.16-8.46 17.41-8.57 26.96 2.16-1.59 5.04-4.17 7.78-2.21 1.57 2.08-0.1 4.6-0.79 6.69-1.75 3.92-2.14 8.24-2.06 12.48 2.81-2.9 6.27-8.6 10.96-6.29 0.93 2.66-0.29 5.37-0.83 7.98-0.84 3.29-0.59 6.7-0.59 10.06 6.36-1.57 11.3-6.06 17.31-8.4 6.86-5.94 10.43-14.57 14.96-22.23 5.16-8.7 4.52-19.27 2.56-28.8-1.19-1.5-2.84-2.55-4.39-3.64-4.54-3.53-10.81-2.52-16.06-1.57m81.79 14.33c-2.39 3.56-4.71 7.15-6.73 10.93-3.87 4.32-6.13 10.17-5.45 15.99 0.75 1.64 0.4 4.62 2.67 4.92 8.84 1.49 18.65 0.66 25.98-4.95-0.05-0.58-0.17-1.73-0.23-2.3 2.03 0.6 4.13 0.93 6.25 1.1 0.79-2.07 1.78-4.22 1.37-6.49-0.81-6.71-6.32-11.38-11.19-15.45-3.46-3.05-8.25-3.55-12.67-3.75z"/>
 </g>
 <g id="#fe0000ff" fill="#fe0000">
  <path d="m63.72 12.75c3.83-3.44 8.78-5.22 13.47-7.15-2.68 3.04-5.21 6.44-5.91 10.54-1.02 7.11-0.41 14.79 3.48 21.01 3.11 4.99 5.4 11.43 11.36 13.68 6.64 1.8 13.67 1.23 20.44 0.67 0.83 2.64-1.03 4.84-1.95 7.16-1.33 2.93-1.65 6.15-2.2 9.28 0.42 1.87 1.06 3.73 1.11 5.66-2.42 3.2-5.63 5.73-8.76 8.22-7.47 5.69-16.82 7.88-25.87 9.61-5.31 0.82-10.84 1.44-16.11 0.02-5.25-1.32-10.54-2.52-15.6-4.48 3.26-3.27 6.46-6.67 8.8-10.68 5.58-9.69 12.48-19.58 12.25-31.26 0.32-6.19-2.53-12.33-0.76-18.46 1.19-4.91 2.76-10.02 6.25-13.82z"/>
  <path d="m34.83 28.56c5.25-0.95 11.52-1.96 16.06 1.57 1.55 1.09 3.2 2.14 4.39 3.64 1.96 9.53 2.6 20.1-2.56 28.8-4.53 7.66-8.1 16.29-14.96 22.23-6.01 2.34-10.95 6.83-17.31 8.4 0-3.36-0.25-6.77 0.59-10.06 0.54-2.61 1.76-5.32 0.83-7.98-4.69-2.31-8.15 3.39-10.96 6.29-0.08-4.24 0.31-8.56 2.06-12.48 0.69-2.09 2.36-4.61 0.79-6.69-2.74-1.96-5.62 0.62-7.78 2.21 0.11-9.55 1.68-19.8 8.57-26.96 5.65-5.02 13.02-7.41 20.28-8.97z"/>
 </g>
 <g id="#ffff00ff">
  <path d="m116.62 42.89c4.42 0.2 9.21 0.7 12.67 3.75 4.87 4.07 10.38 8.74 11.19 15.45 0.41 2.27-0.58 4.42-1.37 6.49-2.12-0.17-4.22-0.5-6.25-1.1 0.06 0.57 0.18 1.72 0.23 2.3-7.33 5.61-17.14 6.44-25.98 4.95-2.27-0.3-1.92-3.28-2.67-4.92-0.68-5.82 1.58-11.67 5.45-15.99 2.02-3.78 4.34-7.37 6.73-10.93z" fill="#ff0"/>
 </g>
</svg>
