<?xml version="1.0" encoding="UTF-8" standalone="no"?>
<!DOCTYPE svg  PUBLIC '-//W3C//DTD SVG 1.1//EN'  'http://www.w3.org/Graphics/SVG/1.1/DTD/svg11.dtd'>
<svg width="150pt" xmlns="http://www.w3.org/2000/svg" viewBox="0 0 150 100" version="1.1" height="100pt">
 <g id="#000000ff">
  <path d="m68.49 8.56c5.3-2.91 11.27-5.83 17.49-4.67 7.51 1.47 15.66 3.15 21.21 8.85 4.24 4.34 8.81 9.01 10.05 15.18 1.04 3.61 0.71 7.43 1.67 11.06 11.97 2.98 21.87 11.69 27.75 22.35 1.7 3.49 3.21 7.86 1.15 11.53-1.28 2.35-4.41 1.11-6.36 2.33-3.09 1.74-5.92 4.01-9.34 5.1-8.5 2.43-17.96 1.85-25.75-2.51-5.93 6.97-13.98 12.2-22.84 14.58-10.35 2.88-21.59 5.64-32.16 2.25-4.5-1.45-9.51-1.7-13.55-4.37-3.8-3.24-6.83-7.25-9.77-11.26-3.72-4.11-8.07-8.22-13.66-9.45-2.06-0.86-5.36-0.92-5.86-3.58 1.69-6.44 7.49-10.94 13.83-12.32-2.37-3.42-6.77-2.71-10.36-2.58-2.8 0.02-5.36 1.23-8.02 1.93-1.31 0.57-3.35-0.65-2.92-2.14 0.82-3.31 2.37-6.57 4.79-9.02 3.89-3.21 8.81-4.62 13.61-5.84-3.79-3.57-9.13-5.46-14.33-5.12-2.19 0.02-2.69-2.76-1.5-4.24 5.86-9.34 17.72-13.83 28.42-12.86 5.52 0.36 9.64 4.3 14.05 7.15 3.52 2.49 5.88 6.22 9.03 9.12 0.35-0.04 1.07-0.13 1.43-0.18 1.52-7.97 3.94-17.47 11.94-21.29m-5.89 9.07c-2.35 4.27-3.06 9.13-4.39 13.75 1.25 6.72 2.39 13.66 1.51 20.49-0.38-0.04-1.14-0.11-1.51-0.15 0.83-5.43-0.24-10.88-0.93-16.25-0.12-1.5-1.39-2.41-2.54-3.17-4.06-2.54-6.11-7.25-10.17-9.81-2.71-1.68-5.15-3.78-7.99-5.23-3.58-1.83-7.73-1.57-11.62-1.35-7.91 1.6-16.04 5.3-20.05 12.7 5.35-0.27 10.6 1.61 14.97 4.62 1.89 1.22 1.53 4.93-0.96 5.2-3.85 0.92-7.73 2.1-10.97 4.47-2.66 2.08-3.69 5.45-5.14 8.35 6.66-2.56 15.46-4.72 21.34 0.64 1.08 4.31-3.77 4.38-6.44 5.84-3.42 1.6-5.39 4.98-7.19 8.12 4.63 1.71 9.69 2.75 13.46 6.17 6.46 4.6 9.5 12.53 16.04 17 5.21 2.28 10.94 3.03 16.37 4.63 9.56 1.53 19.09-1.3 28.22-3.87 8.5-2.39 15.29-8.3 21.48-14.33-2.22-7.18-0.17-14.93 3.83-21.09-0.42-0.44-1.25-1.32-1.67-1.76-5.42 0.63-10.92 0.48-16.35 0.15-5.03-0.29-9.13-4-11.39-8.28-2.25-4.42-5.51-8.4-6.65-13.3-1.24-3.95-0.81-8.12-0.79-12.19-0.11-4.86 2.91-8.95 5.7-12.65-6.07 2.41-13.39 4.79-16.17 11.3m14.13-4.9c-2.69 4.29-1.62 9.48-1.84 14.26-0.24 4.62 2.16 8.78 4.79 12.38 2.45 2.97 3.31 7.1 6.57 9.41 3.15 2.86 7.64 2.51 11.58 2.5-3.77-2.48-7.04-5.9-8.7-10.16-1.42-7.32 1.61-16.2 8.94-19.16 5.33-2.63 11.75-0.4 15.7 3.67-1.96-5.32-5.93-9.63-10.22-13.21-5.69-4.09-12.78-5.57-19.57-6.65-4.17-0.72-5.65 4.09-7.25 6.96m24.88 10.99c-3.64 2.9-2.91 9.34 1.49 11.1 4.42 2.35 10.11-2.04 9.17-6.9-0.55-4.86-6.94-7.42-10.66-4.2m17.42 20.17c-0.57 2.73-3.15 4.27-4.22 6.74-0.93 2.06-1.93 4.09-3.44 5.78-4.54 5.32-5.46 13.03-3.13 19.51 8.73 1.82 18.46 1.33 26.11-3.65 1.42-0.75 1.62-2.27 1.56-3.73 1.61 1.51 3.81 1.35 5.85 1.46 2.63-3.66 1.9-8.74-0.18-12.48-2.88-4.35-6.8-7.93-10.98-11-0.04-0.02-0.1-0.07-0.13-0.09-3.44-2.02-7.53-2.47-11.44-2.54z"/>
 </g>
 <g id="#fe0000ff">
  <path d="m62.6 17.63c2.78-6.51 10.1-8.89 16.17-11.3-2.79 3.7-5.81 7.79-5.7 12.65-0.02 4.07-0.45 8.24 0.79 12.19 1.14 4.9 4.4 8.88 6.65 13.3 2.26 4.28 6.36 7.99 11.39 8.28 5.43 0.33 10.93 0.48 16.35-0.15 0.42 0.44 1.25 1.32 1.67 1.76-4 6.16-6.05 13.91-3.83 21.09-6.19 6.03-12.98 11.94-21.48 14.33-9.13 2.57-18.66 5.4-28.22 3.87-5.43-1.6-11.16-2.35-16.37-4.63-6.54-4.47-9.58-12.4-16.04-17-3.77-3.42-8.83-4.46-13.46-6.17 1.8-3.14 3.77-6.52 7.19-8.12 2.67-1.46 7.52-1.53 6.44-5.84-5.88-5.36-14.68-3.2-21.34-0.64 1.45-2.9 2.48-6.27 5.14-8.35 3.24-2.37 7.12-3.55 10.97-4.47 2.49-0.27 2.85-3.98 0.96-5.2-4.37-3.01-9.62-4.89-14.97-4.62 4.01-7.4 12.14-11.1 20.05-12.7 3.89-0.22 8.04-0.48 11.62 1.35 2.84 1.45 5.28 3.55 7.99 5.23 4.06 2.56 6.11 7.27 10.17 9.81 1.15 0.76 2.42 1.67 2.54 3.17 0.69 5.37 1.76 10.82 0.93 16.25 0.37 0.04 1.13 0.11 1.51 0.15 0.88-6.83-0.26-13.77-1.51-20.49 1.33-4.62 2.04-9.48 4.39-13.75z" fill="#fe0000"/>
 </g>
 <g id="#ffffffff" fill="#fff">
  <path d="m76.73 12.73c1.6-2.87 3.08-7.68 7.25-6.96 6.79 1.08 13.88 2.56 19.57 6.65 4.29 3.58 8.26 7.89 10.22 13.21-3.95-4.07-10.37-6.3-15.7-3.67-7.33 2.96-10.36 11.84-8.94 19.16 1.66 4.26 4.93 7.68 8.7 10.16-3.94 0.01-8.43 0.36-11.58-2.5-3.26-2.31-4.12-6.44-6.57-9.41-2.63-3.6-5.03-7.76-4.79-12.38 0.22-4.78-0.85-9.97 1.84-14.26z"/>
  <path d="m101.61 23.72c3.72-3.22 10.11-0.66 10.66 4.2 0.94 4.86-4.75 9.25-9.17 6.9-4.4-1.76-5.13-8.2-1.49-11.1z"/>
 </g>
 <g id="#ffff00ff">
  <path d="m119.03 43.89c3.91 0.07 8 0.52 11.44 2.54 0.03 0.02 0.09 0.07 0.13 0.09 4.18 3.07 8.1 6.65 10.98 11 2.08 3.74 2.81 8.82 0.18 12.48-2.04-0.11-4.24 0.05-5.85-1.46 0.06 1.46-0.14 2.98-1.56 3.73-7.65 4.98-17.38 5.47-26.11 3.65-2.33-6.48-1.41-14.19 3.13-19.51 1.51-1.69 2.51-3.72 3.44-5.78 1.07-2.47 3.65-4.01 4.22-6.74z" fill="#ff0"/>
 </g>
 <g id="#8b8b54ff">
  <path d="m130.47 46.43c0.03 0.02 0.09 0.07 0.13 0.09-0.04-0.02-0.1-0.07-0.13-0.09z" fill="#8b8b54"/>
 </g>
</svg>
