<?xml version="1.0" encoding="UTF-8" standalone="no"?>
<!DOCTYPE svg  PUBLIC '-//W3C//DTD SVG 1.1//EN'  'http://www.w3.org/Graphics/SVG/1.1/DTD/svg11.dtd'>
<svg width="150pt" xmlns="http://www.w3.org/2000/svg" viewBox="0 0 150 100" version="1.1" height="100pt">
 <g id="#000000ff">
  <path d="m65.06 8.97c5.85-3.32 12.5-7.09 19.47-5.45 6.69 1.57 13.95 2.9 19.17 7.73 3.7 3.67 7.61 7.4 9.73 12.26 1.82 4.59 2.22 9.57 2.62 14.44 8.87 2.3 16.63 7.6 22.6 14.5l-0.11 0.37c3.69 4.23 7.08 9.34 7.21 15.14-0.08 2.13-1.11 5.3-3.74 5.06-4.03-0.1-6.82 3.19-10.26 4.74-4.59 2.09-9.76 2.6-14.75 2.25 0.76 1.93 2.32 5.51-0.55 6.4-3.58 1.04-6.51 3.97-10.41 3.78-3.12 0.34-6.13-0.47-9.02-1.54-2.66 1.77-4.8 4.31-7.82 5.53-4.78 2.08-10.01 3.22-15.22 3.41-4.26-0.4-8.42-1.67-12.34-3.36-3.6 0.21-7.25 0.07-10.72-1-5.34-1.57-11.11-2.16-15.84-5.33-4.33 3.57-9.43 6.56-15.06 7.31-2.65-0.78-1.76-4.12-1.93-6.19-0.25-4.34 1.51-8.39 2.42-12.55-4.04 0.74-6.07 4.67-8.73 7.36-3.51-1.02-2.82-5.02-2.75-7.84 0.01-4.4 2.32-8.25 3.48-12.38-3.1-0.29-5.26 4.75-8.13 2.22-1.17-10.9 1.34-22.97 9.58-30.71 9.34-6.97 21.44-10.26 33.02-9.19 2.95 0.22 5.06 2.66 7.41 4.18 2.03-7.54 3.41-16.71 10.67-21.14m-1.33 3.74c-3.81 4.24-5.41 9.95-6.58 15.41-1.1 4.67 0.94 9.25 0.96 13.91 0.47 4.7-0.15 9.39-1.37 13.93 4.87-0.3 8.9 2.8 12.23 5.98 0.9 1.06 1.82 2.11 2.73 3.17 0.39-2.01 0.8-4.03 1.55-5.94 1.72-5.23 7.56-7.57 12.58-8.25-6.06-2.96-8.35-9.55-11.71-14.89-3.39-6.01-3.73-13.21-2.85-19.91 0.71-3.98 3.12-7.29 5.64-10.33-4.64 1.72-9.39 3.65-13.18 6.92m13.2-4.71c-1.82 3.45-4.35 6.91-3.97 11.01 0.16 5.06-0.87 10.54 1.87 15.11 2.21 3.75 4.81 7.25 6.87 11.09 2.96 4.68 8.78 5.37 13.83 4.98-3.59-2.29-6.65-5.46-8.38-9.39-2.22-8.01 1.99-18.29 10.65-20.2 4.86-1.62 9.71 1.17 13.51 3.98-1.84-3.91-4.5-7.35-7.61-10.32-5.56-6.05-14.11-7.5-21.8-8.89-2.11-0.59-4.07 0.8-4.97 2.63m22.65 14.7c-3.75 2.56-3.56 8.95 0.58 11.01 4.04 2.6 9.84-0.98 9.57-5.7 0.23-4.99-6.16-8.27-10.15-5.31m-67.34 6.5c-6.41 1.41-12.69 3.99-17.7 8.31-6.87 7.24-8.54 17.52-8.51 27.14 1.99-1.85 5.01-4.36 7.74-2.34 1.55 2.06 0.02 4.59-0.79 6.63-1.81 3.89-2.21 8.25-1.97 12.49 1.38-1.69 2.82-3.34 4.35-4.9 1.86-1.23 4.26-3.07 6.45-1.37 1.05 2.35 0 4.85-0.6 7.17-1.1 3.5-0.75 7.2-0.74 10.81 3.73-1.23 7.54-2.52 10.64-5.02 1.39-1.19 3.03-2.03 4.85-2.35 2-2.27 4.17-4.39 6.22-6.63 2.26-2.45 1.75-6.4 4.36-8.63 1.61-1.49 2.76-3.37 3.73-5.33-1.93-0.13-3.86-0.31-5.69-0.95 1.8-4.21 5.84-6.63 10.12-7.73 1.66-4.98 2.84-10.34 1.58-15.55-0.79-3.19 0.47-7.54-3.21-9.21-5.52-5.53-13.96-4.42-20.83-2.54m84.12 13.75c-0.74 2.77-3.35 4.42-4.36 7.06-0.94 2.23-2.25 4.26-3.82 6.1-3.11 3.55-3.55 8.45-4.12 12.94 3.8 1.31 6.9 3.85 10.04 6.25 6.69 0.32 13.65-1.38 18.96-5.59-0.01-0.61-0.03-1.85-0.03-2.47 1.79 1.17 3.93 1.19 5.99 1.25 0.97-1.98 1.89-4.12 1.46-6.37-0.76-6.7-6.28-11.35-11.11-15.42-3.55-3.13-8.47-3.71-13.01-3.75m-28.78 8.33c-0.35 1.71 4.23 1.16 3-0.42-0.75 0.1-2.25 0.31-3 0.42m11.67 0.65c-2.65 0.13-5.55-0.59-7.95 0.87 6.12 1.1 10.99 7.16 11.2 13.32 0.71-3.26 1.37-6.61 3.06-9.53 0.73-1.47 2.25-3.3 0.86-4.87-2.39-0.17-4.78 0.39-7.17 0.21m-24.87 7.4c-2.72 5.12-0.3 10.84-0.78 16.24-0.64-3.02-1.03-6.09-1.64-9.11-3.78-3.27-6.9-7.75-11.97-9.08-5.37-0.84-10.92 1.84-14.08 6.17 2.84 0.28 5.85 0.8 8.03 2.79 1.53 2.39-2.16 2.37-3.53 3.09-2.81 0.56-4.26 3.17-5.65 5.39 3.4-0.8 9.73-2.73 11.24 1.8-2.85 1.29-5.74 2.68-7.28 5.6 3.05 1.04 6.25 2.14 8.47 4.61 2.8 2.8 4.61 7.13 8.85 8 10.53 3.68 23 0.44 30.68-7.6-1.46-3.89 0.42-7.75 1.74-11.38-3.44 0.07-6.97 0.56-10.34-0.35-3.29-1.03-4.62-4.53-6.23-7.24-2.86-4.92-2.5-11.39 0.97-15.92-3.27 1.66-7.32 3.08-8.48 6.99m6.58 2.7c-0.29 4.07 2.75 7.19 4.64 10.5 1.35 2.4 4.25 2.72 6.73 2.58-1.94-1.93-4.74-3.97-4.32-7.08-0.19-3.37 1.98-6.66 5.08-7.93 2.72-0.83 5.35 0.48 7.7 1.73-2.03-2.48-3.73-5.5-6.67-7.04-2.89-1.46-6.1-2.29-9.3-2.64-3.14 2.06-4.19 6.29-3.86 9.88m13.5 4.33c3.04 2.71 7-1.98 4.6-4.97-0.75-0.25-2.25-0.75-3-1.01-2.62 0.71-4.09 4.2-1.6 5.98m-43.18 0.54c0.11 3.34 3.01-1.55 0 0m52.26 4.17c-1.98 2.96-4.05 5.88-5.66 9.06-1.07 2.24-1.45 5.36 0.26 7.36 4.73 0.88 10.59 0.6 13.93-3.36 0.75-0.01 2.26-0.04 3.01-0.06 1.49-6.71-5.41-12.35-11.54-13m-56.87 4.54c-2.85 3.97-5.63 8.02-9.24 11.36 7.3 2.67 14.94 4.89 22.73 5.45-2.69-4.4-6.72-8.36-12.08-8.99-0.44-4 3.59-6.19 6.74-7.46-2.37-1.46-5.66-1.38-8.15-0.36z"/>
 </g>
 <g id="#fe0000ff" fill="#fe0000">
  <path d="m63.73 12.71c3.79-3.27 8.54-5.2 13.18-6.92-2.52 3.04-4.93 6.35-5.64 10.33-0.88 6.7-0.54 13.9 2.85 19.91 3.36 5.34 5.65 11.93 11.71 14.89-5.02 0.68-10.86 3.02-12.58 8.25-0.75 1.91-1.16 3.93-1.55 5.94-0.91-1.06-1.83-2.11-2.73-3.17-3.33-3.18-7.36-6.28-12.23-5.98 1.22-4.54 1.84-9.23 1.37-13.93-0.02-4.66-2.06-9.24-0.96-13.91 1.17-5.46 2.77-11.17 6.58-15.41z"/>
  <path d="m32.24 29.2c6.87-1.88 15.31-2.99 20.83 2.54 3.68 1.67 2.42 6.02 3.21 9.21 1.26 5.21 0.08 10.57-1.58 15.55-4.28 1.1-8.32 3.52-10.12 7.73 1.83 0.64 3.76 0.82 5.69 0.95-0.97 1.96-2.12 3.84-3.73 5.33-2.61 2.23-2.1 6.18-4.36 8.63-2.05 2.24-4.22 4.36-6.22 6.63-1.82 0.32-3.46 1.16-4.85 2.35-3.1 2.5-6.91 3.79-10.64 5.02-0.01-3.61-0.36-7.31 0.74-10.81 0.6-2.32 1.65-4.82 0.6-7.17-2.19-1.7-4.59 0.14-6.45 1.37-1.53 1.56-2.97 3.21-4.35 4.9-0.24-4.24 0.16-8.6 1.97-12.49 0.81-2.04 2.34-4.57 0.79-6.63-2.73-2.02-5.75 0.49-7.74 2.34-0.03-9.62 1.64-19.9 8.51-27.14 5.01-4.32 11.29-6.9 17.7-8.31z"/>
  <path d="m99.25 51.93c2.39 0.18 4.78-0.38 7.17-0.21 1.39 1.57-0.13 3.4-0.86 4.87-1.69 2.92-2.35 6.27-3.06 9.53-0.21-6.16-5.08-12.22-11.2-13.32 2.4-1.46 5.3-0.74 7.95-0.87z"/>
  <path d="m74.38 59.33c1.16-3.91 5.21-5.33 8.48-6.99-3.47 4.53-3.83 11-0.97 15.92 1.61 2.71 2.94 6.21 6.23 7.24 3.37 0.91 6.9 0.42 10.34 0.35-1.32 3.63-3.2 7.49-1.74 11.38-7.68 8.04-20.15 11.28-30.68 7.6-4.24-0.87-6.05-5.2-8.85-8-2.22-2.47-5.42-3.57-8.47-4.61 1.54-2.92 4.43-4.31 7.28-5.6-1.51-4.53-7.84-2.6-11.24-1.8 1.39-2.22 2.84-4.83 5.65-5.39 1.37-0.72 5.06-0.7 3.53-3.09-2.18-1.99-5.19-2.51-8.03-2.79 3.16-4.33 8.71-7.01 14.08-6.17 5.07 1.33 8.19 5.81 11.97 9.08 0.61 3.02 1 6.09 1.64 9.11 0.48-5.4-1.94-11.12 0.78-16.24z"/>
  <path d="m46.67 75.61c2.49-1.02 5.78-1.1 8.15 0.36-3.15 1.27-7.18 3.46-6.74 7.46 5.36 0.63 9.39 4.59 12.08 8.99-7.79-0.56-15.43-2.78-22.73-5.45 3.61-3.34 6.39-7.39 9.24-11.36z"/>
 </g>
 <g id="#ffffffff" fill="#fff">
  <path d="m76.93 8c0.9-1.83 2.86-3.22 4.97-2.63 7.69 1.39 16.24 2.84 21.8 8.89 3.11 2.97 5.77 6.41 7.61 10.32-3.8-2.81-8.65-5.6-13.51-3.98-8.66 1.91-12.87 12.19-10.65 20.2 1.73 3.93 4.79 7.1 8.38 9.39-5.05 0.39-10.87-0.3-13.83-4.98-2.06-3.84-4.66-7.34-6.87-11.09-2.74-4.57-1.71-10.05-1.87-15.11-0.38-4.1 2.15-7.56 3.97-11.01z"/>
  <path d="m99.58 22.7c3.99-2.96 10.38 0.32 10.15 5.31 0.27 4.72-5.53 8.3-9.57 5.7-4.14-2.06-4.33-8.45-0.58-11.01z"/>
  <path d="m80.96 62.03c-0.33-3.59 0.72-7.82 3.86-9.88 3.2 0.35 6.41 1.18 9.3 2.64 2.94 1.54 4.64 4.56 6.67 7.04-2.35-1.25-4.98-2.56-7.7-1.73-3.1 1.27-5.27 4.56-5.08 7.93-0.42 3.11 2.38 5.15 4.32 7.08-2.48 0.14-5.38-0.18-6.73-2.58-1.89-3.31-4.93-6.43-4.64-10.5z"/>
  <path d="m94.46 66.36c-2.49-1.78-1.02-5.27 1.6-5.98 0.75 0.26 2.25 0.76 3 1.01 2.4 2.99-1.56 7.68-4.6 4.97z"/>
 </g>
 <g id="#ffff00ff" fill="#ff0">
  <path d="m116.36 42.95c4.54 0.04 9.46 0.62 13.01 3.75 4.83 4.07 10.35 8.72 11.11 15.42 0.43 2.25-0.49 4.39-1.46 6.37-2.06-0.06-4.2-0.08-5.99-1.25 0 0.62 0.02 1.86 0.03 2.47-5.31 4.21-12.27 5.91-18.96 5.59-3.14-2.4-6.24-4.94-10.04-6.25 0.57-4.49 1.01-9.39 4.12-12.94 1.57-1.84 2.88-3.87 3.82-6.1 1.01-2.64 3.62-4.29 4.36-7.06z"/>
  <path d="m103.54 71.07c6.13 0.65 13.03 6.29 11.54 13-0.75 0.02-2.26 0.05-3.01 0.06-3.34 3.96-9.2 4.24-13.93 3.36-1.71-2-1.33-5.12-0.26-7.36 1.61-3.18 3.68-6.1 5.66-9.06z"/>
 </g>
 <g id="#640000ff">
  <path d="m87.58 51.28c0.75-0.11 2.25-0.32 3-0.42 1.23 1.58-3.35 2.13-3 0.42z" fill="#640000"/>
 </g>
 <g id="#c20000ff">
  <path d="m51.28 66.9c3.01-1.55 0.11 3.34 0 0z" fill="#c20000"/>
 </g>
</svg>
