<?xml version="1.0" encoding="UTF-8" standalone="no"?>
<!DOCTYPE svg  PUBLIC '-//W3C//DTD SVG 1.1//EN'  'http://www.w3.org/Graphics/SVG/1.1/DTD/svg11.dtd'>
<svg width="150pt" xmlns="http://www.w3.org/2000/svg" viewBox="0 0 150 100" version="1.1" height="100pt">
 <g id="#000000ff">
  <path d="m0 0h0.06l-0.06 0.06v-0.06z"/>
  <path d="m77.43 4.52c6.37-2.13 12.97 0.22 19.13 1.96 7.86 2.19 13.52 8.57 18.04 15 3.53 5.17 3.13 11.63 4.3 17.5 11.96 2.96 21.86 11.67 27.74 22.31 1.69 3.48 3.24 7.84 1.19 11.51-0.63 1.54-2.42 1.53-3.8 1.75-2.97 0.13-5.13 2.43-7.63 3.74-5.05 3.19-11.24 3.4-17.03 3.45 0.34 1.75 0.54 3.55-0.26 5.21-3.68 0.29-6.34 3.41-10.04 3.64-3.49 0.71-7-0.28-10.15-1.73-5.16 6.08-13.22 8.38-20.87 9.06-5.17 0.56-9.93-2.97-15.11-1.7-2.21 0.81-4.37 1.89-6.78 2-0.11-0.68-0.33-2.02-0.44-2.69-4.27-0.73-8.4-2.05-12.61-3.01-7.26-1.59-11.06-8.65-15.43-13.96-3.66-3.92-7.86-7.84-13.27-9.02-2.08-0.86-5.3-0.92-5.91-3.56 1.69-6.45 7.51-10.96 13.86-12.36-2.41-3.41-6.84-2.7-10.45-2.57-2.76 0.04-5.3 1.24-7.93 1.92-1.68 0.7-3.7-1.12-2.79-2.83 0.97-3.03 2.36-6.07 4.66-8.33 3.89-3.2 8.81-4.63 13.61-5.82-3.81-3.59-9.15-5.45-14.37-5.15-2.21 0.04-2.63-2.81-1.45-4.25 5.85-9.31 17.68-13.79 28.35-12.84 5.07 0.31 9 3.7 13.01 6.41 4.46 2.8 7.25 7.43 11.17 10.85 1.52-6.93 3.12-14.4 8.2-19.69 3.88-3.03 8.43-5.18 13.06-6.8m-5.91 4.89c-2.48 1.46-5.37 2.59-7.03 5.07-3.55 5.07-5.07 11.23-6.15 17.23 1.6 4.95 1.21 10.18 1.79 15.28-0.13 1.89 0.39 4.77-2.03 5.37 0.52-6.06 0.2-12.29-1.21-18.19-2.55-2.05-5.19-4.01-7.14-6.67-3.04-4.14-7.64-6.58-11.75-9.47-3.84-2.54-8.64-2.45-13.05-2.11-7.9 1.59-16.03 5.29-20.04 12.69 5.36-0.26 10.61 1.61 14.97 4.62 1.34 0.88 0.98 2.66 1.35 4-3.56 2.08-7.91 2.18-11.39 4.47-3.88 1.75-5.37 6-7.05 9.57 6.69-2.61 15.55-4.74 21.42 0.68 0.91 4.26-3.83 4.31-6.49 5.77-3.43 1.6-5.41 4.99-7.2 8.16 4.42 1.63 9.24 2.56 12.91 5.72 6.56 4.5 9.73 12.23 15.97 17.06 3.83 2.24 8.4 2.49 12.53 3.94-1.14-3.45 0.03-6.96 1.29-10.18-1.32 0.57-2.56 1.43-4.02 1.61-1.05-6.95 1.54-15.37 8.55-18.18 5.12-1.98 11.57-4.03 16.44-0.38 0.91-3.24 1.49-6.88 4.01-9.33 2.72-2.34 6.21-3.6 9.71-4.2-6.11-3.03-8.38-9.72-11.8-15.11-3.18-5.38-3.38-11.78-3.04-17.85-0.08-4.58 2.54-8.6 5.33-12.02-2.52-0.09-4.71 1.37-6.88 2.45m5.22 3.3c-2.7 4.31-1.63 9.53-1.85 14.33-0.23 4.6 2.16 8.74 4.78 12.33 2.46 2.97 3.32 7.1 6.59 9.42 3.15 2.85 7.63 2.5 11.57 2.49-3.76-2.48-7.02-5.87-8.68-10.11-1.46-7.32 1.57-16.22 8.89-19.2 5.37-2.67 11.75-0.37 15.77 3.65-2.05-5.3-5.97-9.66-10.31-13.23-5.68-4.06-12.75-5.55-19.53-6.62-4.15-0.72-5.64 4.08-7.23 6.94m24.84 11.03c-3.62 2.93-2.86 9.34 1.54 11.09 4.41 2.33 10.08-2.05 9.15-6.9-0.53-4.87-6.98-7.45-10.69-4.19m17.47 20.14c-0.64 2.73-3.18 4.33-4.28 6.83-0.97 2.25-2.2 4.38-3.81 6.23-3.13 3.61-3.81 8.55-4.19 13.13 3.71 1.54 7.04 3.88 9.62 6.98 6.22-0.3 12.74-1.17 17.98-4.8 1.41-0.73 1.59-2.25 1.54-3.68 1.65 1.44 3.83 1.34 5.88 1.42 1.13-1.77 1.86-3.82 1.62-5.95-0.29-7.87-7.24-13.08-12.87-17.56l-0.12-0.08c-3.43-2-7.49-2.43-11.37-2.52m-32.57 9.56c-2.45 2.51-3.65 6.1-3.27 9.58-0.1 3.9 2.7 6.92 4.54 10.09 1.47 2.5 4.62 2.8 7.21 3.07-1.09-1-2.28-1.92-3.22-3.08-2.76-3.16-1.55-8.37 1.49-10.91 2.51-2.18 6.15-1.14 9.05-0.51-3.45-5.27-9.52-8.58-15.8-8.24m5.59-0.63c6.85 1.77 11.9 7.7 13.13 14.56 0.41-4.7 2.4-8.92 4.52-13.04-0.34-0.45-1.02-1.35-1.36-1.79-5.39 0.83-10.87 0.4-16.29 0.27m-15.18 7.33c-3.35 6.21 1.02 13.45-2.08 19.74-2.46 5.06-5.11 10.16-9.04 14.25 3.57 1.36 7.31 2.57 11.15 2.72 8.09-0.38 16.6-2.94 21.95-9.38-1.99-3.75 0.71-7.45 1.66-11.04-3.54-0.01-7.17 0.54-10.63-0.38-2.69-1.21-3.97-4.09-5.43-6.46-2.93-4.9-2.96-11.66 0.74-16.18-3.2 1.57-7.22 2.88-8.32 6.73m19.32 2.25c-2.95 3.06 2.09 7.74 4.77 4.44 3.14-2.83-2.06-7.67-4.77-4.44m-39.54 5.3c-5.43 2.83-6.63 9.53-6.81 15.08 1.24-0.75 3.98-2.59 4.31 0.06-0.81 2.72-1.65 5.42-2.1 8.23 1.86-1.41 3.59-3.39 6.15-3.27-0.36 3.19-1.42 6.29-1.29 9.53 4.69-1.57 9.55-3.99 11.96-8.55 2.75-4.93 6.56-9.84 6.36-15.77-0.17-2.6 0.09-6.1-2.82-7.3-5.02-2.48-11.07-0.4-15.76 1.99m48.74 4.22c-2.8 4.92-8.06 9.8-5.72 16 4.6 0.84 9.54 0.51 13.59-2.01-0.04-0.45-0.12-1.34-0.16-1.79 1.15 0.65 2.39 0.97 3.72 0.96-0.01-1.86 0.52-3.88-0.24-5.64-2.5-3.92-6.33-7.33-11.19-7.52m-53.4 21.03c1.33 0.14 2.66 0.29 3.98 0.44 0.5-1.58 0.93-3.18 1.18-4.82-1.83 1.33-3.5 2.85-5.16 4.38z"/>
 </g>
 <g id="#fe0000ff" fill="#fe0000">
  <path d="m71.52 9.41c2.17-1.08 4.36-2.54 6.88-2.45-2.79 3.42-5.41 7.44-5.33 12.02-0.34 6.07-0.14 12.47 3.04 17.85 3.42 5.39 5.69 12.08 11.8 15.11-3.5 0.6-6.99 1.86-9.71 4.2-2.52 2.45-3.1 6.09-4.01 9.33-4.87-3.65-11.32-1.6-16.44 0.38-7.01 2.81-9.6 11.23-8.55 18.18 1.46-0.18 2.7-1.04 4.02-1.61-1.26 3.22-2.43 6.73-1.29 10.18-4.13-1.45-8.7-1.7-12.53-3.94-6.24-4.83-9.41-12.56-15.97-17.06-3.67-3.16-8.49-4.09-12.91-5.72 1.79-3.17 3.77-6.56 7.2-8.16 2.66-1.46 7.4-1.51 6.49-5.77-5.87-5.42-14.73-3.29-21.42-0.68 1.68-3.57 3.17-7.82 7.05-9.57 3.48-2.29 7.83-2.39 11.39-4.47-0.37-1.34-0.01-3.12-1.35-4-4.36-3.01-9.61-4.88-14.97-4.62 4.01-7.4 12.14-11.1 20.04-12.69 4.41-0.34 9.21-0.43 13.05 2.11 4.11 2.89 8.71 5.33 11.75 9.47 1.95 2.66 4.59 4.62 7.14 6.67 1.41 5.9 1.73 12.13 1.21 18.19 2.42-0.6 1.9-3.48 2.03-5.37-0.58-5.1-0.19-10.33-1.79-15.28 1.08-6 2.6-12.16 6.15-17.23 1.66-2.48 4.55-3.61 7.03-5.07z"/>
  <path d="m92.07 52.81c5.42 0.13 10.9 0.56 16.29-0.27 0.34 0.44 1.02 1.34 1.36 1.79-2.12 4.12-4.11 8.34-4.52 13.04-1.23-6.86-6.28-12.79-13.13-14.56z"/>
  <path d="m76.89 60.14c1.1-3.85 5.12-5.16 8.32-6.73-3.7 4.52-3.67 11.28-0.74 16.18 1.46 2.37 2.74 5.25 5.43 6.46 3.46 0.92 7.09 0.37 10.63 0.38-0.95 3.59-3.65 7.29-1.66 11.04-5.35 6.44-13.86 9-21.95 9.38-3.84-0.15-7.58-1.36-11.15-2.72 3.93-4.09 6.58-9.19 9.04-14.25 3.1-6.29-1.27-13.53 2.08-19.74z"/>
  <path d="m56.67 67.69c4.69-2.39 10.74-4.47 15.76-1.99 2.91 1.2 2.65 4.7 2.82 7.3 0.2 5.93-3.61 10.84-6.36 15.77-2.41 4.56-7.27 6.98-11.96 8.55-0.13-3.24 0.93-6.34 1.29-9.53-2.56-0.12-4.29 1.86-6.15 3.27 0.45-2.81 1.29-5.51 2.1-8.23-0.33-2.65-3.07-0.81-4.31-0.06 0.18-5.55 1.38-12.25 6.81-15.08z"/>
 </g>
 <g id="#ffffffff" fill="#fff">
  <path d="m76.74 12.71c1.59-2.86 3.08-7.66 7.23-6.94 6.78 1.07 13.85 2.56 19.53 6.62 4.34 3.57 8.26 7.93 10.31 13.23-4.02-4.02-10.4-6.32-15.77-3.65-7.32 2.98-10.35 11.88-8.89 19.2 1.66 4.24 4.92 7.63 8.68 10.11-3.94 0.01-8.42 0.36-11.57-2.49-3.27-2.32-4.13-6.45-6.59-9.42-2.62-3.59-5.01-7.73-4.78-12.33 0.22-4.8-0.85-10.02 1.85-14.33z"/>
  <path d="m101.58 23.74c3.71-3.26 10.16-0.68 10.69 4.19 0.93 4.85-4.74 9.23-9.15 6.9-4.4-1.75-5.16-8.16-1.54-11.09z"/>
  <path d="m86.48 53.44c6.28-0.34 12.35 2.97 15.8 8.24-2.9-0.63-6.54-1.67-9.05 0.51-3.04 2.54-4.25 7.75-1.49 10.91 0.94 1.16 2.13 2.08 3.22 3.08-2.59-0.27-5.74-0.57-7.21-3.07-1.84-3.17-4.64-6.19-4.54-10.09-0.38-3.48 0.82-7.07 3.27-9.58z"/>
  <path d="m96.21 62.39c2.71-3.23 7.91 1.61 4.77 4.44-2.68 3.3-7.72-1.38-4.77-4.44z"/>
 </g>
 <g id="#ffff00ff" fill="#ff0">
  <path d="m119.05 43.88c3.88 0.09 7.94 0.52 11.37 2.52l0.12 0.08c5.63 4.48 12.58 9.69 12.87 17.56 0.24 2.13-0.49 4.18-1.62 5.95-2.05-0.08-4.23 0.02-5.88-1.42 0.05 1.43-0.13 2.95-1.54 3.68-5.24 3.63-11.76 4.5-17.98 4.8-2.58-3.1-5.91-5.44-9.62-6.98 0.38-4.58 1.06-9.52 4.19-13.13 1.61-1.85 2.84-3.98 3.81-6.23 1.1-2.5 3.64-4.1 4.28-6.83z"/>
  <path d="m105.41 71.91c4.86 0.19 8.69 3.6 11.19 7.52 0.76 1.76 0.23 3.78 0.24 5.64-1.33 0.01-2.57-0.31-3.72-0.96 0.04 0.45 0.12 1.34 0.16 1.79-4.05 2.52-8.99 2.85-13.59 2.01-2.34-6.2 2.92-11.08 5.72-16z"/>
 </g>
 <g id="#8b8b54ff">
  <path d="m130.42 46.4l0.12 0.08-0.12-0.08z" fill="#8b8b54"/>
 </g>
 <g id="#e50000ff">
  <path d="m52.01 92.94c1.66-1.53 3.33-3.05 5.16-4.38-0.25 1.64-0.68 3.24-1.18 4.82-1.32-0.15-2.65-0.3-3.98-0.44z" fill="#e50000"/>
 </g>
</svg>
