<?xml version="1.0" encoding="UTF-8" ?>
<!DOCTYPE svg PUBLIC "-//W3C//DTD SVG 1.1//EN" "http://www.w3.org/Graphics/SVG/1.1/DTD/svg11.dtd">
<svg width="128pt" height="128pt" viewBox="0 0 128 128" version="1.1" xmlns="http://www.w3.org/2000/svg">
<g id="#8cd31efc">
<path fill="#8cd31e" opacity="1.00" d=" M 97.77 25.77 C 101.19 22.91 103.63 18.48 108.05 17.01 C 112.73 17.49 115.38 22.47 118.80 25.20 C 121.76 28.52 127.69 33.22 123.80 37.81 C 117.31 43.53 111.79 50.76 105.03 55.94 C 94.30 53.91 83.29 56.13 72.57 54.08 C 75.74 50.71 79.27 47.63 81.94 43.82 C 74.99 48.01 70.24 54.99 64.10 60.27 C 63.79 59.96 63.16 59.36 62.84 59.06 C 74.65 48.43 85.43 36.05 97.77 25.77 M 106.30 20.28 C 98.64 25.66 92.39 33.27 85.91 40.02 C 86.37 39.96 87.31 39.84 87.77 39.78 C 94.65 33.71 100.03 25.63 108.00 20.99 C 113.87 23.36 116.87 29.68 122.02 33.10 C 120.57 27.61 113.98 24.78 110.77 20.16 L 106.30 20.28 Z" />
</g>
<g id="#c5f498ff">
<path fill="#c5f498" opacity="1.00" d=" M 106.30 20.28 L 110.77 20.16 C 113.98 24.78 120.57 27.61 122.02 33.10 C 116.87 29.68 113.87 23.36 108.00 20.99 C 100.03 25.63 94.65 33.71 87.77 39.78 C 87.31 39.84 86.37 39.96 85.91 40.02 C 92.39 33.27 98.64 25.66 106.30 20.28 Z" />
</g>
<g id="#84c62df0">
<path fill="#84c62d" opacity="0.94" d=" M 17.30 45.32 C 20.26 42.64 23.90 45.72 26.35 47.60 C 34.74 53.85 42.39 61.18 51.27 66.73 C 56.40 67.73 58.89 61.23 62.84 59.06 C 63.16 59.36 63.79 59.96 64.10 60.27 C 63.26 61.59 60.58 62.68 61.95 64.46 C 60.53 66.02 59.04 67.54 57.27 68.69 C 54.29 68.16 50.96 69.52 48.34 67.64 C 39.80 60.83 31.38 53.85 22.62 47.33 C 21.19 47.25 14.38 46.66 16.66 50.20 C 16.25 50.75 15.82 51.29 15.36 51.81 C 12.54 52.65 7.60 55.71 8.65 59.21 C 7.92 60.53 7.14 61.84 6.29 63.09 C 5.98 61.61 5.71 60.13 5.34 58.67 C 9.10 54.57 12.87 49.28 17.30 45.32 Z" />
</g>
<g id="#c4f299ff">
<path fill="#c4f299" opacity="1.00" d=" M 64.10 60.27 C 70.24 54.99 74.99 48.01 81.94 43.82 C 79.27 47.63 75.74 50.71 72.57 54.08 C 68.97 57.48 65.51 61.02 61.95 64.46 C 60.58 62.68 63.26 61.59 64.10 60.27 Z" />
</g>
<g id="#c4f29bff">
<path fill="#c4f29b" opacity="1.00" d=" M 16.66 50.20 C 14.38 46.66 21.19 47.25 22.62 47.33 C 31.38 53.85 39.80 60.83 48.34 67.64 C 50.96 69.52 54.29 68.16 57.27 68.69 C 56.08 69.57 54.92 70.51 53.74 71.41 C 53.11 71.38 51.84 71.32 51.21 71.29 C 41.67 64.83 33.23 56.90 23.96 50.07 C 21.97 48.38 18.36 47.97 16.66 50.20 Z" />
</g>
<g id="#80ca24fe">
<path fill="#80ca24" opacity="1.00" d=" M 16.66 50.20 C 18.36 47.97 21.97 48.38 23.96 50.07 C 33.23 56.90 41.67 64.83 51.21 71.29 C 47.05 74.37 41.66 71.25 37.01 72.01 C 29.68 72.12 22.17 71.15 14.99 73.10 C 10.49 70.85 6.68 67.35 3.21 63.74 C 2.61 61.94 3.66 59.44 5.34 58.67 C 5.71 60.13 5.98 61.61 6.29 63.09 C 7.14 61.84 7.92 60.53 8.65 59.21 C 10.86 56.72 13.24 54.38 15.36 51.81 C 15.82 51.29 16.25 50.75 16.66 50.20 Z" />
<path fill="#80ca24" opacity="1.00" d=" M 61.95 64.46 C 65.51 61.02 68.97 57.48 72.57 54.08 C 83.29 56.13 94.30 53.91 105.03 55.94 C 98.72 61.18 93.36 67.81 87.06 73.13 C 76.06 71.01 64.73 73.09 53.74 71.41 C 54.92 70.51 56.08 69.57 57.27 68.69 C 59.04 67.54 60.53 66.02 61.95 64.46 Z" />
</g>
<g id="#c1f195ff">
<path fill="#c1f195" opacity="1.00" d=" M 8.65 59.21 C 7.60 55.71 12.54 52.65 15.36 51.81 C 13.24 54.38 10.86 56.72 8.65 59.21 Z" />
</g>
<g id="#75bf2afd">
<path fill="#75bf2a" opacity="1.00" d=" M 51.21 71.29 C 51.84 71.32 53.11 71.38 53.74 71.41 C 64.73 73.09 76.06 71.01 87.06 73.13 C 82.75 78.43 77.28 82.74 72.07 87.06 C 59.02 86.97 45.97 86.99 32.93 87.03 C 26.85 82.61 20.31 78.24 14.99 73.10 C 22.17 71.15 29.68 72.12 37.01 72.01 C 41.66 71.25 47.05 74.37 51.21 71.29 Z" />
</g>
<g id="#68b32ffa">
<path fill="#68b32f" opacity="0.98" d=" M 32.93 87.03 C 45.97 86.99 59.02 86.97 72.07 87.06 C 67.50 92.54 62.04 97.25 57.00 102.31 C 55.34 102.31 53.68 102.31 52.02 102.30 C 46.09 96.70 39.01 92.46 32.93 87.03 Z" />
</g>
<g id="#0a0a0910">
<path fill="#0a0a09" opacity="0.06" d=" M 39.01 103.06 C 43.33 102.73 47.80 103.54 52.02 102.30 C 53.68 102.31 55.34 102.31 57.00 102.31 C 66.95 103.65 76.99 102.68 86.99 103.05 L 87.00 103.99 L 86.01 104.03 C 70.33 103.99 54.66 103.96 38.98 104.04 L 39.01 103.06 Z" />
</g>
<g id="#18181826">
<path fill="#181818" opacity="0.15" d=" M 25.00 104.02 C 29.65 103.99 34.32 103.85 38.98 104.04 L 39.04 105.02 C 34.68 105.01 30.33 105.01 25.98 105.02 L 25.00 104.98 L 25.00 104.02 Z" />
<path fill="#181818" opacity="0.15" d=" M 86.01 104.03 L 87.00 103.99 C 91.65 103.99 96.32 103.85 100.98 104.04 L 101.00 104.98 L 100.02 105.01 C 95.66 105.01 91.32 105.00 86.97 105.02 L 85.98 105.00 L 86.01 104.03 Z" />
<path fill="#181818" opacity="0.15" d=" M 97.00 113.00 C 100.00 113.00 102.99 112.99 106.00 112.99 L 106.99 113.03 C 106.74 113.27 106.25 113.76 106.01 114.00 C 103.00 113.99 100.00 114.02 97.00 113.99 L 97.00 113.00 Z" />
<path fill="#181818" opacity="0.15" d=" M 43.17 114.00 C 56.20 113.99 69.23 114.00 82.26 114.02 C 81.95 114.29 81.34 114.81 81.03 115.07 C 68.28 114.85 55.52 115.25 42.78 114.84 L 43.17 114.00 Z" />
</g>
<g id="#2929293f">
<path fill="#292929" opacity="0.25" d=" M 38.98 104.04 C 54.66 103.96 70.33 103.99 86.01 104.03 L 85.98 105.00 C 70.33 105.02 54.68 104.97 39.04 105.02 L 38.98 104.04 Z" />
<path fill="#292929" opacity="0.25" d=" M 17.87 105.26 C 20.23 104.90 22.62 104.94 25.00 104.98 L 25.98 105.02 L 26.02 106.00 C 23.33 105.96 20.64 105.91 17.95 105.86 L 17.87 105.26 Z" />
</g>
<g id="#16161623">
<path fill="#161616" opacity="0.14" d=" M 11.17 105.84 C 12.38 104.19 15.92 104.84 17.87 105.26 L 17.95 105.86 L 17.28 106.16 C 15.25 106.08 13.21 105.98 11.17 105.84 Z" />
</g>
<g id="#3b3b3b5d">
<path fill="#3b3b3b" opacity="0.36" d=" M 25.98 105.02 C 30.33 105.01 34.68 105.01 39.04 105.02 L 38.94 106.07 C 34.63 106.02 30.33 106.01 26.02 106.00 L 25.98 105.02 Z" />
<path fill="#3b3b3b" opacity="0.36" d=" M 86.97 105.02 C 91.32 105.00 95.66 105.01 100.02 105.01 L 99.98 105.97 C 95.68 105.99 91.38 105.99 87.08 106.04 L 86.97 105.02 Z" />
</g>
<g id="#5050507d">
<path fill="#505050" opacity="0.49" d=" M 39.04 105.02 C 54.68 104.97 70.33 105.02 85.98 105.00 L 86.97 105.02 L 87.08 106.04 C 71.03 106.00 54.99 105.93 38.94 106.07 L 39.04 105.02 Z" />
</g>
<g id="#2626263c">
<path fill="#262626" opacity="0.24" d=" M 100.02 105.01 L 101.00 104.98 C 107.51 105.31 115.27 104.01 120.93 108.17 C 120.00 114.10 111.59 112.74 106.99 113.03 L 106.00 112.99 L 106.01 112.04 C 108.97 110.67 119.23 113.75 118.89 108.18 C 116.80 107.20 114.51 106.90 112.24 106.69 C 108.17 106.10 104.07 106.04 99.98 105.97 L 100.02 105.01 Z" />
</g>
<g id="#35353554">
<path fill="#353535" opacity="0.33" d=" M 5.08 108.17 C 6.84 106.84 8.90 105.70 11.17 105.84 C 13.21 105.98 15.25 106.08 17.28 106.16 L 16.78 106.88 C 14.43 107.18 12.12 107.72 9.77 108.05 C 7.28 107.18 5.79 109.43 8.29 110.76 C 9.79 110.80 12.77 110.88 14.27 110.92 L 13.94 111.93 C 12.62 111.96 11.30 112.00 9.98 112.02 C 7.62 112.08 3.88 111.35 5.08 108.17 Z" />
</g>
<g id="#4f4f4f7b">
<path fill="#4f4f4f" opacity="0.48" d=" M 17.28 106.16 L 17.95 105.86 C 20.64 105.91 23.33 105.96 26.02 106.00 L 26.00 106.99 C 22.92 106.98 19.85 106.96 16.78 106.88 L 17.28 106.16 Z" />
</g>
<g id="#6666669f">
<path fill="#666666" opacity="0.62" d=" M 26.02 106.00 C 30.33 106.01 34.63 106.02 38.94 106.07 L 39.26 107.18 C 34.84 107.08 30.42 107.05 26.00 106.99 L 26.02 106.00 Z" />
</g>
<g id="#797979bd">
<path fill="#797979" opacity="0.74" d=" M 38.94 106.07 C 54.99 105.93 71.03 106.00 87.08 106.04 L 86.81 107.12 L 85.76 107.21 C 70.26 106.86 54.76 106.89 39.26 107.18 L 38.94 106.07 Z" />
</g>
<g id="#6565659f">
<path fill="#656565" opacity="0.62" d=" M 87.08 106.04 C 91.38 105.99 95.68 105.99 99.98 105.97 L 100.01 106.97 C 95.61 107.00 91.21 106.98 86.81 107.12 L 87.08 106.04 Z" />
<path fill="#656565" opacity="0.62" d=" M 44.02 112.00 C 56.69 112.00 69.37 111.99 82.04 112.02 L 81.90 113.03 C 69.25 112.96 56.61 113.02 43.97 112.99 L 44.02 112.00 Z" />
</g>
<g id="#49494973">
<path fill="#494949" opacity="0.45" d=" M 99.98 105.97 C 104.07 106.04 108.17 106.10 112.24 106.69 C 110.75 106.87 109.27 107.04 107.78 107.21 C 105.19 107.12 102.60 107.04 100.01 106.97 L 99.98 105.97 Z" />
</g>
<g id="#7f7f7fc7">
<path fill="#7f7f7f" opacity="0.78" d=" M 9.77 108.05 C 12.12 107.72 14.43 107.18 16.78 106.88 C 19.85 106.96 22.92 106.98 26.00 106.99 C 30.42 107.05 34.84 107.08 39.26 107.18 C 32.66 108.30 25.95 107.81 19.30 108.20 C 14.09 112.00 27.04 109.22 28.23 110.83 L 27.19 110.88 C 22.88 110.94 18.57 110.99 14.27 110.92 C 12.65 110.10 10.10 110.29 9.77 108.05 Z" />
</g>
<g id="#9b9b9bf1">
<path fill="#9b9b9b" opacity="0.95" d=" M 39.26 107.18 C 54.76 106.89 70.26 106.86 85.76 107.21 C 92.78 108.39 99.91 107.82 106.99 108.05 C 107.95 113.02 98.92 108.61 96.79 110.77 C 91.85 110.94 86.92 110.98 81.99 111.02 C 69.32 110.98 56.66 110.98 43.99 111.02 C 38.74 110.95 33.48 111.14 28.23 110.83 C 27.04 109.22 14.09 112.00 19.30 108.20 C 25.95 107.81 32.66 108.30 39.26 107.18 Z" />
</g>
<g id="#828282cb">
<path fill="#828282" opacity="0.80" d=" M 85.76 107.21 L 86.81 107.12 C 91.21 106.98 95.61 107.00 100.01 106.97 C 102.60 107.04 105.19 107.12 107.78 107.21 C 110.20 108.22 114.77 106.77 116.04 109.83 C 110.39 110.82 104.64 111.13 98.91 110.96 C 98.38 110.91 97.32 110.82 96.79 110.77 C 98.92 108.61 107.95 113.02 106.99 108.05 C 99.91 107.82 92.78 108.39 85.76 107.21 Z" />
</g>
<g id="#5a5a5a8d">
<path fill="#5a5a5a" opacity="0.55" d=" M 107.78 107.21 C 109.27 107.04 110.75 106.87 112.24 106.69 C 114.51 106.90 116.80 107.20 118.89 108.18 C 119.23 113.75 108.97 110.67 106.01 112.04 C 104.27 112.03 100.78 112.00 99.03 111.98 L 98.91 110.96 C 104.64 111.13 110.39 110.82 116.04 109.83 C 114.77 106.77 110.20 108.22 107.78 107.21 Z" />
</g>
<g id="#5f5f5f94">
<path fill="#5f5f5f" opacity="0.58" d=" M 8.29 110.76 C 5.79 109.43 7.28 107.18 9.77 108.05 C 10.10 110.29 12.65 110.10 14.27 110.92 C 12.77 110.88 9.79 110.80 8.29 110.76 Z" />
</g>
<g id="#5c5c5c90">
<path fill="#5c5c5c" opacity="0.56" d=" M 14.27 110.92 C 18.57 110.99 22.88 110.94 27.19 110.88 L 26.95 111.95 C 24.30 111.96 21.65 111.99 19.01 112.01 C 17.32 111.98 15.63 111.95 13.94 111.93 L 14.27 110.92 Z" />
</g>
<g id="#797979bc">
<path fill="#797979" opacity="0.74" d=" M 27.19 110.88 L 28.23 110.83 C 33.48 111.14 38.74 110.95 43.99 111.02 L 44.02 112.00 C 38.67 111.99 33.33 112.01 27.98 111.98 L 26.95 111.95 L 27.19 110.88 Z" />
</g>
<g id="#888888d5">
<path fill="#888888" opacity="0.84" d=" M 43.99 111.02 C 56.66 110.98 69.32 110.98 81.99 111.02 L 82.04 112.02 C 69.37 111.99 56.69 112.00 44.02 112.00 L 43.99 111.02 Z" />
</g>
<g id="#777777bb">
<path fill="#777777" opacity="0.73" d=" M 81.99 111.02 C 86.92 110.98 91.85 110.94 96.79 110.77 C 97.32 110.82 98.38 110.91 98.91 110.96 L 99.03 111.98 C 98.52 111.99 97.51 112.01 97.00 112.01 C 92.01 112.00 87.03 111.98 82.04 112.02 L 81.99 111.02 Z" />
</g>
<g id="#22222236">
<path fill="#222222" opacity="0.21" d=" M 9.98 112.02 C 11.30 112.00 12.62 111.96 13.94 111.93 C 15.63 111.95 17.32 111.98 19.01 112.01 L 19.00 112.98 C 16.61 112.17 11.03 114.47 9.98 112.02 Z" />
</g>
<g id="#3a3a3a5c">
<path fill="#3a3a3a" opacity="0.36" d=" M 19.01 112.01 C 21.65 111.99 24.30 111.96 26.95 111.95 L 27.98 111.98 L 28.01 112.99 C 25.33 112.99 22.66 113.00 19.99 113.01 L 19.00 112.98 L 19.01 112.01 Z" />
</g>
<g id="#5151517e">
<path fill="#515151" opacity="0.49" d=" M 27.98 111.98 C 33.33 112.01 38.67 111.99 44.02 112.00 L 43.97 112.99 L 42.96 113.02 C 37.97 112.99 32.99 113.04 28.01 112.99 L 27.98 111.98 Z" />
<path fill="#515151" opacity="0.49" d=" M 82.04 112.02 C 87.03 111.98 92.01 112.00 97.00 112.01 L 97.00 113.00 C 91.96 113.00 86.93 112.98 81.90 113.03 L 82.04 112.02 Z" />
</g>
<g id="#3c3c3c5e">
<path fill="#3c3c3c" opacity="0.37" d=" M 97.00 112.01 C 97.51 112.01 98.52 111.99 99.03 111.98 C 100.78 112.00 104.27 112.03 106.01 112.04 L 106.00 112.99 C 102.99 112.99 100.00 113.00 97.00 113.00 L 97.00 112.01 Z" />
</g>
<g id="#23232337">
<path fill="#232323" opacity="0.22" d=" M 19.99 113.01 C 22.66 113.00 25.33 112.99 28.01 112.99 C 32.99 113.04 37.97 112.99 42.96 113.02 L 43.17 114.00 C 37.11 114.01 31.05 113.94 24.99 114.01 C 23.53 113.53 19.96 115.11 19.99 113.01 Z" />
</g>
<g id="#3b3b3b5c">
<path fill="#3b3b3b" opacity="0.36" d=" M 42.96 113.02 L 43.97 112.99 C 56.61 113.02 69.25 112.96 81.90 113.03 L 82.26 114.02 C 69.23 114.00 56.20 113.99 43.17 114.00 L 42.96 113.02 Z" />
</g>
<g id="#29292940">
<path fill="#292929" opacity="0.25" d=" M 81.90 113.03 C 86.93 112.98 91.96 113.00 97.00 113.00 L 97.00 113.99 C 92.08 114.02 87.17 113.98 82.26 114.02 L 81.90 113.03 Z" />
</g>
<g id="#0707070c">
<path fill="#070707" opacity="0.05" d=" M 24.99 114.01 C 31.05 113.94 37.11 114.01 43.17 114.00 L 42.78 114.84 C 37.23 117.39 30.86 115.10 25.07 114.93 L 24.99 114.01 Z" />
</g>
</svg>
