<?xml version="1.0" encoding="UTF-8" ?>
<!DOCTYPE svg PUBLIC "-//W3C//DTD SVG 1.1//EN" "http://www.w3.org/Graphics/SVG/1.1/DTD/svg11.dtd">
<svg width="150pt" height="150pt" viewBox="0 0 150 150" version="1.1" xmlns="http://www.w3.org/2000/svg">
<g id="#ffffffff">
<path fill="#ffffff" opacity="1.00" d=" M 37.51 23.42 C 43.70 19.55 49.88 14.70 57.36 13.85 C 57.54 16.44 55.52 18.25 53.98 20.03 C 47.48 26.47 39.95 31.86 31.74 35.88 C 29.27 37.00 26.68 38.37 23.87 37.79 C 26.03 31.27 32.64 27.77 37.51 23.42 Z" />
<path fill="#ffffff" opacity="1.00" d=" M 94.73 14.91 C 98.18 13.95 101.46 16.01 104.45 17.46 C 109.07 20.12 113.82 22.65 117.83 26.20 C 121.76 29.47 126.23 32.60 128.42 37.37 L 128.18 38.42 C 121.29 38.14 115.73 33.35 109.94 30.12 C 104.44 25.60 97.76 21.63 94.73 14.91 Z" />
<path fill="#ffffff" opacity="1.00" d=" M 63.90 21.85 C 78.10 18.60 93.54 21.30 105.76 29.24 C 118.62 37.34 127.69 51.01 130.51 65.91 C 134.60 86.35 126.19 108.67 109.49 121.17 C 113.77 122.80 116.52 128.41 113.85 132.50 C 108.11 140.85 92.98 140.40 88.38 131.10 C 80.59 132.90 72.44 132.89 64.60 131.36 C 61.74 138.67 51.97 140.42 45.28 137.82 C 41.44 136.52 38.04 133.18 37.96 128.93 C 38.24 125.62 40.76 123.26 43.27 121.42 C 33.54 115.02 26.84 104.63 23.18 93.71 C 18.57 79.40 19.97 63.24 27.12 49.99 C 34.50 35.85 48.32 25.28 63.90 21.85 M 67.57 30.71 C 49.48 33.72 34.40 48.65 30.66 66.52 C 27.54 80.30 30.83 95.43 39.68 106.48 C 48.03 117.27 61.42 123.91 75.05 124.02 C 88.75 124.19 102.34 117.73 110.89 107.02 C 118.82 97.37 122.57 84.48 121.23 72.08 C 120.03 59.48 113.49 47.45 103.47 39.69 C 93.49 31.82 80.08 28.33 67.57 30.71 Z" />
<path fill="#ffffff" opacity="1.00" d=" M 75.30 38.14 C 77.93 37.58 79.23 40.99 80.02 42.98 C 83.58 54.87 83.14 67.87 79.49 79.69 C 79.04 81.35 77.30 82.16 75.85 82.78 C 69.85 85.15 63.31 85.44 56.94 85.76 C 50.73 85.28 44.26 85.16 38.49 82.50 C 37.08 81.82 35.42 80.81 35.22 79.09 C 36.41 76.38 39.54 75.55 42.11 74.70 C 51.56 72.33 61.57 72.24 71.09 74.25 C 69.13 65.74 69.13 56.82 70.62 48.24 C 71.46 44.68 72.05 40.39 75.30 38.14 Z" />
</g>
</svg>
