<?xml version="1.0" encoding="UTF-8" ?>
<!DOCTYPE svg PUBLIC "-//W3C//DTD SVG 1.1//EN" "http://www.w3.org/Graphics/SVG/1.1/DTD/svg11.dtd">
<svg width="150pt" height="147pt" viewBox="0 0 150 147" version="1.1" xmlns="http://www.w3.org/2000/svg">
<g id="#000000ff">
<path fill="#000000" opacity="1.00" d=" M 64.52 8.77 C 80.44 6.29 97.39 9.32 111.06 18.00 C 126.21 27.21 137.50 42.70 141.27 60.06 C 144.77 73.82 142.96 88.49 137.63 101.53 C 131.13 116.38 119.25 128.90 104.48 135.65 C 90.81 142.48 74.78 143.74 59.95 140.56 C 41.69 136.25 25.19 124.25 16.18 107.70 C 2.79 84.51 5.49 53.27 22.72 32.75 C 33.10 20.00 48.22 11.20 64.52 8.77 M 59.58 12.83 C 45.65 16.43 32.90 24.66 24.21 36.18 C 15.85 47.22 10.72 61.03 11.19 74.99 C 10.25 101.13 27.92 126.50 52.43 135.33 C 66.01 140.69 81.51 141.06 95.28 136.16 C 120.60 128.11 139.39 102.60 138.81 75.93 C 139.84 50.97 123.94 26.56 101.14 16.67 C 88.32 10.49 73.33 9.85 59.58 12.83 Z" />
<path fill="#000000" opacity="1.00" d=" M 33.51 45.20 C 37.61 41.45 41.33 37.32 45.36 33.49 C 55.41 43.63 65.52 53.72 75.36 64.07 C 85.71 54.16 95.72 43.86 105.98 33.85 C 109.99 37.95 114.14 41.91 118.07 46.08 C 107.95 56.26 97.68 66.31 87.55 76.48 C 97.77 86.52 107.65 96.89 117.80 106.99 C 114.05 111.09 109.90 114.78 106.05 118.79 C 95.99 108.59 85.94 98.37 75.98 88.08 C 65.97 98.03 55.95 108.00 45.95 117.95 C 44.59 118.18 43.86 116.71 42.93 116.01 C 39.68 112.69 36.34 109.47 33.18 106.07 C 43.48 96.08 53.55 85.85 63.82 75.81 C 53.64 65.69 43.64 55.38 33.51 45.20 M 39.36 45.39 C 48.11 54.32 56.88 63.22 65.63 72.15 C 67.58 73.62 68.60 76.79 66.69 78.70 C 57.50 87.96 48.16 97.06 38.98 106.34 C 40.92 108.64 43.05 110.76 45.29 112.75 C 54.18 103.83 63.18 95.02 72.09 86.11 C 73.67 84.23 76.73 83.40 78.56 85.41 C 87.80 94.53 96.78 103.91 106.02 113.04 C 107.91 111.08 109.83 109.14 111.75 107.21 C 102.80 98.20 94.00 89.05 85.09 80.00 C 83.16 78.46 82.74 75.38 84.69 73.67 C 93.61 64.33 102.99 55.43 112.13 46.29 C 110.06 44.17 108.00 42.05 105.94 39.92 C 96.63 48.58 87.91 57.85 78.76 66.67 C 77.13 68.73 73.82 68.97 72.15 66.83 C 63.13 57.82 54.29 48.63 45.33 39.56 C 43.35 41.51 41.36 43.45 39.36 45.39 Z" />
</g>
<g id="#ffffffff">
<path fill="#ffffff" opacity="1.00" d=" M 59.58 12.83 C 73.33 9.85 88.32 10.49 101.14 16.67 C 123.94 26.56 139.84 50.97 138.81 75.93 C 139.39 102.60 120.60 128.11 95.28 136.16 C 81.51 141.06 66.01 140.69 52.43 135.33 C 27.92 126.50 10.25 101.13 11.19 74.99 C 10.72 61.03 15.85 47.22 24.21 36.18 C 32.90 24.66 45.65 16.43 59.58 12.83 M 33.51 45.20 C 43.64 55.38 53.64 65.69 63.82 75.81 C 53.55 85.85 43.48 96.08 33.18 106.07 C 36.34 109.47 39.68 112.69 42.93 116.01 C 43.86 116.71 44.59 118.18 45.95 117.95 C 55.95 108.00 65.97 98.03 75.98 88.08 C 85.94 98.37 95.99 108.59 106.05 118.79 C 109.90 114.78 114.05 111.09 117.80 106.99 C 107.65 96.89 97.77 86.52 87.55 76.48 C 97.68 66.31 107.95 56.26 118.07 46.08 C 114.14 41.91 109.99 37.95 105.98 33.85 C 95.72 43.86 85.71 54.16 75.36 64.07 C 65.52 53.72 55.41 43.63 45.36 33.49 C 41.33 37.32 37.61 41.45 33.51 45.20 Z" />
<path fill="#ffffff" opacity="1.00" d=" M 39.36 45.39 C 41.36 43.45 43.35 41.51 45.33 39.56 C 54.29 48.63 63.13 57.82 72.15 66.83 C 73.82 68.97 77.13 68.73 78.76 66.67 C 87.91 57.85 96.63 48.58 105.94 39.92 C 108.00 42.05 110.06 44.17 112.13 46.29 C 102.99 55.43 93.61 64.33 84.69 73.67 C 82.74 75.38 83.16 78.46 85.09 80.00 C 94.00 89.05 102.80 98.20 111.75 107.21 C 109.83 109.14 107.91 111.08 106.02 113.04 C 96.78 103.91 87.80 94.53 78.56 85.41 C 76.73 83.40 73.67 84.23 72.09 86.11 C 63.18 95.02 54.18 103.83 45.29 112.75 C 43.05 110.76 40.92 108.64 38.98 106.34 C 48.16 97.06 57.50 87.96 66.69 78.70 C 68.60 76.79 67.58 73.62 65.63 72.15 C 56.88 63.22 48.11 54.32 39.36 45.39 Z" />
</g>
</svg>
