<?xml version="1.0" encoding="UTF-8" ?>
<!DOCTYPE svg PUBLIC "-//W3C//DTD SVG 1.1//EN" "http://www.w3.org/Graphics/SVG/1.1/DTD/svg11.dtd">
<svg width="150pt" height="162pt" viewBox="0 0 150 162" version="1.1" xmlns="http://www.w3.org/2000/svg">
<g id="#000000ff">
<path fill="#000000" opacity="1.00" d=" M 12.54 35.62 C 18.40 29.82 24.03 23.79 30.09 18.20 C 44.98 33.30 59.84 48.44 74.74 63.53 C 89.77 48.53 104.93 33.66 119.93 18.63 C 125.98 24.73 132.17 30.68 138.05 36.94 C 123.04 51.99 107.78 66.80 92.84 81.92 C 107.85 96.95 122.50 112.30 137.55 127.28 C 131.89 133.24 125.98 138.92 120.06 144.61 C 105.12 129.56 90.35 114.35 75.34 99.37 C 60.31 114.39 45.09 129.21 30.13 144.29 C 24.05 138.23 17.94 132.21 12.00 126.00 C 27.06 110.98 42.19 96.03 57.25 81.00 C 42.39 65.82 27.50 50.68 12.54 35.62 M 21.03 35.96 C 34.50 49.47 47.83 63.13 61.24 76.70 C 64.43 79.55 63.47 84.77 60.06 87.01 C 46.82 100.12 33.57 113.21 20.47 126.45 C 23.61 129.67 26.75 132.90 30.10 135.91 C 43.25 122.15 57.13 109.07 70.53 95.53 C 72.85 93.04 77.14 92.76 79.54 95.28 C 92.97 109.01 106.56 122.59 119.97 136.33 C 122.79 133.38 125.59 130.40 128.61 127.65 C 120.94 119.89 113.29 112.12 105.63 104.36 C 100.08 97.88 93.61 92.27 87.88 85.96 C 85.97 84.03 85.91 80.68 87.64 78.63 C 101.10 64.44 115.47 51.11 129.07 37.06 C 125.91 33.96 122.82 30.79 119.76 27.59 C 106.28 40.85 92.94 54.26 79.51 67.57 C 77.33 70.40 72.49 70.84 70.14 68.01 C 56.66 54.47 43.31 40.80 29.91 27.18 C 26.91 30.07 23.98 33.03 21.03 35.96 Z" />
</g>
<g id="#ffffffff">
<path fill="#ffffff" opacity="1.00" d=" M 21.03 35.96 C 23.98 33.03 26.91 30.07 29.91 27.18 C 43.31 40.80 56.66 54.47 70.14 68.01 C 72.49 70.84 77.33 70.40 79.51 67.57 C 92.94 54.26 106.28 40.85 119.76 27.59 C 122.82 30.79 125.91 33.96 129.07 37.06 C 115.47 51.11 101.10 64.44 87.64 78.63 C 85.91 80.68 85.97 84.03 87.88 85.96 C 93.61 92.27 100.08 97.88 105.63 104.36 C 113.29 112.12 120.94 119.89 128.61 127.65 C 125.59 130.40 122.79 133.38 119.97 136.33 C 106.56 122.59 92.97 109.01 79.54 95.28 C 77.14 92.76 72.85 93.04 70.53 95.53 C 57.13 109.07 43.25 122.15 30.10 135.91 C 26.75 132.90 23.61 129.67 20.47 126.45 C 33.57 113.21 46.82 100.12 60.06 87.01 C 63.47 84.77 64.43 79.55 61.24 76.70 C 47.83 63.13 34.50 49.47 21.03 35.96 Z" />
</g>
</svg>
