<?xml version="1.0" encoding="UTF-8" ?>
<!DOCTYPE svg PUBLIC "-//W3C//DTD SVG 1.1//EN" "http://www.w3.org/Graphics/SVG/1.1/DTD/svg11.dtd">
<svg width="150pt" height="150pt" viewBox="0 0 150 150" version="1.1" xmlns="http://www.w3.org/2000/svg">
<g id="#020201fc">
<path fill="#020201" opacity="1.00" d=" M 65.38 0.00 L 84.62 0.00 C 96.29 2.57 107.87 8.07 115.03 17.97 C 120.18 24.87 123.55 33.16 124.39 41.73 C 124.19 46.79 123.76 51.86 124.05 56.93 C 125.45 56.92 126.84 56.88 128.24 56.80 C 132.12 57.83 135.11 60.94 136.31 64.72 C 135.76 90.55 135.87 116.41 136.26 142.24 C 135.32 146.02 132.24 148.77 128.65 150.00 L 21.35 150.00 C 17.71 148.79 14.79 145.98 13.69 142.28 C 14.23 116.44 14.13 90.59 13.74 64.76 C 14.79 60.91 17.92 57.84 21.76 56.81 C 23.17 56.88 24.58 56.92 25.99 56.92 C 26.06 51.87 26.14 46.81 25.73 41.76 C 26.25 33.15 29.90 24.90 34.97 17.97 C 42.13 8.07 53.71 2.57 65.38 0.00 M 66.99 4.02 L 67.03 4.98 C 52.74 6.41 38.77 16.18 34.08 29.94 C 31.99 32.27 31.15 36.63 30.97 40.00 L 30.01 40.01 C 29.96 47.00 29.92 54.00 30.02 61.00 C 27.76 61.71 21.91 58.60 21.91 62.01 L 20.91 62.00 C 19.45 62.08 18.75 63.70 18.97 65.00 L 18.03 65.02 C 17.97 90.68 17.98 116.35 18.03 142.02 L 19.02 141.95 C 19.29 143.31 20.69 144.69 22.04 144.98 L 22.00 145.96 C 57.34 146.03 92.67 146.02 128.01 145.97 L 127.96 145.00 C 129.30 144.67 130.71 143.33 130.98 141.95 L 131.96 142.00 C 132.02 116.35 132.06 90.69 131.93 65.04 L 130.97 64.86 C 131.44 63.08 129.77 61.59 128.04 61.99 C 127.24 59.59 122.36 61.50 119.97 61.01 C 120.08 54.01 120.03 47.00 119.99 40.01 L 119.03 39.99 C 118.86 36.61 117.98 32.36 115.97 29.92 C 111.24 16.31 97.31 6.35 83.02 4.98 L 82.98 4.02 C 77.65 3.93 72.32 3.93 66.99 4.02 Z" />
</g>
<g id="#2e2e32ff">
<path fill="#2e2e32" opacity="1.00" d=" M 66.99 4.02 C 72.32 3.93 77.65 3.93 82.98 4.02 L 83.02 4.98 C 77.69 4.99 72.36 5.02 67.03 4.98 L 66.99 4.02 Z" />
</g>
<g id="#9397a2ff">
<path fill="#9397a2" opacity="1.00" d=" M 34.08 29.94 C 38.77 16.18 52.74 6.41 67.03 4.98 C 72.36 5.02 77.69 4.99 83.02 4.98 C 97.31 6.35 111.24 16.31 115.97 29.92 C 115.97 31.31 115.98 32.70 116.00 34.10 C 115.06 32.34 114.17 30.56 113.13 28.86 C 109.45 22.18 105.58 14.74 97.97 11.85 C 96.45 10.97 94.87 10.20 93.22 9.61 C 90.96 8.50 88.63 7.53 86.22 6.79 C 78.90 5.91 70.98 4.98 63.74 6.72 C 61.13 7.69 58.55 8.71 56.02 9.88 C 54.64 10.41 53.36 11.15 52.10 11.91 C 48.93 13.20 46.75 15.90 44.20 18.06 C 41.41 19.43 39.51 21.94 38.94 24.99 C 34.33 31.04 33.12 39.36 34.33 46.71 C 35.20 48.44 35.80 50.75 37.94 51.25 C 37.98 52.88 37.98 54.52 37.95 56.16 C 34.28 54.69 32.03 51.20 32.98 46.98 C 32.00 41.28 33.25 35.57 34.08 29.94 Z" />
</g>
<g id="#d1d2d7ff">
<path fill="#d1d2d7" opacity="1.00" d=" M 63.74 6.72 C 70.98 4.98 78.90 5.91 86.22 6.79 C 78.73 7.02 71.23 7.05 63.74 6.72 Z" />
</g>
<g id="#edeef0ff">
<path fill="#edeef0" opacity="1.00" d=" M 56.02 9.88 C 58.55 8.71 61.13 7.69 63.74 6.72 C 71.23 7.05 78.73 7.02 86.22 6.79 C 88.63 7.53 90.96 8.50 93.22 9.61 C 93.90 12.18 94.86 14.67 95.88 17.12 C 82.41 14.22 68.45 12.94 55.01 16.97 C 55.29 14.60 55.83 12.26 56.02 9.88 Z" />
</g>
<g id="#d4d8dcff">
<path fill="#d4d8dc" opacity="1.00" d=" M 52.10 11.91 C 53.36 11.15 54.64 10.41 56.02 9.88 C 55.83 12.26 55.29 14.60 55.01 16.97 C 68.45 12.94 82.41 14.22 95.88 17.12 C 94.86 14.67 93.90 12.18 93.22 9.61 C 94.87 10.20 96.45 10.97 97.97 11.85 C 98.95 13.21 100.00 14.51 101.06 15.80 C 103.60 19.57 107.61 23.18 107.01 28.11 C 103.54 27.39 101.10 24.45 97.94 23.02 C 96.03 21.93 94.23 20.66 92.24 19.73 C 83.55 15.19 73.45 17.36 64.09 17.14 C 55.68 19.32 49.17 25.34 42.09 30.00 C 40.27 26.46 43.17 22.81 45.02 20.01 C 46.26 16.31 51.32 15.70 52.10 11.91 Z" />
</g>
<g id="#bbc2c9ff">
<path fill="#bbc2c9" opacity="1.00" d=" M 44.20 18.06 C 46.75 15.90 48.93 13.20 52.10 11.91 C 51.32 15.70 46.26 16.31 45.02 20.01 C 43.17 22.81 40.27 26.46 42.09 30.00 C 49.17 25.34 55.68 19.32 64.09 17.14 C 73.45 17.36 83.55 15.19 92.24 19.73 C 91.37 19.85 89.65 20.08 88.78 20.20 C 76.21 16.16 61.52 17.45 51.20 26.20 C 48.39 30.40 44.47 34.25 43.40 39.37 C 42.75 45.63 42.88 51.95 43.22 58.23 C 43.16 58.92 43.03 60.30 42.96 60.98 C 41.31 61.01 39.66 61.03 38.01 61.03 L 37.96 60.15 C 37.96 59.66 37.95 58.68 37.94 58.19 C 37.94 57.68 37.95 56.66 37.95 56.16 C 37.98 54.52 37.98 52.88 37.94 51.25 C 38.51 46.14 37.20 41.21 36.51 36.22 C 37.06 32.42 38.40 28.79 38.94 24.99 C 41.18 23.11 42.95 20.69 44.20 18.06 Z" />
</g>
<g id="#b5bcc4ff">
<path fill="#b5bcc4" opacity="1.00" d=" M 97.97 11.85 C 105.58 14.74 109.45 22.18 113.13 28.86 C 115.99 39.34 116.40 50.18 116.00 60.98 C 114.34 61.01 112.69 61.02 111.03 61.01 L 110.98 60.11 C 110.97 59.38 110.95 57.90 110.93 57.16 C 111.93 50.55 107.75 45.04 106.11 38.91 C 103.62 30.30 96.64 23.99 88.78 20.20 C 89.65 20.08 91.37 19.85 92.24 19.73 C 94.23 20.66 96.03 21.93 97.94 23.02 C 101.34 26.65 104.44 30.54 107.77 34.22 C 108.98 35.44 111.93 36.92 111.82 34.02 C 110.52 27.27 107.74 18.96 101.06 15.80 C 100.00 14.51 98.95 13.21 97.97 11.85 Z" />
</g>
<g id="#c3cad0ff">
<path fill="#c3cad0" opacity="1.00" d=" M 101.06 15.80 C 107.74 18.96 110.52 27.27 111.82 34.02 C 111.93 36.92 108.98 35.44 107.77 34.22 C 104.44 30.54 101.34 26.65 97.94 23.02 C 101.10 24.45 103.54 27.39 107.01 28.11 C 107.61 23.18 103.60 19.57 101.06 15.80 Z" />
</g>
<g id="#a9adb6ff">
<path fill="#a9adb6" opacity="1.00" d=" M 38.94 24.99 C 39.51 21.94 41.41 19.43 44.20 18.06 C 42.95 20.69 41.18 23.11 38.94 24.99 Z" />
</g>
<g id="#878d98ff">
<path fill="#878d98" opacity="1.00" d=" M 51.20 26.20 C 61.52 17.45 76.21 16.16 88.78 20.20 C 96.64 23.99 103.62 30.30 106.11 38.91 C 107.75 45.04 111.93 50.55 110.93 57.16 C 104.64 54.28 106.08 46.18 104.14 40.84 C 100.96 31.89 94.68 23.34 85.02 20.94 C 76.75 19.45 67.62 18.85 59.97 22.97 C 52.73 26.41 48.58 33.63 45.94 40.88 C 44.65 45.54 44.33 50.41 44.17 55.22 C 43.87 56.23 43.55 57.24 43.22 58.23 C 42.88 51.95 42.75 45.63 43.40 39.37 C 44.47 34.25 48.39 30.40 51.20 26.20 Z" />
</g>
<g id="#020202fd">
<path fill="#020202" opacity="1.00" d=" M 59.97 22.97 C 67.62 18.85 76.75 19.45 85.02 20.94 C 94.68 23.34 100.96 31.89 104.14 40.84 C 104.11 44.16 103.98 47.49 104.12 50.81 C 104.08 54.20 104.02 57.60 103.99 61.00 C 84.66 61.00 65.34 61.00 46.02 61.00 C 45.98 57.93 45.95 54.86 45.87 51.79 C 45.97 48.15 45.97 44.52 45.94 40.88 C 48.58 33.63 52.73 26.41 59.97 22.97 M 69.01 24.01 L 68.98 24.98 C 59.14 25.74 50.49 34.98 51.02 44.99 C 51.02 47.74 51.02 53.24 51.02 55.99 L 51.01 56.95 C 67.01 57.09 83.01 56.99 99.01 56.97 L 98.98 55.99 C 99.20 50.76 99.08 45.54 98.60 40.33 C 96.68 32.26 89.33 25.62 81.02 24.99 C 79.52 21.92 72.14 25.17 69.01 24.01 Z" />
</g>
<g id="#000000b6">
<path fill="#000000" opacity="0.71" d=" M 69.01 24.01 C 72.14 25.17 79.52 21.92 81.02 24.99 C 77.01 24.98 72.99 24.98 68.98 24.98 L 69.01 24.01 Z" />
</g>
<g id="#a4adb6ff">
<path fill="#a4adb6" opacity="1.00" d=" M 34.33 46.71 C 33.12 39.36 34.33 31.04 38.94 24.99 C 38.40 28.79 37.06 32.42 36.51 36.22 C 37.20 41.21 38.51 46.14 37.94 51.25 C 35.80 50.75 35.20 48.44 34.33 46.71 Z" />
</g>
<g id="#a3aab3ff">
<path fill="#a3aab3" opacity="1.00" d=" M 113.13 28.86 C 114.17 30.56 115.06 32.34 116.00 34.10 C 117.79 41.29 116.74 48.81 117.05 56.13 C 117.01 57.75 116.99 59.37 116.98 60.99 L 116.00 60.98 C 116.40 50.18 115.99 39.34 113.13 28.86 Z" />
</g>
<g id="#78808dff">
<path fill="#78808d" opacity="1.00" d=" M 30.97 40.00 C 31.15 36.63 31.99 32.27 34.08 29.94 C 33.25 35.57 32.00 41.28 32.98 46.98 C 32.03 51.20 34.28 54.69 37.95 56.16 C 37.95 56.66 37.94 57.68 37.94 58.19 C 33.71 58.45 32.48 53.89 31.13 50.80 C 31.04 47.20 31.00 43.60 30.97 40.00 Z" />
</g>
<g id="#757c89ff">
<path fill="#757c89" opacity="1.00" d=" M 115.97 29.92 C 117.98 32.36 118.86 36.61 119.03 39.99 C 118.98 44.95 119.05 49.91 118.97 54.87 C 118.49 55.19 117.53 55.82 117.05 56.13 C 116.74 48.81 117.79 41.29 116.00 34.10 C 115.98 32.70 115.97 31.31 115.97 29.92 Z" />
</g>
<g id="#353a43ff">
<path fill="#353a43" opacity="1.00" d=" M 30.01 40.01 L 30.97 40.00 C 31.00 43.60 31.04 47.20 31.13 50.80 C 31.09 52.48 31.05 54.17 31.06 55.86 C 31.03 57.59 31.02 59.32 31.02 61.06 L 30.02 61.00 C 29.92 54.00 29.96 47.00 30.01 40.01 Z" />
</g>
<g id="#353a42ff">
<path fill="#353a42" opacity="1.00" d=" M 119.03 39.99 L 119.99 40.01 C 120.03 47.00 120.08 54.01 119.97 61.01 L 118.95 61.06 C 118.98 59.00 118.98 56.93 118.97 54.87 C 119.05 49.91 118.98 44.95 119.03 39.99 Z" />
</g>
<g id="#69717fff">
<path fill="#69717f" opacity="1.00" d=" M 44.17 55.22 C 44.33 50.41 44.65 45.54 45.94 40.88 C 45.97 44.52 45.97 48.15 45.87 51.79 C 45.29 52.93 44.74 54.08 44.17 55.22 Z" />
</g>
<g id="#6b7583ff">
<path fill="#6b7583" opacity="1.00" d=" M 104.14 40.84 C 106.08 46.18 104.64 54.28 110.93 57.16 C 110.95 57.90 110.97 59.38 110.98 60.11 C 107.34 58.32 103.72 55.49 104.12 50.81 C 103.98 47.49 104.11 44.16 104.14 40.84 Z" />
</g>
<g id="#00000046">
<path fill="#000000" opacity="0.27" d=" M 24.76 55.66 C 25.33 51.05 24.99 46.36 25.73 41.76 C 26.14 46.81 26.06 51.87 25.99 56.92 C 24.58 56.92 23.17 56.88 21.76 56.81 C 22.76 56.43 23.76 56.04 24.76 55.66 Z" />
<path fill="#000000" opacity="0.27" d=" M 124.39 41.73 C 125.50 46.26 124.83 50.99 125.24 55.60 C 126.24 56.01 127.24 56.41 128.24 56.80 C 126.84 56.88 125.45 56.92 124.05 56.93 C 123.76 51.86 124.19 46.79 124.39 41.73 Z" />
</g>
<g id="#66717fff">
<path fill="#66717f" opacity="1.00" d=" M 31.13 50.80 C 32.48 53.89 33.71 58.45 37.94 58.19 C 37.95 58.68 37.96 59.66 37.96 60.15 C 34.93 60.20 33.17 57.60 31.06 55.86 C 31.05 54.17 31.09 52.48 31.13 50.80 Z" />
</g>
<g id="#525d6cff">
<path fill="#525d6c" opacity="1.00" d=" M 104.12 50.81 C 103.72 55.49 107.34 58.32 110.98 60.11 L 111.03 61.01 C 109.27 61.01 105.75 61.00 103.99 61.00 C 104.02 57.60 104.08 54.20 104.12 50.81 Z" />
<path fill="#525d6c" opacity="1.00" d=" M 117.05 56.13 C 117.53 55.82 118.49 55.19 118.97 54.87 C 118.98 56.93 118.98 59.00 118.95 61.06 C 118.46 61.04 117.48 61.01 116.98 60.99 C 116.99 59.37 117.01 57.75 117.05 56.13 Z" />
</g>
<g id="#525b6aff">
<path fill="#525b6a" opacity="1.00" d=" M 44.17 55.22 C 44.74 54.08 45.29 52.93 45.87 51.79 C 45.95 54.86 45.98 57.93 46.02 61.00 C 45.25 61.00 43.73 60.99 42.96 60.98 C 43.03 60.30 43.16 58.92 43.22 58.23 C 43.55 57.24 43.87 56.23 44.17 55.22 Z" />
</g>
<g id="#535e6eff">
<path fill="#535e6e" opacity="1.00" d=" M 31.06 55.86 C 33.17 57.60 34.93 60.20 37.96 60.15 L 38.01 61.03 C 36.26 61.04 32.77 61.05 31.02 61.06 C 31.02 59.32 31.03 57.59 31.06 55.86 Z" />
</g>
<g id="#00000064">
<path fill="#000000" opacity="0.39" d=" M 51.02 55.99 C 67.01 56.01 82.99 56.00 98.98 55.99 L 99.01 56.97 C 83.01 56.99 67.01 57.09 51.01 56.95 L 51.02 55.99 Z" />
</g>
<g id="#958d02fe">
<path fill="#958d02" opacity="1.00" d=" M 21.91 62.01 C 21.91 58.60 27.76 61.71 30.02 61.00 L 31.02 61.06 L 30.86 62.01 C 28.86 62.01 26.86 62.03 24.87 62.06 C 24.13 62.05 22.65 62.02 21.91 62.01 Z" />
</g>
<g id="#afab28fe">
<path fill="#afab28" opacity="1.00" d=" M 31.02 61.06 C 32.77 61.05 36.26 61.04 38.01 61.03 C 39.66 61.03 41.31 61.01 42.96 60.98 C 43.73 60.99 45.25 61.00 46.02 61.00 L 45.99 61.99 C 41.25 62.02 36.52 62.02 31.78 62.06 L 30.86 62.01 L 31.02 61.06 Z" />
<path fill="#afab28" opacity="1.00" d=" M 103.99 61.00 C 105.75 61.00 109.27 61.01 111.03 61.01 C 112.69 61.02 114.34 61.01 116.00 60.98 L 116.98 60.99 C 117.48 61.01 118.46 61.04 118.95 61.06 L 119.24 62.03 C 114.16 62.00 109.08 62.03 104.00 61.99 L 103.99 61.00 Z" />
</g>
<g id="#988f00fe">
<path fill="#988f00" opacity="1.00" d=" M 46.02 61.00 C 65.34 61.00 84.66 61.00 103.99 61.00 L 104.00 61.99 C 84.67 62.01 65.33 62.01 45.99 61.99 L 46.02 61.00 Z" />
</g>
<g id="#948902fe">
<path fill="#948902" opacity="1.00" d=" M 118.95 61.06 L 119.97 61.01 C 122.36 61.50 127.24 59.59 128.04 61.99 C 127.57 62.00 126.63 62.03 126.16 62.04 C 124.43 62.04 120.97 62.03 119.24 62.03 L 118.95 61.06 Z" />
</g>
<g id="#e6b000ff">
<path fill="#e6b000" opacity="1.00" d=" M 18.97 65.00 C 18.75 63.70 19.45 62.08 20.91 62.00 C 25.21 65.25 23.98 71.80 25.10 76.47 C 24.54 77.67 24.06 78.90 23.67 80.17 C 23.18 79.03 22.71 77.90 22.23 76.77 C 21.37 74.05 21.41 70.79 19.16 68.74 C 19.08 67.49 19.02 66.25 18.97 65.00 Z" />
</g>
<g id="#f4bf06ff">
<path fill="#f4bf06" opacity="1.00" d=" M 20.91 62.00 L 21.91 62.01 C 22.65 62.02 24.13 62.05 24.87 62.06 C 26.02 65.02 27.29 67.94 28.06 71.03 C 28.05 71.75 28.04 73.21 28.03 73.93 C 28.02 74.43 28.01 75.42 28.00 75.92 C 27.99 76.42 27.98 77.43 27.98 77.93 C 27.98 78.44 27.99 79.45 27.99 79.96 C 28.02 81.38 28.07 82.84 28.61 84.18 C 28.98 85.96 29.91 87.48 31.15 88.78 C 32.72 91.69 33.63 94.89 35.06 97.86 L 33.87 97.95 C 33.35 97.95 32.33 97.97 31.82 97.97 C 29.63 94.53 28.08 90.76 27.25 86.77 C 26.85 83.28 26.40 79.76 25.10 76.47 C 23.98 71.80 25.21 65.25 20.91 62.00 Z" />
</g>
<g id="#f6d401ff">
<path fill="#f6d401" opacity="1.00" d=" M 24.87 62.06 C 26.86 62.03 28.86 62.01 30.86 62.01 L 31.78 62.06 C 32.74 64.08 33.92 65.98 35.06 67.91 C 33.66 68.14 31.92 67.74 30.83 68.86 C 30.14 69.46 29.46 70.08 28.81 70.73 L 28.06 71.03 C 27.29 67.94 26.02 65.02 24.87 62.06 Z" />
</g>
<g id="#fee700ff">
<path fill="#fee700" opacity="1.00" d=" M 31.78 62.06 C 36.52 62.02 41.25 62.02 45.99 61.99 C 65.33 62.01 84.67 62.01 104.00 61.99 C 109.08 62.03 114.16 62.00 119.24 62.03 C 119.14 64.45 117.49 66.17 115.94 67.84 C 88.98 68.11 62.01 68.06 35.06 67.91 C 33.92 65.98 32.74 64.08 31.78 62.06 Z" />
</g>
<g id="#f4d001ff">
<path fill="#f4d001" opacity="1.00" d=" M 119.24 62.03 C 120.97 62.03 124.43 62.04 126.16 62.04 C 125.64 64.71 124.75 67.28 123.91 69.85 C 123.46 70.19 122.55 70.88 122.10 71.22 L 121.28 70.87 C 120.61 70.16 119.90 69.49 119.17 68.85 C 118.22 68.21 117.14 67.88 115.94 67.84 C 117.49 66.17 119.14 64.45 119.24 62.03 Z" />
</g>
<g id="#e9b600ff">
<path fill="#e9b600" opacity="1.00" d=" M 126.16 62.04 C 126.63 62.03 127.57 62.00 128.04 61.99 C 129.77 61.59 131.44 63.08 130.97 64.86 L 130.91 65.75 C 127.17 68.96 128.15 74.72 126.02 78.91 C 125.39 79.66 124.76 80.42 124.14 81.18 C 124.02 79.71 123.90 78.25 123.78 76.78 C 123.81 75.05 123.88 71.59 123.91 69.85 C 124.75 67.28 125.64 64.71 126.16 62.04 Z" />
</g>
<g id="#00000084">
<path fill="#000000" opacity="0.52" d=" M 12.96 130.00 C 13.53 108.27 11.99 86.40 13.74 64.76 C 14.13 90.59 14.23 116.44 13.69 142.28 C 12.01 138.44 13.51 134.00 12.96 130.00 Z" />
</g>
<g id="#b68900fe">
<path fill="#b68900" opacity="1.00" d=" M 18.03 65.02 L 18.97 65.00 C 19.02 66.25 19.08 67.49 19.16 68.74 C 19.12 74.07 18.77 79.43 19.21 84.76 C 18.82 102.79 19.02 120.83 19.04 138.87 C 19.04 139.64 19.03 141.18 19.02 141.95 L 18.03 142.02 C 17.98 116.35 17.97 90.68 18.03 65.02 Z" />
</g>
<g id="#b38400ff">
<path fill="#b38400" opacity="1.00" d=" M 130.97 64.86 L 131.93 65.04 C 132.06 90.69 132.02 116.35 131.96 142.00 L 130.98 141.95 C 130.97 141.18 130.96 139.64 130.96 138.87 C 130.95 121.16 131.22 103.45 130.78 85.75 C 130.95 80.76 131.09 75.75 130.82 70.76 C 130.89 69.09 130.90 67.42 130.91 65.75 L 130.97 64.86 Z" />
</g>
<g id="#00000085">
<path fill="#000000" opacity="0.52" d=" M 136.31 64.72 C 137.99 68.56 136.48 72.99 137.04 77.00 C 136.47 98.73 138.01 120.60 136.26 142.24 C 135.87 116.41 135.76 90.55 136.31 64.72 Z" />
</g>
<g id="#eda500ff">
<path fill="#eda500" opacity="1.00" d=" M 126.02 78.91 C 128.15 74.72 127.17 68.96 130.91 65.75 C 130.90 67.42 130.89 69.09 130.82 70.76 C 128.68 75.19 128.77 80.25 127.91 85.00 C 125.55 101.79 125.45 118.78 124.75 135.69 C 123.67 136.94 122.44 138.05 121.20 139.16 C 120.37 139.11 118.71 139.02 117.88 138.97 C 121.68 136.44 123.96 131.61 123.01 127.03 C 122.26 110.90 124.53 94.92 126.02 78.91 Z" />
</g>
<g id="#fee825ff">
<path fill="#fee825" opacity="1.00" d=" M 30.83 68.86 C 31.92 67.74 33.66 68.14 35.06 67.91 C 62.01 68.06 88.98 68.11 115.94 67.84 C 117.14 67.88 118.22 68.21 119.17 68.85 C 89.72 69.10 60.28 69.09 30.83 68.86 Z" />
</g>
<g id="#e99b00ff">
<path fill="#e99b00" opacity="1.00" d=" M 19.16 68.74 C 21.41 70.79 21.37 74.05 22.23 76.77 C 23.25 92.76 24.90 108.74 24.64 124.78 C 24.55 129.98 23.85 137.05 29.72 139.31 C 30.54 139.84 31.36 140.37 32.18 140.91 C 30.38 140.76 28.59 140.47 26.81 140.18 C 25.34 138.63 23.04 137.40 22.91 135.03 C 20.01 118.47 24.77 100.92 19.21 84.76 C 18.77 79.43 19.12 74.07 19.16 68.74 Z" />
<path fill="#e99b00" opacity="1.00" d=" M 127.91 85.00 C 128.77 80.25 128.68 75.19 130.82 70.76 C 131.09 75.75 130.95 80.76 130.78 85.75 C 127.00 101.09 128.54 117.26 127.86 132.92 C 127.49 135.99 125.53 138.34 123.19 140.20 C 122.63 140.16 121.51 140.09 120.95 140.06 L 121.20 139.16 C 122.44 138.05 123.67 136.94 124.75 135.69 C 125.45 118.78 125.55 101.79 127.91 85.00 Z" />
</g>
<g id="#feed48ff">
<path fill="#feed48" opacity="1.00" d=" M 28.81 70.73 C 29.46 70.08 30.14 69.46 30.83 68.86 C 60.28 69.09 89.72 69.10 119.17 68.85 C 119.90 69.49 120.61 70.16 121.28 70.87 C 117.26 71.78 113.12 72.12 109.01 72.02 C 84.00 71.97 58.99 72.04 33.98 72.00 C 32.16 72.05 30.50 71.26 28.81 70.73 Z" />
</g>
<g id="#f8c00aff">
<path fill="#f8c00a" opacity="1.00" d=" M 122.10 71.22 C 122.55 70.88 123.46 70.19 123.91 69.85 C 123.88 71.59 123.81 75.05 123.78 76.78 C 122.45 83.49 123.15 91.15 119.21 97.09 C 118.19 97.75 117.20 98.45 116.23 99.17 C 114.83 98.28 113.44 97.37 111.90 96.75 C 114.02 93.34 117.09 90.57 119.00 86.98 C 120.45 84.87 122.31 82.71 122.00 79.96 C 122.00 79.46 122.01 78.45 122.02 77.95 C 122.01 77.44 122.01 76.43 122.01 75.93 C 122.02 75.22 122.03 73.82 122.04 73.12 C 122.05 72.64 122.09 71.69 122.10 71.22 Z" />
</g>
<g id="#fee83bff">
<path fill="#fee83b" opacity="1.00" d=" M 28.06 71.03 L 28.81 70.73 C 30.50 71.26 32.16 72.05 33.98 72.00 C 58.99 72.04 84.00 71.97 109.01 72.02 C 113.12 72.12 117.26 71.78 121.28 70.87 L 122.10 71.22 C 122.09 71.69 122.05 72.64 122.04 73.12 C 108.51 75.68 94.69 74.92 81.00 75.00 C 63.34 74.89 45.64 75.55 28.03 73.93 C 28.04 73.21 28.05 71.75 28.06 71.03 Z" />
</g>
<g id="#fde231ff">
<path fill="#fde231" opacity="1.00" d=" M 81.00 75.00 C 94.69 74.92 108.51 75.68 122.04 73.12 C 122.03 73.82 122.02 75.22 122.01 75.93 C 102.43 78.17 82.66 76.48 63.00 77.00 C 51.32 77.10 39.62 77.26 28.00 75.92 C 28.01 75.42 28.02 74.43 28.03 73.93 C 45.64 75.55 63.34 74.89 81.00 75.00 Z" />
</g>
<g id="#fede27ff">
<path fill="#fede27" opacity="1.00" d=" M 28.00 75.92 C 39.62 77.26 51.32 77.10 63.00 77.00 C 82.66 76.48 102.43 78.17 122.01 75.93 C 122.01 76.43 122.01 77.44 122.02 77.95 C 116.86 79.61 111.42 80.20 106.01 80.02 C 84.34 79.99 62.66 80.00 40.99 80.02 C 36.48 80.60 32.22 79.09 27.98 77.93 C 27.98 77.43 27.99 76.42 28.00 75.92 Z" />
</g>
<g id="#efa500ff">
<path fill="#efa500" opacity="1.00" d=" M 22.23 76.77 C 22.71 77.90 23.18 79.03 23.67 80.17 C 26.75 97.57 27.92 115.33 28.03 133.01 C 27.90 135.97 31.27 137.22 33.13 138.98 C 32.28 139.07 30.57 139.23 29.72 139.31 C 23.85 137.05 24.55 129.98 24.64 124.78 C 24.90 108.74 23.25 92.76 22.23 76.77 Z" />
</g>
<g id="#f3ad02ff">
<path fill="#f3ad02" opacity="1.00" d=" M 23.67 80.17 C 24.06 78.90 24.54 77.67 25.10 76.47 C 26.40 79.76 26.85 83.28 27.25 86.77 C 27.97 98.14 29.81 109.43 30.69 120.77 C 30.92 125.73 29.64 131.16 32.32 135.67 C 37.81 139.19 44.75 138.85 50.99 139.02 C 69.96 138.85 88.95 139.28 107.91 138.83 C 111.50 137.72 116.28 138.11 118.72 134.74 C 120.64 126.85 119.63 118.62 120.50 110.61 C 120.67 100.67 123.34 91.05 124.14 81.18 C 124.76 80.42 125.39 79.66 126.02 78.91 C 124.53 94.92 122.26 110.90 123.01 127.03 C 123.96 131.61 121.68 136.44 117.88 138.97 C 100.36 141.19 82.61 139.46 65.00 140.00 C 54.39 139.64 43.62 140.97 33.13 138.98 C 31.27 137.22 27.90 135.97 28.03 133.01 C 27.92 115.33 26.75 97.57 23.67 80.17 Z" />
</g>
<g id="#f7b302ff">
<path fill="#f7b302" opacity="1.00" d=" M 119.21 97.09 C 123.15 91.15 122.45 83.49 123.78 76.78 C 123.90 78.25 124.02 79.71 124.14 81.18 C 123.34 91.05 120.67 100.67 120.50 110.61 C 119.63 118.62 120.64 126.85 118.72 134.74 C 116.28 138.11 111.50 137.72 107.91 138.83 C 88.95 139.28 69.96 138.85 50.99 139.02 C 44.75 138.85 37.81 139.19 32.32 135.67 C 29.64 131.16 30.92 125.73 30.69 120.77 C 29.81 109.43 27.97 98.14 27.25 86.77 C 28.08 90.76 29.63 94.53 31.82 97.97 C 31.86 105.64 34.61 113.22 33.98 121.00 C 34.56 125.50 33.17 131.02 36.17 134.90 C 38.14 135.40 42.08 136.40 44.05 136.90 C 64.37 137.14 84.70 136.96 105.02 137.00 C 108.75 136.56 112.97 136.39 115.88 133.76 C 116.87 128.09 116.01 122.33 116.59 116.64 C 117.41 110.11 118.19 103.59 119.21 97.09 Z" />
</g>
<g id="#fed81dff">
<path fill="#fed81d" opacity="1.00" d=" M 27.98 77.93 C 32.22 79.09 36.48 80.60 40.99 80.02 C 62.66 80.00 84.34 79.99 106.01 80.02 C 111.42 80.20 116.86 79.61 122.02 77.95 C 122.01 78.45 122.00 79.46 122.00 79.96 C 118.82 82.85 114.33 82.85 110.32 83.37 C 90.26 84.79 70.09 83.63 49.99 84.01 C 42.74 83.30 34.14 84.82 27.99 79.96 C 27.99 79.45 27.98 78.44 27.98 77.93 Z" />
</g>
<g id="#fdd113ff">
<path fill="#fdd113" opacity="1.00" d=" M 27.99 79.96 C 34.14 84.82 42.74 83.30 49.99 84.01 C 70.09 83.63 90.26 84.79 110.32 83.37 C 114.33 82.85 118.82 82.85 122.00 79.96 C 122.31 82.71 120.45 84.87 119.00 86.98 C 106.98 91.01 94.38 89.25 81.99 90.01 C 78.20 87.49 73.28 87.45 69.11 89.04 C 59.61 88.78 50.04 89.55 40.57 88.61 C 35.91 89.00 32.80 85.29 28.61 84.18 C 28.07 82.84 28.02 81.38 27.99 79.96 Z" />
</g>
<g id="#fdcb0cff">
<path fill="#fdcb0c" opacity="1.00" d=" M 28.61 84.18 C 32.80 85.29 35.91 89.00 40.57 88.61 C 50.04 89.55 59.61 88.78 69.11 89.04 C 67.86 90.54 66.53 92.01 65.65 93.77 C 65.47 94.08 65.12 94.72 64.94 95.03 C 53.65 94.82 40.49 96.65 31.15 88.78 C 29.91 87.48 28.98 85.96 28.61 84.18 Z" />
</g>
<g id="#e48f00ff">
<path fill="#e48f00" opacity="1.00" d=" M 19.21 84.76 C 24.77 100.92 20.01 118.47 22.91 135.03 C 23.04 137.40 25.34 138.63 26.81 140.18 C 27.14 140.64 27.80 141.55 28.13 142.01 C 24.99 141.31 22.03 140.03 19.04 138.87 C 19.02 120.83 18.82 102.79 19.21 84.76 Z" />
</g>
<g id="#e49000ff">
<path fill="#e49000" opacity="1.00" d=" M 127.86 132.92 C 128.54 117.26 127.00 101.09 130.78 85.75 C 131.22 103.45 130.95 121.16 130.96 138.87 C 127.99 140.02 125.06 141.31 121.92 141.95 C 122.24 141.51 122.87 140.64 123.19 140.20 C 125.53 138.34 127.49 135.99 127.86 132.92 Z" />
</g>
<g id="#fec909ff">
<path fill="#fec909" opacity="1.00" d=" M 81.99 90.01 C 94.38 89.25 106.98 91.01 119.00 86.98 C 117.09 90.57 114.02 93.34 111.90 96.75 C 106.26 98.33 100.21 100.40 94.30 98.87 C 91.56 98.61 88.57 98.18 86.10 99.70 C 85.39 97.77 85.01 95.74 84.30 93.81 C 83.81 92.39 82.84 91.23 81.99 90.01 Z" />
</g>
<g id="#c3901bff">
<path fill="#c3901b" opacity="1.00" d=" M 69.11 89.04 C 73.28 87.45 78.20 87.49 81.99 90.01 C 82.84 91.23 83.81 92.39 84.30 93.81 C 83.70 95.64 83.06 97.46 82.33 99.24 C 83.02 94.65 79.52 90.41 75.00 89.96 C 70.48 90.41 66.97 94.65 67.67 99.24 C 66.93 97.44 66.28 95.60 65.65 93.77 C 66.53 92.01 67.86 90.54 69.11 89.04 Z" />
</g>
<g id="#fec406ff">
<path fill="#fec406" opacity="1.00" d=" M 31.15 88.78 C 40.49 96.65 53.65 94.82 64.94 95.03 C 64.64 97.60 66.23 101.12 63.78 102.72 C 56.55 101.79 49.23 103.18 42.00 102.03 C 38.76 102.19 38.74 96.99 35.06 97.86 C 33.63 94.89 32.72 91.69 31.15 88.78 Z" />
</g>
<g id="#0f0b05ff">
<path fill="#0f0b05" opacity="1.00" d=" M 67.67 99.24 C 66.97 94.65 70.48 90.41 75.00 89.96 C 79.52 90.41 83.02 94.65 82.33 99.24 C 81.69 101.42 79.63 102.64 78.04 104.08 C 75.06 107.36 80.60 118.10 73.09 115.97 C 71.75 112.41 75.05 106.93 71.97 104.06 C 70.38 102.62 68.30 101.43 67.67 99.24 Z" />
</g>
<g id="#febe01ff">
<path fill="#febe01" opacity="1.00" d=" M 64.94 95.03 C 65.12 94.72 65.47 94.08 65.65 93.77 C 66.28 95.60 66.93 97.44 67.67 99.24 C 68.30 101.43 70.38 102.62 71.97 104.06 C 72.01 107.63 72.10 111.22 71.76 114.78 C 70.49 115.83 69.80 117.29 69.89 118.95 C 72.44 118.95 77.56 118.95 80.11 118.95 C 80.20 117.30 79.50 115.85 78.28 114.78 C 78.10 111.21 77.92 107.65 78.04 104.08 C 79.63 102.64 81.69 101.42 82.33 99.24 C 83.06 97.46 83.70 95.64 84.30 93.81 C 85.01 95.74 85.39 97.77 86.10 99.70 C 88.57 98.18 91.56 98.61 94.30 98.87 C 100.21 100.40 106.26 98.33 111.90 96.75 C 113.44 97.37 114.83 98.28 116.23 99.17 C 115.34 101.13 113.21 102.71 113.67 105.06 C 113.84 108.36 110.73 110.68 110.44 113.91 C 109.44 117.20 108.93 120.56 109.83 124.02 C 112.56 128.98 108.01 130.85 105.39 133.42 C 99.28 135.91 92.69 133.39 86.39 134.62 C 75.96 134.80 65.54 134.33 55.11 134.78 C 50.12 133.70 43.49 134.49 40.17 129.71 C 40.27 122.42 41.57 114.29 37.18 107.85 C 36.77 104.31 35.34 101.16 33.87 97.95 L 35.06 97.86 C 38.74 96.99 38.76 102.19 42.00 102.03 C 49.23 103.18 56.55 101.79 63.78 102.72 C 66.23 101.12 64.64 97.60 64.94 95.03 Z" />
</g>
<g id="#fbb900ff">
<path fill="#fbb900" opacity="1.00" d=" M 116.23 99.17 C 117.20 98.45 118.19 97.75 119.21 97.09 C 118.19 103.59 117.41 110.11 116.59 116.64 C 116.01 122.33 116.87 128.09 115.88 133.76 C 112.97 136.39 108.75 136.56 105.02 137.00 C 84.70 136.96 64.37 137.14 44.05 136.90 C 42.08 136.40 38.14 135.40 36.17 134.90 C 33.17 131.02 34.56 125.50 33.98 121.00 C 34.61 113.22 31.86 105.64 31.82 97.97 C 32.33 97.97 33.35 97.95 33.87 97.95 C 35.34 101.16 36.77 104.31 37.18 107.85 C 41.57 114.29 40.27 122.42 40.17 129.71 C 43.49 134.49 50.12 133.70 55.11 134.78 C 65.54 134.33 75.96 134.80 86.39 134.62 C 92.69 133.39 99.28 135.91 105.39 133.42 C 108.01 130.85 112.56 128.98 109.83 124.02 C 108.93 120.56 109.44 117.20 110.44 113.91 C 110.73 110.68 113.84 108.36 113.67 105.06 C 113.21 102.71 115.34 101.13 116.23 99.17 Z" />
</g>
<g id="#413200ff">
<path fill="#413200" opacity="1.00" d=" M 71.97 104.06 C 75.05 106.93 71.75 112.41 73.09 115.97 C 80.60 118.10 75.06 107.36 78.04 104.08 C 77.92 107.65 78.10 111.21 78.28 114.78 C 78.95 118.77 70.93 118.41 71.76 114.78 C 72.10 111.22 72.01 107.63 71.97 104.06 Z" />
</g>
<g id="#feda00ff">
<path fill="#feda00" opacity="1.00" d=" M 69.89 118.95 C 69.80 117.29 70.49 115.83 71.76 114.78 C 70.93 118.41 78.95 118.77 78.28 114.78 C 79.50 115.85 80.20 117.30 80.11 118.95 C 77.56 118.95 72.44 118.95 69.89 118.95 Z" />
</g>
<g id="#d4850bff">
<path fill="#d4850b" opacity="1.00" d=" M 19.04 138.87 C 22.03 140.03 24.99 141.31 28.13 142.01 C 29.72 142.44 31.32 142.83 32.95 143.09 C 32.96 143.56 33.00 144.51 33.01 144.99 C 29.36 145.00 25.70 145.03 22.04 144.98 C 20.69 144.69 19.29 143.31 19.02 141.95 C 19.03 141.18 19.04 139.64 19.04 138.87 Z" />
</g>
<g id="#eca50aff">
<path fill="#eca50a" opacity="1.00" d=" M 29.72 139.31 C 30.57 139.23 32.28 139.07 33.13 138.98 C 43.62 140.97 54.39 139.64 65.00 140.00 C 82.61 139.46 100.36 141.19 117.88 138.97 C 118.71 139.02 120.37 139.11 121.20 139.16 L 120.95 140.06 C 108.50 142.93 95.66 141.83 83.00 142.00 C 66.07 141.61 49.04 142.99 32.18 140.91 C 31.36 140.37 30.54 139.84 29.72 139.31 Z" />
</g>
<g id="#d5860bff">
<path fill="#d5860b" opacity="1.00" d=" M 121.92 141.95 C 125.06 141.31 127.99 140.02 130.96 138.87 C 130.96 139.64 130.97 141.18 130.98 141.95 C 130.71 143.33 129.30 144.67 127.96 145.00 C 124.54 145.00 121.14 145.01 117.73 144.92 C 118.13 143.24 119.80 142.83 121.14 142.15 L 121.92 141.95 Z" />
</g>
<g id="#e29a0dff">
<path fill="#e29a0d" opacity="1.00" d=" M 26.81 140.18 C 28.59 140.47 30.38 140.76 32.18 140.91 C 49.04 142.99 66.07 141.61 83.00 142.00 C 95.66 141.83 108.50 142.93 120.95 140.06 C 121.51 140.09 122.63 140.16 123.19 140.20 C 122.87 140.64 122.24 141.51 121.92 141.95 L 121.14 142.15 C 91.80 144.05 62.34 142.42 32.95 143.09 C 31.32 142.83 29.72 142.44 28.13 142.01 C 27.80 141.55 27.14 140.64 26.81 140.18 Z" />
</g>
<g id="#da9212ff">
<path fill="#da9212" opacity="1.00" d=" M 32.95 143.09 C 62.34 142.42 91.80 144.05 121.14 142.15 C 119.80 142.83 118.13 143.24 117.73 144.92 C 89.49 145.09 61.25 144.97 33.01 144.99 C 33.00 144.51 32.96 143.56 32.95 143.09 Z" />
</g>
<g id="#4a3a10fe">
<path fill="#4a3a10" opacity="1.00" d=" M 22.04 144.98 C 25.70 145.03 29.36 145.00 33.01 144.99 C 61.25 144.97 89.49 145.09 117.73 144.92 C 121.14 145.01 124.54 145.00 127.96 145.00 L 128.01 145.97 C 92.67 146.02 57.34 146.03 22.00 145.96 L 22.04 144.98 Z" />
</g>
</svg>
