<?xml version="1.0" encoding="UTF-8" ?>
<!DOCTYPE svg PUBLIC "-//W3C//DTD SVG 1.1//EN" "http://www.w3.org/Graphics/SVG/1.1/DTD/svg11.dtd">
<svg width="150pt" height="159pt" viewBox="0 0 150 159" version="1.1" xmlns="http://www.w3.org/2000/svg">
<g id="#000000ff">
<path fill="#000000" opacity="1.00" d=" M 53.41 13.44 C 63.29 9.94 73.96 9.38 84.29 10.55 C 101.93 13.07 118.45 22.68 129.18 36.92 C 144.28 56.20 147.54 83.63 138.21 106.15 C 131.93 121.58 119.76 134.45 104.86 141.84 C 91.70 148.12 76.50 150.58 62.15 147.55 C 40.01 143.57 20.77 127.74 11.84 107.20 C 13.44 104.65 16.03 102.85 18.97 102.21 C 25.04 100.78 31.68 98.52 37.68 101.41 C 43.47 111.98 53.91 119.90 65.73 122.32 C 78.09 124.94 91.48 121.22 100.87 112.79 C 115.82 99.94 119.83 76.62 110.70 59.28 C 105.37 48.29 94.89 40.00 83.02 37.21 C 71.04 34.08 57.86 37.52 48.31 45.22 C 42.93 49.31 39.18 55.06 36.01 60.95 C 39.58 62.82 43.78 63.86 46.45 67.08 C 46.75 69.69 43.98 70.39 42.14 71.27 C 35.38 74.10 28.64 77.20 21.45 78.65 C 17.78 79.91 14.25 81.81 10.33 82.16 C 9.59 81.40 8.85 80.65 8.10 79.89 C 6.45 70.88 4.13 62.01 2.30 53.03 C 2.03 50.72 1.86 48.37 0.96 46.20 C 1.68 45.10 2.35 43.95 3.28 43.01 C 7.75 41.48 9.98 46.61 13.67 47.96 C 21.55 31.74 36.29 19.06 53.41 13.44 M 40.18 24.17 C 30.02 30.59 22.25 40.16 16.72 50.73 C 16.08 50.98 14.78 51.47 14.14 51.72 C 11.00 51.30 8.23 49.76 5.89 47.68 C 6.79 53.14 8.63 58.42 9.14 63.95 C 10.28 68.13 11.66 72.28 12.03 76.63 C 16.49 75.33 20.72 73.14 25.39 72.68 C 29.86 70.36 34.93 69.40 39.30 66.83 C 36.55 65.74 33.72 64.54 31.82 62.15 C 31.46 57.97 34.09 54.50 36.23 51.18 C 44.51 38.92 59.09 30.72 74.02 31.37 C 80.78 31.13 87.51 32.59 93.54 35.68 C 109.53 43.22 119.85 60.50 120.02 78.02 C 120.42 91.68 114.78 105.42 104.78 114.76 C 96.71 122.19 85.96 126.93 74.93 126.98 C 59.69 127.59 44.66 119.49 36.21 106.89 C 35.28 105.86 34.79 103.88 33.09 104.00 C 27.56 103.52 22.11 105.26 17.01 107.17 C 24.22 121.68 36.66 133.64 51.89 139.38 C 67.34 145.61 85.28 145.15 100.45 138.30 C 122.93 128.71 138.39 105.37 139.10 81.04 C 139.63 68.04 135.87 54.98 129.02 43.95 C 120.99 30.95 108.06 21.14 93.48 16.64 C 75.77 11.13 55.65 13.87 40.18 24.17 Z" />
</g>
<g id="#ffffffff">
<path fill="#ffffff" opacity="1.00" d=" M 40.18 24.17 C 55.65 13.87 75.77 11.13 93.48 16.64 C 108.06 21.14 120.99 30.95 129.02 43.95 C 135.87 54.98 139.63 68.04 139.10 81.04 C 138.39 105.37 122.93 128.71 100.45 138.30 C 85.28 145.15 67.34 145.61 51.89 139.38 C 36.66 133.64 24.22 121.68 17.01 107.17 C 22.11 105.26 27.56 103.52 33.09 104.00 C 34.79 103.88 35.28 105.86 36.21 106.89 C 44.66 119.49 59.69 127.59 74.93 126.98 C 85.96 126.93 96.71 122.19 104.78 114.76 C 114.78 105.42 120.42 91.68 120.02 78.02 C 119.85 60.50 109.53 43.22 93.54 35.68 C 87.51 32.59 80.78 31.13 74.02 31.37 C 59.09 30.72 44.51 38.92 36.23 51.18 C 34.09 54.50 31.46 57.97 31.82 62.15 C 33.72 64.54 36.55 65.74 39.30 66.83 C 34.93 69.40 29.86 70.36 25.39 72.68 C 20.72 73.14 16.49 75.33 12.03 76.63 C 11.66 72.28 10.28 68.13 9.14 63.95 C 8.63 58.42 6.79 53.14 5.89 47.68 C 8.23 49.76 11.00 51.30 14.14 51.72 C 14.78 51.47 16.08 50.98 16.72 50.73 C 22.25 40.16 30.02 30.59 40.18 24.17 Z" />
</g>
</svg>
