<?xml version="1.0" encoding="UTF-8" ?>
<!DOCTYPE svg PUBLIC "-//W3C//DTD SVG 1.1//EN" "http://www.w3.org/Graphics/SVG/1.1/DTD/svg11.dtd">
<svg width="150pt" height="147pt" viewBox="0 0 150 147" version="1.1" xmlns="http://www.w3.org/2000/svg">
<g id="#000000ff">
<path fill="#000000" opacity="1.00" d=" M 63.25 11.19 C 70.41 11.03 77.64 10.60 84.77 11.20 C 89.87 14.57 83.61 21.63 86.95 26.03 C 89.11 30.99 95.56 31.16 99.74 28.73 C 101.86 26.57 102.77 23.65 104.15 21.04 C 105.79 21.09 109.06 21.20 110.69 21.25 C 114.39 27.70 121.93 31.22 124.99 38.05 C 126.21 43.44 117.54 43.57 117.59 48.68 C 115.81 52.34 117.27 56.42 120.25 58.73 C 124.95 60.50 130.25 59.25 134.89 61.18 C 134.90 68.71 135.41 76.28 134.83 83.80 C 132.67 86.26 129.35 87.70 125.98 86.95 C 121.19 86.96 116.85 92.28 117.98 97.03 C 117.56 102.18 125.08 103.75 125.00 108.95 C 122.83 114.05 117.85 117.21 114.26 121.26 C 112.10 123.84 108.15 125.11 105.38 122.70 C 104.52 120.20 103.39 117.30 100.72 116.30 C 95.12 112.53 86.19 118.11 88.08 125.01 C 89.64 128.99 87.35 131.63 84.72 133.79 C 77.49 134.13 70.23 134.09 62.99 133.99 C 60.74 134.29 59.65 132.00 58.20 130.73 C 56.41 126.95 60.58 124.54 59.98 121.06 C 58.67 116.82 55.01 112.68 49.97 113.98 C 46.02 114.17 43.65 117.85 41.77 120.89 C 40.12 120.88 36.84 120.87 35.19 120.86 C 31.39 115.09 24.80 111.49 22.00 105.00 C 22.69 102.28 24.89 100.56 27.17 99.17 C 32.13 94.28 27.61 82.88 20.00 85.00 C 16.66 86.88 14.95 84.52 13.18 82.75 C 13.01 76.86 12.70 70.94 13.10 65.05 C 13.94 62.71 14.59 59.14 19.03 62.01 C 25.26 61.48 33.28 56.92 30.67 49.28 C 30.70 44.16 22.06 43.91 24.17 38.21 C 29.31 33.60 33.88 28.47 38.18 23.09 C 44.66 19.73 44.71 27.22 48.96 29.05 C 53.26 31.85 59.37 29.69 61.04 25.03 C 63.71 20.89 58.15 14.14 63.25 11.19 M 66.12 16.05 C 65.87 21.49 66.76 28.90 60.97 31.97 C 56.11 37.33 48.12 34.86 43.39 30.71 C 42.55 29.62 42.11 27.21 40.26 28.23 C 36.54 31.86 32.93 35.60 29.22 39.25 C 28.17 40.58 30.54 41.07 31.19 41.84 C 35.47 45.01 36.95 51.48 35.37 56.35 C 32.54 62.99 24.93 66.22 18.09 66.13 C 17.80 70.70 18.01 75.29 18.06 79.87 C 22.42 80.58 28.74 80.13 31.00 85.00 C 36.40 91.19 33.68 100.95 27.20 105.17 C 30.14 109.53 34.91 113.34 38.81 116.93 C 42.68 106.75 59.40 106.49 63.02 116.97 C 65.30 120.65 63.16 124.96 62.98 128.96 C 69.61 129.07 76.24 129.07 82.87 128.96 C 83.09 123.32 83.14 115.94 89.00 113.00 C 95.75 108.25 105.92 111.42 109.18 118.88 C 113.89 117.12 115.42 111.30 119.85 108.81 C 116.96 105.59 114.56 101.99 113.04 97.92 C 111.49 88.50 120.96 80.79 129.92 81.87 C 130.22 75.95 129.97 70.01 129.96 64.08 C 127.31 63.98 121.99 63.77 119.34 63.66 C 112.79 60.58 110.58 51.98 113.62 45.67 C 114.63 42.52 118.23 41.38 120.11 38.99 C 116.35 33.90 112.11 29.14 107.31 25.01 C 104.93 36.07 87.61 38.22 83.05 27.97 C 79.82 24.52 81.68 20.12 82.01 16.04 C 76.71 15.92 71.42 15.93 66.12 16.05 Z" />
<path fill="#000000" opacity="1.00" d=" M 69.33 53.39 C 75.90 51.68 82.13 54.30 87.84 57.19 C 92.66 62.88 97.41 71.35 93.85 78.87 C 91.41 87.00 83.70 93.51 75.00 93.01 C 66.43 93.80 57.77 88.14 55.09 79.94 C 50.80 68.98 57.83 55.79 69.33 53.39 M 71.35 57.42 C 65.69 58.98 60.49 63.14 59.15 69.08 C 56.64 76.83 61.61 85.43 69.30 87.65 C 75.65 90.65 83.02 87.02 87.15 82.13 C 91.82 75.73 90.40 66.44 84.85 61.14 C 80.73 58.89 76.42 55.37 71.35 57.42 Z" />
</g>
<g id="#8c8a8aff">
<path fill="#8c8a8a" opacity="1.00" d=" M 66.12 16.05 C 71.42 15.93 76.71 15.92 82.01 16.04 C 81.68 20.12 79.82 24.52 83.05 27.97 C 87.61 38.22 104.93 36.07 107.31 25.01 C 112.11 29.14 116.35 33.90 120.11 38.99 C 118.23 41.38 114.63 42.52 113.62 45.67 C 110.58 51.98 112.79 60.58 119.34 63.66 C 121.99 63.77 127.31 63.98 129.96 64.08 C 129.97 70.01 130.22 75.95 129.92 81.87 C 120.96 80.79 111.49 88.50 113.04 97.92 C 114.56 101.99 116.96 105.59 119.85 108.81 C 115.42 111.30 113.89 117.12 109.18 118.88 C 105.92 111.42 95.75 108.25 89.00 113.00 C 83.14 115.94 83.09 123.32 82.87 128.96 C 76.24 129.07 69.61 129.07 62.98 128.96 C 63.16 124.96 65.30 120.65 63.02 116.97 C 59.40 106.49 42.68 106.75 38.81 116.93 C 34.91 113.34 30.14 109.53 27.20 105.17 C 33.68 100.95 36.40 91.19 31.00 85.00 C 28.74 80.13 22.42 80.58 18.06 79.87 C 18.01 75.29 17.80 70.70 18.09 66.13 C 24.93 66.22 32.54 62.99 35.37 56.35 C 36.95 51.48 35.47 45.01 31.19 41.84 C 30.54 41.07 28.17 40.58 29.22 39.25 C 32.93 35.60 36.54 31.86 40.26 28.23 C 42.11 27.21 42.55 29.62 43.39 30.71 C 48.12 34.86 56.11 37.33 60.97 31.97 C 66.76 28.90 65.87 21.49 66.12 16.05 M 69.33 53.39 C 57.83 55.79 50.80 68.98 55.09 79.94 C 57.77 88.14 66.43 93.80 75.00 93.01 C 83.70 93.51 91.41 87.00 93.85 78.87 C 97.41 71.35 92.66 62.88 87.84 57.19 C 82.13 54.30 75.90 51.68 69.33 53.39 Z" />
</g>
</svg>
