<?xml version="1.0" encoding="UTF-8" ?>
<!DOCTYPE svg PUBLIC "-//W3C//DTD SVG 1.1//EN" "http://www.w3.org/Graphics/SVG/1.1/DTD/svg11.dtd">
<svg width="150pt" height="148pt" viewBox="0 0 150 148" version="1.1" xmlns="http://www.w3.org/2000/svg">
<g id="#000000b5">
<path fill="#000000" opacity="0.71" d=" M 98.96 13.90 C 108.94 14.99 118.88 18.72 126.21 25.74 C 143.82 41.52 149.72 67.42 145.00 90.06 C 141.79 105.47 133.21 120.20 119.82 128.87 C 113.51 132.65 106.35 135.20 98.95 135.44 C 98.95 132.06 98.92 128.68 99.00 125.30 C 103.23 125.38 107.13 123.69 111.01 122.26 C 111.49 122.70 111.99 123.10 112.49 123.53 C 108.51 125.11 104.42 126.44 100.17 127.10 C 100.18 129.11 100.19 131.11 100.19 133.12 C 111.01 131.95 121.25 126.59 128.41 118.39 C 149.69 94.33 149.60 54.61 128.32 30.57 C 121.17 22.47 110.97 17.17 100.24 15.93 C 100.22 17.91 100.20 19.89 100.18 21.87 C 103.72 22.62 107.27 23.41 110.59 24.90 C 110.02 25.46 109.46 26.03 108.90 26.61 C 105.72 25.32 102.36 24.56 98.96 24.14 C 98.94 20.72 98.94 17.31 98.96 13.90 Z" />
<path fill="#000000" opacity="0.71" d=" M 126.24 39.58 C 126.72 39.10 127.21 38.63 127.69 38.15 C 143.39 58.53 143.66 89.35 128.35 110.01 C 127.77 109.55 127.20 109.08 126.64 108.61 C 128.24 107.88 128.92 106.12 129.83 104.74 C 141.69 84.92 140.45 57.92 126.24 39.58 Z" />
<path fill="#000000" opacity="0.71" d=" M 114.30 51.40 C 114.74 50.96 115.19 50.52 115.64 50.09 C 120.01 55.55 123.14 62.06 124.08 69.03 C 124.32 72.34 124.19 75.66 124.22 78.97 C 124.29 86.25 121.26 93.18 117.29 99.14 C 116.76 98.61 116.24 98.09 115.72 97.56 C 126.07 84.36 124.99 64.12 114.30 51.40 Z" />
<path fill="#000000" opacity="0.71" d=" M 106.95 58.69 C 107.26 58.38 107.88 57.76 108.19 57.45 C 116.70 66.97 116.81 81.69 110.65 92.47 C 110.08 91.90 109.51 91.33 108.95 90.75 C 112.86 83.79 114.43 75.14 111.66 67.48 C 110.76 64.23 108.78 61.47 106.95 58.69 Z" />
</g>
<g id="#b3b3b3b3">
<path fill="#b3b3b3" opacity="0.70" d=" M 100.24 15.93 C 110.97 17.17 121.17 22.47 128.32 30.57 C 149.60 54.61 149.69 94.33 128.41 118.39 C 121.25 126.59 111.01 131.95 100.19 133.12 C 100.19 131.11 100.18 129.11 100.17 127.10 C 104.42 126.44 108.51 125.11 112.49 123.53 C 113.26 124.21 114.01 124.89 114.76 125.59 C 119.56 120.96 124.35 116.32 129.01 111.54 C 128.84 111.16 128.52 110.39 128.35 110.01 C 143.66 89.35 143.39 58.53 127.69 38.15 C 128.19 37.65 129.19 36.66 129.69 36.16 C 124.76 30.97 119.66 25.97 114.58 20.93 C 113.25 22.26 111.92 23.57 110.59 24.90 C 107.27 23.41 103.72 22.62 100.18 21.87 C 100.20 19.89 100.22 17.91 100.24 15.93 Z" />
<path fill="#b3b3b3" opacity="0.70" d=" M 59.65 40.68 C 67.85 35.57 75.63 29.84 83.78 24.65 C 83.71 33.60 83.69 42.54 83.78 51.48 C 81.52 53.76 79.27 56.05 76.96 58.28 C 71.24 52.36 65.35 46.61 59.65 40.68 Z" />
<path fill="#b3b3b3" opacity="0.70" d=" M 115.64 50.09 C 116.53 49.22 117.42 48.34 118.31 47.47 C 124.53 54.55 127.61 63.76 128.92 72.96 C 128.26 77.38 128.35 81.92 127.17 86.26 C 125.69 91.82 123.20 97.11 119.84 101.78 C 118.99 100.90 118.15 100.01 117.29 99.14 C 121.26 93.18 124.29 86.25 124.22 78.97 C 124.19 75.66 124.32 72.34 124.08 69.03 C 123.14 62.06 120.01 55.55 115.64 50.09 Z" />
<path fill="#b3b3b3" opacity="0.70" d=" M 31.95 59.32 C 35.48 57.11 38.94 54.79 42.38 52.46 C 49.05 59.26 55.85 65.94 62.41 72.85 C 54.40 80.80 46.31 88.67 38.34 96.66 C 36.20 95.33 34.06 94.00 31.91 92.69 C 31.77 81.57 31.67 70.44 31.95 59.32 Z" />
<path fill="#b3b3b3" opacity="0.70" d=" M 104.15 61.40 C 105.08 60.49 106.03 59.60 106.95 58.69 C 108.78 61.47 110.76 64.23 111.66 67.48 C 114.43 75.14 112.86 83.79 108.95 90.75 C 108.18 89.97 107.41 89.19 106.65 88.40 C 110.56 79.84 110.12 68.94 104.15 61.40 Z" />
<path fill="#b3b3b3" opacity="0.70" d=" M 5.74 62.90 C 9.23 62.89 12.71 62.89 16.19 62.90 C 16.21 72.27 16.19 81.63 16.21 91.00 C 12.71 91.00 9.22 91.00 5.72 91.00 C 5.76 81.63 5.72 72.27 5.74 62.90 Z" />
<path fill="#b3b3b3" opacity="0.70" d=" M 92.01 73.52 C 93.89 71.74 95.70 69.89 97.51 68.04 C 99.79 71.89 100.83 76.42 99.80 80.85 C 96.82 78.84 94.63 75.94 92.01 73.52 Z" />
<path fill="#b3b3b3" opacity="0.70" d=" M 77.48 87.99 C 79.62 90.12 81.73 92.27 83.80 94.45 C 83.72 104.61 83.62 114.78 83.85 124.93 C 74.89 119.43 66.07 113.71 57.04 108.34 C 63.80 101.51 70.70 94.81 77.48 87.99 Z" />
<path fill="#b3b3b3" opacity="0.70" d=" M 96.98 113.14 C 98.32 112.72 99.59 111.60 101.07 112.00 C 102.08 112.76 102.89 113.74 103.75 114.66 C 101.53 115.55 99.31 116.46 97.04 117.21 C 97.02 115.85 97.00 114.50 96.98 113.14 Z" />
</g>
<g id="#000000b3">
<path fill="#000000" opacity="0.70" d=" M 57.21 38.25 C 67.69 31.66 77.81 24.49 88.18 17.70 C 88.22 27.51 88.20 37.32 88.19 47.13 C 86.74 48.60 85.25 50.03 83.78 51.48 C 83.69 42.54 83.71 33.60 83.78 24.65 C 75.63 29.84 67.85 35.57 59.65 40.68 C 58.84 39.86 58.02 39.06 57.21 38.25 Z" />
<path fill="#000000" opacity="0.70" d=" M 118.31 47.47 C 118.87 46.91 119.43 46.34 119.98 45.78 C 124.08 50.86 127.39 56.65 129.17 62.95 C 133.25 76.71 129.81 91.98 121.55 103.54 C 120.98 102.95 120.41 102.37 119.84 101.78 C 123.20 97.11 125.69 91.82 127.17 86.26 C 128.35 81.92 128.26 77.38 128.92 72.96 C 127.61 63.76 124.53 54.55 118.31 47.47 Z" />
<path fill="#000000" opacity="0.70" d=" M 28.31 58.22 C 31.93 55.16 36.06 52.59 40.20 50.26 C 40.93 50.99 41.66 51.73 42.38 52.46 C 38.94 54.79 35.48 57.11 31.95 59.32 C 31.67 70.44 31.77 81.57 31.91 92.69 C 34.06 94.00 36.20 95.33 38.34 96.66 C 37.11 97.92 35.90 99.19 34.65 100.42 C 32.77 98.50 30.34 97.30 28.16 95.77 C 28.18 83.26 27.83 70.73 28.31 58.22 Z" />
<path fill="#000000" opacity="0.70" d=" M 1.93 59.13 C 8.27 59.19 14.61 59.03 20.95 59.15 C 20.92 71.34 21.02 83.52 20.89 95.70 C 14.63 95.68 8.36 95.61 2.10 95.75 C 1.68 83.56 2.00 71.34 1.93 59.13 M 5.74 62.90 C 5.72 72.27 5.76 81.63 5.72 91.00 C 9.22 91.00 12.71 91.00 16.21 91.00 C 16.19 81.63 16.21 72.27 16.19 62.90 C 12.71 62.89 9.23 62.89 5.74 62.90 Z" />
<path fill="#000000" opacity="0.70" d=" M 102.72 62.83 C 103.08 62.47 103.79 61.76 104.15 61.40 C 110.12 68.94 110.56 79.84 106.65 88.40 C 105.87 87.59 105.09 86.79 104.31 85.98 C 104.65 85.99 105.33 85.99 105.68 86.00 C 108.59 78.33 107.36 69.55 102.72 62.83 Z" />
<path fill="#000000" opacity="0.70" d=" M 83.80 94.45 C 85.23 95.92 86.69 97.35 88.15 98.78 C 88.23 110.21 88.25 121.63 88.14 133.06 C 76.71 125.87 65.09 118.99 53.81 111.57 C 54.91 110.51 55.97 109.43 57.04 108.34 C 66.07 113.71 74.89 119.43 83.85 124.93 C 83.62 114.78 83.72 104.61 83.80 94.45 Z" />
</g>
<g id="#000000ff">
<path fill="#000000" opacity="1.00" d=" M 25.22 35.07 C 30.10 30.26 34.66 25.11 39.91 20.67 C 45.62 26.59 51.44 32.39 57.21 38.25 C 58.02 39.06 58.84 39.86 59.65 40.68 C 65.35 46.61 71.24 52.36 76.96 58.28 C 79.27 56.05 81.52 53.76 83.78 51.48 C 85.25 50.03 86.74 48.60 88.19 47.13 C 90.60 44.69 93.06 42.31 95.51 39.91 C 95.61 37.35 95.60 34.79 95.49 32.23 C 97.93 31.53 99.72 33.81 102.05 33.19 C 104.57 31.26 106.64 28.82 108.90 26.61 C 109.46 26.03 110.02 25.46 110.59 24.90 C 111.92 23.57 113.25 22.26 114.58 20.93 C 119.66 25.97 124.76 30.97 129.69 36.16 C 129.19 36.66 128.19 37.65 127.69 38.15 C 127.21 38.63 126.72 39.10 126.24 39.58 C 124.14 41.63 122.05 43.69 119.98 45.78 C 119.43 46.34 118.87 46.91 118.31 47.47 C 117.42 48.34 116.53 49.22 115.64 50.09 C 115.19 50.52 114.74 50.96 114.30 51.40 C 112.27 53.42 110.23 55.43 108.19 57.45 C 107.88 57.76 107.26 58.38 106.95 58.69 C 106.03 59.60 105.08 60.49 104.15 61.40 C 103.79 61.76 103.08 62.47 102.72 62.83 C 101.48 64.05 100.22 65.25 98.96 66.45 C 102.30 71.29 102.17 77.27 101.33 82.85 C 102.31 83.90 103.29 84.96 104.31 85.98 C 105.09 86.79 105.87 87.59 106.65 88.40 C 107.41 89.19 108.18 89.97 108.95 90.75 C 109.51 91.33 110.08 91.90 110.65 92.47 C 112.35 94.15 114.03 95.86 115.72 97.56 C 116.24 98.09 116.76 98.61 117.29 99.14 C 118.15 100.01 118.99 100.90 119.84 101.78 C 120.41 102.37 120.98 102.95 121.55 103.54 C 123.25 105.23 124.88 106.98 126.64 108.61 C 127.20 109.08 127.77 109.55 128.35 110.01 C 128.52 110.39 128.84 111.16 129.01 111.54 C 124.35 116.32 119.56 120.96 114.76 125.59 C 114.01 124.89 113.26 124.21 112.49 123.53 C 111.99 123.10 111.49 122.70 111.01 122.26 C 109.35 120.03 107.26 118.20 105.33 116.23 C 102.04 117.18 98.95 119.20 95.39 118.77 C 95.60 118.07 96.02 116.68 96.24 115.99 C 96.80 114.18 96.39 112.87 95.02 112.06 C 96.06 111.27 97.33 111.02 98.82 111.32 C 99.23 108.76 96.55 107.53 95.13 105.86 C 92.34 103.97 90.65 101.00 88.15 98.78 C 86.69 97.35 85.23 95.92 83.80 94.45 C 81.73 92.27 79.62 90.12 77.48 87.99 C 70.70 94.81 63.80 101.51 57.04 108.34 C 55.97 109.43 54.91 110.51 53.81 111.57 C 49.03 115.99 44.48 120.64 39.98 125.33 C 34.70 120.59 29.93 115.34 24.82 110.43 C 27.74 106.77 31.39 103.77 34.65 100.42 C 35.90 99.19 37.11 97.92 38.34 96.66 C 46.31 88.67 54.40 80.80 62.41 72.85 C 55.85 65.94 49.05 59.26 42.38 52.46 C 41.66 51.73 40.93 50.99 40.20 50.26 C 35.27 45.13 30.17 40.18 25.22 35.07 M 39.52 27.90 C 37.17 30.49 34.56 32.83 32.20 35.41 C 43.29 46.46 54.15 57.74 65.27 68.75 C 67.58 70.62 68.01 74.70 65.71 76.72 C 54.33 87.92 43.01 99.20 31.70 110.48 C 34.31 113.21 36.85 116.02 39.86 118.32 C 50.79 107.09 62.20 96.33 73.21 85.17 C 75.00 83.02 78.39 82.36 80.55 84.34 C 91.93 95.79 103.21 107.35 114.62 118.78 C 117.11 116.38 119.40 113.78 122.01 111.51 C 115.50 105.18 109.21 98.62 102.80 92.19 C 97.86 86.44 91.90 81.63 87.12 75.74 C 85.48 71.15 90.30 68.69 92.74 65.71 C 102.52 55.94 112.34 46.19 122.26 36.56 C 119.96 33.55 117.01 31.09 114.42 28.33 C 103.30 39.22 92.31 50.23 81.29 61.22 C 80.16 62.53 78.59 63.23 76.99 63.75 C 75.64 63.26 74.09 63.06 73.14 61.87 C 61.93 50.55 50.74 39.21 39.52 27.90 M 96.94 33.68 C 96.93 35.26 96.93 36.84 96.95 38.43 C 98.11 37.41 99.21 36.34 100.28 35.23 C 99.17 34.71 98.06 34.19 96.94 33.68 M 92.01 73.52 C 94.63 75.94 96.82 78.84 99.80 80.85 C 100.83 76.42 99.79 71.89 97.51 68.04 C 95.70 69.89 93.89 71.74 92.01 73.52 M 96.98 113.14 C 97.00 114.50 97.02 115.85 97.04 117.21 C 99.31 116.46 101.53 115.55 103.75 114.66 C 102.89 113.74 102.08 112.76 101.07 112.00 C 99.59 111.60 98.32 112.72 96.98 113.14 Z" />
</g>
<g id="#d2d2d2ff">
<path fill="#d2d2d2" opacity="1.00" d=" M 39.52 27.90 C 50.74 39.21 61.93 50.55 73.14 61.87 C 74.09 63.06 75.64 63.26 76.99 63.75 C 78.59 63.23 80.16 62.53 81.29 61.22 C 92.31 50.23 103.30 39.22 114.42 28.33 C 117.01 31.09 119.96 33.55 122.26 36.56 C 112.34 46.19 102.52 55.94 92.74 65.71 C 90.30 68.69 85.48 71.15 87.12 75.74 C 91.90 81.63 97.86 86.44 102.80 92.19 C 109.21 98.62 115.50 105.18 122.01 111.51 C 119.40 113.78 117.11 116.38 114.62 118.78 C 103.21 107.35 91.93 95.79 80.55 84.34 C 78.39 82.36 75.00 83.02 73.21 85.17 C 62.20 96.33 50.79 107.09 39.86 118.32 C 36.85 116.02 34.31 113.21 31.70 110.48 C 43.01 99.20 54.33 87.92 65.71 76.72 C 68.01 74.70 67.58 70.62 65.27 68.75 C 54.15 57.74 43.29 46.46 32.20 35.41 C 34.56 32.83 37.17 30.49 39.52 27.90 Z" />
</g>
<g id="#a0a0a0b8">
<path fill="#a0a0a0" opacity="0.72" d=" M 96.94 33.68 C 98.06 34.19 99.17 34.71 100.28 35.23 C 99.21 36.34 98.11 37.41 96.95 38.43 C 96.93 36.84 96.93 35.26 96.94 33.68 Z" />
</g>
</svg>
