<?xml version="1.0" encoding="UTF-8" ?>
<!DOCTYPE svg PUBLIC "-//W3C//DTD SVG 1.1//EN" "http://www.w3.org/Graphics/SVG/1.1/DTD/svg11.dtd">
<svg width="150pt" height="148pt" viewBox="0 0 150 148" version="1.1" xmlns="http://www.w3.org/2000/svg">
<g id="#000000ff">
<path fill="#000000" opacity="1.00" d=" M 98.95 13.87 C 109.42 15.05 119.83 19.11 127.27 26.75 C 135.95 34.64 141.40 45.51 144.36 56.74 C 149.15 76.00 146.22 97.48 134.92 113.98 C 126.93 126.03 113.60 134.86 98.94 135.50 C 98.94 132.13 98.95 128.76 98.96 125.39 C 108.96 124.58 118.31 119.26 124.79 111.69 C 143.74 89.69 142.16 52.39 119.95 33.16 C 114.09 28.07 106.59 25.13 98.95 24.10 C 98.95 20.69 98.95 17.28 98.95 13.87 M 100.25 15.86 C 100.22 17.86 100.20 19.86 100.18 21.86 C 108.58 23.38 116.86 26.85 122.76 33.20 C 128.35 38.19 132.53 44.58 135.36 51.49 C 140.13 64.01 140.90 77.95 137.48 90.90 C 134.08 104.85 124.48 117.36 111.61 123.80 C 107.94 125.36 104.09 126.44 100.16 127.11 C 100.19 129.13 100.19 131.16 100.19 133.18 C 108.11 132.15 115.89 129.19 122.20 124.24 C 135.80 113.39 143.05 96.07 144.25 79.01 C 145.32 61.65 139.89 43.68 128.32 30.55 C 121.17 22.41 110.95 17.27 100.25 15.86 Z" />
<path fill="#000000" opacity="1.00" d=" M 37.58 51.71 C 54.42 40.29 71.35 29.01 88.21 17.62 C 88.17 31.83 88.25 46.03 88.17 60.24 C 91.51 61.00 94.91 62.16 97.33 64.71 C 103.01 69.96 103.91 79.30 99.79 85.75 C 97.40 89.98 92.77 92.23 88.22 93.34 C 88.19 106.60 88.20 119.87 88.22 133.13 C 68.26 120.58 48.07 108.40 28.16 95.78 C 28.22 83.27 27.75 70.72 28.37 58.23 C 31.06 55.59 34.53 53.90 37.58 51.71 M 31.93 59.33 C 31.72 69.90 31.72 80.48 31.90 91.05 C 31.49 92.85 33.29 93.53 34.50 94.33 C 50.98 104.48 67.42 114.69 83.84 124.94 C 83.54 113.48 83.91 102.01 83.64 90.55 C 83.88 79.05 83.03 67.53 83.70 56.03 C 83.81 45.57 83.65 35.10 83.78 24.64 C 66.41 36.08 49.36 47.99 31.93 59.33 M 88.13 62.42 C 88.10 72.21 88.10 82.01 88.32 91.80 C 92.13 89.60 96.81 87.86 98.47 83.37 C 100.69 79.38 100.45 74.65 98.87 70.49 C 96.72 66.29 92.87 63.15 88.13 62.42 Z" />
<path fill="#000000" opacity="1.00" d=" M 95.35 39.73 C 95.38 36.98 95.41 34.23 95.49 31.48 C 108.56 34.13 120.19 43.02 126.02 55.04 C 132.47 67.21 132.25 82.27 126.62 94.69 C 120.98 107.40 108.89 116.81 95.33 119.65 C 95.39 116.87 95.40 114.09 95.37 111.30 C 114.49 107.81 126.41 86.35 122.12 67.99 C 119.70 54.39 108.92 42.72 95.35 39.73 M 97.00 33.88 C 96.99 35.34 96.98 36.81 96.97 38.27 C 111.14 41.65 122.03 54.69 124.06 68.93 C 124.21 75.28 124.88 81.87 122.77 87.99 C 119.08 99.92 109.16 109.96 96.98 113.09 C 96.99 114.47 97.00 115.85 97.01 117.23 C 106.77 114.09 115.98 108.27 121.45 99.40 C 129.57 86.70 131.25 69.70 124.02 56.21 C 118.97 45.09 108.56 37.26 97.00 33.88 Z" />
<path fill="#000000" opacity="1.00" d=" M 91.81 48.60 C 100.62 49.89 108.55 55.69 112.31 63.77 C 118.22 76.27 114.22 92.85 102.54 100.59 C 99.34 102.81 95.56 103.93 91.77 104.66 C 91.78 102.77 91.80 100.87 91.81 98.98 C 100.61 95.47 107.67 86.77 107.23 77.00 C 107.61 67.27 100.67 58.46 91.79 55.08 C 91.79 52.92 91.80 50.76 91.81 48.60 M 93.32 50.70 C 93.31 52.42 93.99 53.82 95.69 54.38 C 103.66 58.84 109.98 67.50 109.01 76.99 C 109.74 85.37 104.60 93.12 97.92 97.73 C 96.06 98.91 94.03 99.95 92.73 101.82 C 95.09 101.37 97.36 100.60 99.62 99.84 C 111.35 93.19 116.37 77.26 110.76 65.05 C 107.79 57.68 100.98 52.44 93.32 50.70 Z" />
<path fill="#000000" opacity="1.00" d=" M 1.91 59.13 C 8.26 59.18 14.61 59.06 20.95 59.13 C 20.94 71.32 20.96 83.50 20.94 95.68 C 14.60 95.67 8.26 95.67 1.92 95.68 C 1.90 83.50 1.91 71.31 1.91 59.13 M 5.73 62.89 C 5.73 72.26 5.75 81.63 5.72 91.00 C 9.22 91.00 12.71 91.00 16.21 91.00 C 16.20 81.63 16.21 72.26 16.20 62.89 C 12.71 62.89 9.22 62.89 5.73 62.89 Z" />
</g>
<g id="#d2d2d2ff">
<path fill="#d2d2d2" opacity="1.00" d=" M 100.25 15.86 C 110.95 17.27 121.17 22.41 128.32 30.55 C 139.89 43.68 145.32 61.65 144.25 79.01 C 143.05 96.07 135.80 113.39 122.20 124.24 C 115.89 129.19 108.11 132.15 100.19 133.18 C 100.19 131.16 100.19 129.13 100.16 127.11 C 104.09 126.44 107.94 125.36 111.61 123.80 C 124.48 117.36 134.08 104.85 137.48 90.90 C 140.90 77.95 140.13 64.01 135.36 51.49 C 132.53 44.58 128.35 38.19 122.76 33.20 C 116.86 26.85 108.58 23.38 100.18 21.86 C 100.20 19.86 100.22 17.86 100.25 15.86 Z" />
<path fill="#d2d2d2" opacity="1.00" d=" M 31.93 59.33 C 49.36 47.99 66.41 36.08 83.78 24.64 C 83.65 35.10 83.81 45.57 83.70 56.03 C 83.03 67.53 83.88 79.05 83.64 90.55 C 83.91 102.01 83.54 113.48 83.84 124.94 C 67.42 114.69 50.98 104.48 34.50 94.33 C 33.29 93.53 31.49 92.85 31.90 91.05 C 31.72 80.48 31.72 69.90 31.93 59.33 Z" />
<path fill="#d2d2d2" opacity="1.00" d=" M 97.00 33.88 C 108.56 37.26 118.97 45.09 124.02 56.21 C 131.25 69.70 129.57 86.70 121.45 99.40 C 115.98 108.27 106.77 114.09 97.01 117.23 C 97.00 115.85 96.99 114.47 96.98 113.09 C 109.16 109.96 119.08 99.92 122.77 87.99 C 124.88 81.87 124.21 75.28 124.06 68.93 C 122.03 54.69 111.14 41.65 96.97 38.27 C 96.98 36.81 96.99 35.34 97.00 33.88 Z" />
<path fill="#d2d2d2" opacity="1.00" d=" M 93.32 50.70 C 100.98 52.44 107.79 57.68 110.76 65.05 C 116.37 77.26 111.35 93.19 99.62 99.84 C 97.36 100.60 95.09 101.37 92.73 101.82 C 94.03 99.95 96.06 98.91 97.92 97.73 C 104.60 93.12 109.74 85.37 109.01 76.99 C 109.98 67.50 103.66 58.84 95.69 54.38 C 93.99 53.82 93.31 52.42 93.32 50.70 Z" />
<path fill="#d2d2d2" opacity="1.00" d=" M 5.73 62.89 C 9.22 62.89 12.71 62.89 16.20 62.89 C 16.21 72.26 16.20 81.63 16.21 91.00 C 12.71 91.00 9.22 91.00 5.72 91.00 C 5.75 81.63 5.73 72.26 5.73 62.89 Z" />
<path fill="#d2d2d2" opacity="1.00" d=" M 88.13 62.42 C 92.87 63.15 96.72 66.29 98.87 70.49 C 100.45 74.65 100.69 79.38 98.47 83.37 C 96.81 87.86 92.13 89.60 88.32 91.80 C 88.10 82.01 88.10 72.21 88.13 62.42 Z" />
</g>
</svg>
