<?xml version="1.0" encoding="UTF-8" ?>
<!DOCTYPE svg PUBLIC "-//W3C//DTD SVG 1.1//EN" "http://www.w3.org/Graphics/SVG/1.1/DTD/svg11.dtd">
<svg width="150pt" height="148pt" viewBox="0 0 150 148" version="1.1" xmlns="http://www.w3.org/2000/svg">
<g id="#000000b3">
<path fill="#000000" opacity="0.70" d=" M 42.48 24.08 C 41.04 20.43 44.19 16.36 47.92 16.19 C 65.96 16.15 84.00 16.21 102.05 16.16 C 104.28 16.00 106.69 17.04 107.90 18.97 C 109.23 20.50 108.56 22.66 109.32 24.42 C 108.30 25.43 107.23 26.38 106.20 27.38 C 106.11 25.33 106.06 23.29 106.04 21.24 C 104.83 20.35 103.71 18.91 102.04 19.03 C 84.66 18.96 67.27 19.02 49.88 19.00 C 47.88 18.67 46.36 20.06 45.01 21.29 C 45.00 23.02 44.96 24.75 44.90 26.48 C 44.10 25.67 43.29 24.87 42.48 24.08 Z" />
<path fill="#000000" opacity="0.70" d=" M 70.06 24.18 C 73.36 22.38 77.47 23.80 81.10 23.37 C 83.31 22.86 83.50 25.53 83.00 27.02 C 78.74 26.96 74.46 27.23 70.20 26.85 C 70.17 26.18 70.10 24.85 70.06 24.18 Z" />
<path fill="#000000" opacity="0.70" d=" M 50.12 29.33 C 67.08 29.35 84.03 29.40 100.99 29.31 C 100.99 30.12 100.98 31.76 100.97 32.58 C 100.01 33.46 99.05 34.35 98.13 35.26 C 98.08 34.45 97.98 32.82 97.94 32.00 C 83.95 31.99 69.97 32.02 55.99 31.99 C 54.49 31.88 53.06 32.26 51.69 32.82 C 51.06 32.39 50.43 31.96 49.81 31.52 C 49.89 30.97 50.04 29.88 50.12 29.33 Z" />
<path fill="#000000" opacity="0.70" d=" M 126.16 33.43 C 128.49 32.74 131.56 29.78 133.67 32.33 C 138.36 38.98 143.10 45.61 148.11 52.02 C 148.61 52.77 148.78 53.59 148.61 54.47 C 144.31 60.23 140.21 66.15 135.94 71.93 C 140.23 77.44 144.25 83.16 148.31 88.85 C 149.25 89.79 148.52 91.00 147.84 91.81 C 142.93 98.58 137.86 105.23 133.11 112.11 C 131.21 112.28 129.28 112.05 127.98 110.52 C 125.86 108.72 123.47 107.21 121.94 104.84 C 125.49 100.18 128.87 95.38 132.36 90.67 C 128.44 84.39 123.61 78.49 119.29 72.39 C 123.72 66.36 128.04 60.26 132.53 54.28 C 129.21 49.90 126.12 45.35 122.74 41.02 C 123.29 40.43 123.83 39.84 124.42 39.28 C 127.99 44.23 131.45 49.28 135.26 54.05 C 131.04 60.30 126.32 66.22 122.07 72.47 C 126.24 77.53 129.55 83.24 133.74 88.29 C 134.38 89.18 135.72 90.35 134.62 91.47 C 131.05 96.05 127.71 100.81 124.29 105.51 C 124.26 105.86 124.18 106.56 124.14 106.92 C 124.42 106.84 124.96 106.70 125.24 106.62 C 129.44 101.18 133.34 95.50 137.39 89.94 C 133.60 84.37 129.55 78.97 125.51 73.58 C 124.58 72.51 124.76 70.75 125.72 69.77 C 129.82 64.59 133.44 59.06 137.46 53.83 C 133.86 48.39 129.66 43.36 126.11 37.88 C 126.46 37.46 127.18 36.61 127.54 36.18 C 131.69 42.11 136.09 47.87 140.23 53.81 C 135.77 59.68 131.67 65.82 127.06 71.58 C 131.23 77.87 135.95 83.78 140.25 89.99 C 135.81 95.96 131.44 101.99 127.08 108.02 C 128.59 108.76 130.11 109.48 131.66 110.14 C 136.57 103.40 141.47 96.65 146.41 89.93 C 142.11 83.94 137.60 78.08 133.46 71.98 C 137.24 65.70 142.12 59.80 146.46 53.76 C 141.51 47.03 136.57 40.30 131.74 33.50 C 130.48 33.98 129.21 34.46 128.19 35.37 C 127.51 34.73 126.83 34.09 126.16 33.43 Z" />
<path fill="#000000" opacity="0.70" d=" M 18.21 31.92 C 20.21 31.59 21.97 32.73 23.73 33.47 L 24.15 34.23 C 24.72 35.25 25.45 36.16 26.29 36.97 C 21.95 42.62 17.92 48.51 13.64 54.20 C 17.44 59.78 21.55 65.15 25.53 70.60 C 26.36 71.64 26.25 73.39 25.36 74.37 C 21.46 79.57 17.70 84.88 13.86 90.13 C 13.77 91.48 15.12 92.35 15.73 93.44 C 19.22 98.01 22.42 102.79 25.97 107.31 C 25.48 107.63 24.51 108.27 24.02 108.59 C 19.66 102.58 15.34 96.52 10.86 90.59 C 15.08 84.38 19.73 78.47 24.00 72.30 C 19.58 66.29 15.15 60.28 10.84 54.18 C 15.30 48.25 19.58 42.18 24.02 36.24 C 22.56 35.47 21.10 34.68 19.67 33.86 C 14.52 40.51 9.83 47.50 4.68 54.16 C 8.95 60.36 13.67 66.24 17.83 72.52 C 13.40 78.53 8.87 84.48 4.70 90.67 C 9.78 97.26 14.61 104.04 19.43 110.83 C 20.62 110.25 21.82 109.67 23.02 109.10 C 23.33 109.47 23.97 110.20 24.29 110.57 C 22.53 111.74 20.59 113.56 18.31 112.90 C 13.79 106.71 9.29 100.51 4.77 94.32 C 3.61 92.86 1.57 91.27 2.67 89.17 C 7.19 83.94 10.66 77.90 15.09 72.60 C 11.26 66.17 5.74 60.69 2.30 54.10 C 7.23 46.53 12.99 39.36 18.21 31.92 Z" />
<path fill="#000000" opacity="0.70" d=" M 27.66 38.30 C 28.24 38.86 28.81 39.44 29.37 40.02 C 25.79 44.97 22.19 49.90 18.58 54.83 C 23.00 60.87 27.45 66.89 31.80 72.98 C 27.33 78.93 23.02 85.01 18.60 91.01 C 21.85 95.59 25.31 100.02 28.50 104.64 C 27.88 105.30 27.27 105.95 26.65 106.61 C 23.89 100.90 19.19 96.34 15.84 90.95 C 20.27 84.98 24.60 78.94 29.01 72.96 C 24.57 66.95 20.31 60.82 15.86 54.82 C 19.64 49.21 24.06 44.04 27.66 38.30 Z" />
<path fill="#000000" opacity="0.70" d=" M 24.74 54.88 C 27.41 51.07 30.26 47.39 32.90 43.56 C 33.45 44.09 34.00 44.63 34.54 45.18 C 32.21 48.38 29.86 51.57 27.60 54.83 C 31.72 60.64 35.93 66.40 40.10 72.18 C 40.09 72.60 40.06 73.44 40.04 73.86 C 35.95 79.56 31.49 85.04 27.77 91.00 C 29.32 94.10 31.76 96.65 33.76 99.46 C 33.53 99.72 33.06 100.23 32.83 100.49 C 32.56 100.49 32.03 100.51 31.76 100.51 C 29.32 97.42 27.11 94.16 24.71 91.03 C 29.17 85.01 33.49 78.89 37.99 72.90 C 33.49 66.96 29.23 60.83 24.74 54.88 Z" />
<path fill="#000000" opacity="0.70" d=" M 42.19 53.04 C 43.15 54.00 44.09 54.98 45.03 55.96 C 45.01 66.68 44.99 77.40 45.04 88.12 C 44.09 89.07 43.15 90.02 42.19 90.96 C 42.29 78.32 42.29 65.68 42.19 53.04 Z" />
<path fill="#000000" opacity="0.70" d=" M 106.10 57.64 C 107.01 56.74 107.93 55.85 108.84 54.94 C 108.80 67.06 108.91 79.19 108.78 91.31 C 107.89 90.41 106.99 89.51 106.10 88.62 C 106.08 78.29 106.09 67.96 106.10 57.64 Z" />
<path fill="#000000" opacity="0.70" d=" M 50.06 61.48 C 51.16 62.42 52.33 63.29 53.43 64.24 C 52.25 65.93 52.66 68.04 52.62 69.97 C 52.67 73.51 52.55 77.05 52.70 80.58 C 51.77 81.49 50.84 82.40 49.92 83.31 C 49.97 76.04 49.74 68.75 50.06 61.48 Z" />
<path fill="#000000" opacity="0.70" d=" M 98.00 65.61 C 98.99 64.62 100.00 63.63 101.00 62.65 C 100.99 69.55 101.01 76.45 100.99 83.35 C 100.00 82.34 98.99 81.34 97.99 80.34 C 98.00 75.43 98.00 70.52 98.00 65.61 Z" />
<path fill="#000000" opacity="0.70" d=" M 51.52 111.99 C 52.28 111.24 53.02 110.49 53.76 109.73 C 68.55 109.62 83.34 109.57 98.13 109.76 C 98.87 110.52 99.62 111.28 100.38 112.04 C 84.09 112.08 67.80 112.18 51.52 111.99 Z" />
<path fill="#000000" opacity="0.70" d=" M 71.06 117.33 C 72.11 113.66 77.55 113.83 79.99 116.24 L 79.91 117.31 C 79.78 118.47 79.81 119.63 79.99 120.79 L 80.10 121.76 C 77.51 124.45 73.47 124.50 70.96 121.66 L 71.04 120.81 C 71.16 119.65 71.16 118.49 71.06 117.33 M 73.24 118.59 C 73.34 120.18 75.13 121.31 76.56 120.50 C 77.66 120.32 78.44 118.41 77.03 118.09 C 75.76 116.97 74.42 117.87 73.24 118.59 Z" />
<path fill="#000000" opacity="0.70" d=" M 41.72 121.65 C 42.81 120.52 43.88 119.36 44.99 118.24 C 44.97 120.08 44.97 121.91 44.96 123.75 C 45.99 124.45 46.76 125.77 48.10 125.86 C 66.08 125.44 84.08 125.75 102.06 125.65 C 103.67 125.84 104.90 124.69 106.12 123.84 C 106.09 121.82 106.08 119.80 106.09 117.79 C 107.05 118.75 108.01 119.71 108.98 120.67 C 108.68 122.82 109.46 125.89 107.06 127.07 C 103.57 129.69 99.08 128.87 95.06 128.39 C 82.37 128.37 69.68 128.40 56.99 128.37 C 53.42 128.94 49.76 129.31 46.16 128.76 C 43.36 127.57 41.61 124.67 41.72 121.65 Z" />
</g>
<g id="#b3b3b3b3">
<path fill="#b3b3b3" opacity="0.70" d=" M 45.01 21.29 C 46.36 20.06 47.88 18.67 49.88 19.00 C 67.27 19.02 84.66 18.96 102.04 19.03 C 103.71 18.91 104.83 20.35 106.04 21.24 C 106.06 23.29 106.11 25.33 106.20 27.38 C 104.46 29.12 102.79 30.92 100.97 32.58 C 100.98 31.76 100.99 30.12 100.99 29.31 C 84.03 29.40 67.08 29.35 50.12 29.33 C 50.04 29.88 49.89 30.97 49.81 31.52 C 48.03 29.98 46.52 28.17 44.90 26.48 C 44.96 24.75 45.00 23.02 45.01 21.29 M 62.93 24.01 C 62.95 24.76 62.98 26.25 63.00 26.99 C 63.73 27.00 65.19 27.02 65.93 27.02 C 67.35 24.92 64.95 22.08 62.93 24.01 M 70.06 24.18 C 70.10 24.85 70.17 26.18 70.20 26.85 C 74.46 27.23 78.74 26.96 83.00 27.02 C 83.50 25.53 83.31 22.86 81.10 23.37 C 77.47 23.80 73.36 22.38 70.06 24.18 Z" />
<path fill="#b3b3b3" opacity="0.70" d=" M 4.68 54.16 C 9.83 47.50 14.52 40.51 19.67 33.86 C 21.10 34.68 22.56 35.47 24.02 36.24 C 19.58 42.18 15.30 48.25 10.84 54.18 C 15.15 60.28 19.58 66.29 24.00 72.30 C 19.73 78.47 15.08 84.38 10.86 90.59 C 15.34 96.52 19.66 102.58 24.02 108.59 C 23.77 108.72 23.27 108.97 23.02 109.10 C 21.82 109.67 20.62 110.25 19.43 110.83 C 14.61 104.04 9.78 97.26 4.70 90.67 C 8.87 84.48 13.40 78.53 17.83 72.52 C 13.67 66.24 8.95 60.36 4.68 54.16 Z" />
<path fill="#b3b3b3" opacity="0.70" d=" M 128.19 35.37 C 129.21 34.46 130.48 33.98 131.74 33.50 C 136.57 40.30 141.51 47.03 146.46 53.76 C 142.12 59.80 137.24 65.70 133.46 71.98 C 137.60 78.08 142.11 83.94 146.41 89.93 C 141.47 96.65 136.57 103.40 131.66 110.14 C 130.11 109.48 128.59 108.76 127.08 108.02 C 131.44 101.99 135.81 95.96 140.25 89.99 C 135.95 83.78 131.23 77.87 127.06 71.58 C 131.67 65.82 135.77 59.68 140.23 53.81 C 136.09 47.87 131.69 42.11 127.54 36.18 L 128.19 35.37 Z" />
<path fill="#b3b3b3" opacity="0.70" d=" M 18.58 54.83 C 22.19 49.90 25.79 44.97 29.37 40.02 C 30.52 41.23 31.70 42.40 32.90 43.56 C 30.26 47.39 27.41 51.07 24.74 54.88 C 29.23 60.83 33.49 66.96 37.99 72.90 C 33.49 78.89 29.17 85.01 24.71 91.03 C 27.11 94.16 29.32 97.42 31.76 100.51 L 31.92 101.10 C 30.79 102.29 29.63 103.45 28.50 104.64 C 25.31 100.02 21.85 95.59 18.60 91.01 C 23.02 85.01 27.33 78.93 31.80 72.98 C 27.45 66.89 23.00 60.87 18.58 54.83 Z" />
<path fill="#b3b3b3" opacity="0.70" d=" M 119.26 44.50 C 120.46 43.38 121.63 42.23 122.74 41.02 C 126.12 45.35 129.21 49.90 132.53 54.28 C 128.04 60.26 123.72 66.36 119.29 72.39 C 123.61 78.49 128.44 84.39 132.36 90.67 C 128.87 95.38 125.49 100.18 121.94 104.84 C 120.83 103.60 119.68 102.42 118.53 101.23 C 121.09 97.55 123.91 94.05 126.30 90.26 C 121.79 84.37 117.51 78.31 113.16 72.32 C 117.61 66.34 121.96 60.27 126.35 54.24 C 123.93 51.03 121.64 47.73 119.26 44.50 Z" />
<path fill="#b3b3b3" opacity="0.70" d=" M 45.03 55.96 C 46.75 57.76 48.73 59.34 50.06 61.48 C 49.74 68.75 49.97 76.04 49.92 83.31 C 48.29 84.91 46.65 86.51 45.04 88.12 C 44.99 77.40 45.01 66.68 45.03 55.96 Z" />
<path fill="#b3b3b3" opacity="0.70" d=" M 101.00 62.65 C 102.70 60.98 104.39 59.31 106.10 57.64 C 106.09 67.96 106.08 78.29 106.10 88.62 C 104.36 86.89 102.69 85.11 100.99 83.35 C 101.01 76.45 100.99 69.55 101.00 62.65 Z" />
<path fill="#b3b3b3" opacity="0.70" d=" M 44.99 118.24 C 47.10 116.09 49.30 114.03 51.52 111.99 C 67.80 112.18 84.09 112.08 100.38 112.04 C 102.28 113.95 104.18 115.88 106.09 117.79 C 106.08 119.80 106.09 121.82 106.12 123.84 C 104.90 124.69 103.67 125.84 102.06 125.65 C 84.08 125.75 66.08 125.44 48.10 125.86 C 46.76 125.77 45.99 124.45 44.96 123.75 C 44.97 121.91 44.97 120.08 44.99 118.24 M 71.06 117.33 C 69.31 116.97 69.22 121.28 71.04 120.81 L 70.96 121.66 C 73.47 124.50 77.51 124.45 80.10 121.76 L 79.99 120.79 C 81.78 121.23 81.63 116.92 79.91 117.31 L 79.99 116.24 C 77.55 113.83 72.11 113.66 71.06 117.33 Z" />
</g>
<g id="#000000ff">
<path fill="#000000" opacity="1.00" d=" M 24.15 34.23 C 28.93 29.45 33.51 24.46 38.60 19.99 C 39.79 21.44 41.10 22.80 42.48 24.08 C 43.29 24.87 44.10 25.67 44.90 26.48 C 46.52 28.17 48.03 29.98 49.81 31.52 C 50.43 31.96 51.06 32.39 51.69 32.82 C 59.00 41.73 67.76 49.35 75.64 57.76 C 83.12 50.24 90.73 42.86 98.13 35.26 C 99.05 34.35 100.01 33.46 100.97 32.58 C 102.79 30.92 104.46 29.12 106.20 27.38 C 107.23 26.38 108.30 25.43 109.32 24.42 C 110.61 23.07 111.87 21.69 113.22 20.40 C 117.50 24.78 122.06 28.88 126.16 33.43 C 126.83 34.09 127.51 34.73 128.19 35.37 L 127.54 36.18 C 127.18 36.61 126.46 37.46 126.11 37.88 C 125.68 38.23 124.84 38.93 124.42 39.28 C 123.83 39.84 123.29 40.43 122.74 41.02 C 121.63 42.23 120.46 43.38 119.26 44.50 C 118.86 44.88 118.07 45.65 117.68 46.03 C 114.85 49.12 111.75 51.93 108.84 54.94 C 107.93 55.85 107.01 56.74 106.10 57.64 C 104.39 59.31 102.70 60.98 101.00 62.65 C 100.00 63.63 98.99 64.62 98.00 65.61 C 95.53 68.03 93.13 70.52 90.70 72.98 C 93.04 75.52 95.54 77.91 97.99 80.34 C 98.99 81.34 100.00 82.34 100.99 83.35 C 102.69 85.11 104.36 86.89 106.10 88.62 C 106.99 89.51 107.89 90.41 108.78 91.31 C 111.49 94.13 114.26 96.88 117.01 99.66 C 117.52 100.18 118.03 100.71 118.53 101.23 C 119.68 102.42 120.83 103.60 121.94 104.84 C 123.47 107.21 125.86 108.72 127.98 110.52 C 123.39 115.61 118.23 120.13 113.50 125.08 C 111.92 123.69 110.47 122.16 108.98 120.67 C 108.01 119.71 107.05 118.75 106.09 117.79 C 104.18 115.88 102.28 113.95 100.38 112.04 C 99.62 111.28 98.87 110.52 98.13 109.76 C 90.81 102.33 83.56 94.85 76.12 87.55 C 68.59 94.87 61.15 102.27 53.76 109.73 C 53.02 110.49 52.28 111.24 51.52 111.99 C 49.30 114.03 47.10 116.09 44.99 118.24 C 43.88 119.36 42.81 120.52 41.72 121.65 C 40.67 122.74 39.61 123.81 38.56 124.90 C 33.77 120.16 28.87 115.52 24.29 110.57 C 23.97 110.20 23.33 109.47 23.02 109.10 C 23.27 108.97 23.77 108.72 24.02 108.59 C 24.51 108.27 25.48 107.63 25.97 107.31 L 26.65 106.61 C 27.27 105.95 27.88 105.30 28.50 104.64 C 29.63 103.45 30.79 102.29 31.92 101.10 L 31.76 100.51 C 32.03 100.51 32.56 100.49 32.83 100.49 C 33.06 100.23 33.53 99.72 33.76 99.46 C 36.43 96.49 39.35 93.76 42.19 90.96 C 43.15 90.02 44.09 89.07 45.04 88.12 C 46.65 86.51 48.29 84.91 49.92 83.31 C 50.84 82.40 51.77 81.49 52.70 80.58 C 55.52 77.88 58.15 74.98 61.05 72.36 C 58.62 69.55 55.82 67.09 53.43 64.24 C 52.33 63.29 51.16 62.42 50.06 61.48 C 48.73 59.34 46.75 57.76 45.03 55.96 C 44.09 54.98 43.15 54.00 42.19 53.04 C 39.57 50.49 37.01 47.87 34.54 45.18 C 34.00 44.63 33.45 44.09 32.90 43.56 C 31.70 42.40 30.52 41.23 29.37 40.02 C 28.81 39.44 28.24 38.86 27.66 38.30 C 27.32 37.96 26.63 37.30 26.29 36.97 C 25.45 36.16 24.72 35.25 24.15 34.23 M 30.81 34.57 C 41.94 46.34 53.55 57.66 64.83 69.28 C 66.44 71.29 66.31 74.55 64.31 76.25 C 52.90 87.43 41.59 98.70 30.33 110.02 C 33.04 112.73 35.70 115.49 38.51 118.09 C 38.97 117.38 39.48 116.71 40.03 116.07 C 49.96 106.34 59.89 96.60 69.70 86.75 C 71.50 84.97 73.22 82.65 76.03 82.67 C 79.54 82.79 81.31 86.21 83.67 88.30 C 93.66 98.21 103.30 108.52 113.46 118.25 C 115.61 115.64 118.16 113.42 120.48 110.97 C 109.25 99.74 98.33 88.22 87.16 76.94 C 84.55 74.82 85.11 70.57 87.79 68.78 C 98.69 57.58 110.11 46.86 120.97 35.64 C 118.19 33.13 115.78 30.26 112.97 27.79 C 101.74 38.96 90.52 50.16 79.25 61.29 C 77.39 63.55 73.61 63.67 71.77 61.33 C 60.54 50.08 49.42 38.73 38.23 27.45 C 35.74 29.81 33.36 32.28 30.81 34.57 Z" />
</g>
<g id="#090909ad">
<path fill="#090909" opacity="0.68" d=" M 62.93 24.01 C 64.95 22.08 67.35 24.92 65.93 27.02 C 65.19 27.02 63.73 27.00 63.00 26.99 C 62.98 26.25 62.95 24.76 62.93 24.01 Z" />
</g>
<g id="#d2d2d2ff">
<path fill="#d2d2d2" opacity="1.00" d=" M 30.81 34.57 C 33.36 32.28 35.74 29.81 38.23 27.45 C 49.42 38.73 60.54 50.08 71.77 61.33 C 73.61 63.67 77.39 63.55 79.25 61.29 C 90.52 50.16 101.74 38.96 112.97 27.79 C 115.78 30.26 118.19 33.13 120.97 35.64 C 110.11 46.86 98.69 57.58 87.79 68.78 C 85.11 70.57 84.55 74.82 87.16 76.94 C 98.33 88.22 109.25 99.74 120.48 110.97 C 118.16 113.42 115.61 115.64 113.46 118.25 C 103.30 108.52 93.66 98.21 83.67 88.30 C 81.31 86.21 79.54 82.79 76.03 82.67 C 73.22 82.65 71.50 84.97 69.70 86.75 C 59.89 96.60 49.96 106.34 40.03 116.07 C 39.48 116.71 38.97 117.38 38.51 118.09 C 35.70 115.49 33.04 112.73 30.33 110.02 C 41.59 98.70 52.90 87.43 64.31 76.25 C 66.31 74.55 66.44 71.29 64.83 69.28 C 53.55 57.66 41.94 46.34 30.81 34.57 Z" />
</g>
<g id="#000000b4">
<path fill="#000000" opacity="0.71" d=" M 117.68 46.03 C 118.07 45.65 118.86 44.88 119.26 44.50 C 121.64 47.73 123.93 51.03 126.35 54.24 C 121.96 60.27 117.61 66.34 113.16 72.32 C 117.51 78.31 121.79 84.37 126.30 90.26 C 123.91 94.05 121.09 97.55 118.53 101.23 C 118.03 100.71 117.52 100.18 117.01 99.66 C 118.85 96.38 121.91 93.61 123.22 90.18 C 120.16 85.53 116.73 81.12 113.52 76.56 C 112.59 75.09 110.91 73.90 110.85 72.02 C 114.75 65.87 119.54 60.32 123.50 54.20 C 121.53 51.50 119.55 48.81 117.68 46.03 Z" />
</g>
<g id="#5151518a">
<path fill="#515151" opacity="0.54" d=" M 71.04 120.81 C 69.22 121.28 69.31 116.97 71.06 117.33 C 71.16 118.49 71.16 119.65 71.04 120.81 Z" />
</g>
<g id="#3c3c3c85">
<path fill="#3c3c3c" opacity="0.52" d=" M 79.91 117.31 C 81.63 116.92 81.78 121.23 79.99 120.79 C 79.81 119.63 79.78 118.47 79.91 117.31 Z" />
</g>
</svg>
